G75*
G70*
%OFA0B0*%
%FSLAX24Y24*%
%IPPOS*%
%LPD*%
%AMOC8*
5,1,8,0,0,1.08239X$1,22.5*
%
%ADD10R,0.0433X0.0394*%
%ADD11C,0.0594*%
%ADD12C,0.0945*%
%ADD13C,0.0554*%
%ADD14C,0.0440*%
%ADD15R,0.0394X0.0433*%
%ADD16R,0.0551X0.0394*%
%ADD17R,0.0866X0.0472*%
%ADD18R,0.0787X0.0472*%
%ADD19C,0.0860*%
%ADD20R,0.0860X0.0860*%
%ADD21C,0.1000*%
%ADD22C,0.0660*%
%ADD23C,0.0650*%
%ADD24C,0.0600*%
%ADD25C,0.1700*%
%ADD26C,0.0886*%
%ADD27OC8,0.0600*%
%ADD28C,0.0600*%
%ADD29C,0.0700*%
%ADD30OC8,0.0396*%
%ADD31C,0.0100*%
%ADD32C,0.0240*%
%ADD33C,0.0160*%
%ADD34C,0.0400*%
%ADD35C,0.0120*%
%ADD36C,0.0560*%
D10*
X018965Y016681D03*
X019634Y016681D03*
X020146Y016681D03*
X020815Y016681D03*
D11*
X028817Y042913D03*
X029817Y043512D03*
X032797Y042913D03*
X033797Y043512D03*
D12*
X034407Y040382D03*
X028207Y040382D03*
D13*
X030057Y039083D03*
X029557Y038083D03*
X030557Y038083D03*
X031057Y039083D03*
X032057Y039083D03*
X033057Y039083D03*
X032557Y038083D03*
X031557Y038083D03*
D14*
X029945Y025120D02*
X029945Y024680D01*
X027945Y024680D02*
X027945Y025120D01*
D15*
X028610Y024900D03*
X029280Y024900D03*
X019191Y031199D03*
X019191Y031986D03*
X018522Y031986D03*
X018522Y031199D03*
X018522Y032774D03*
X019191Y032774D03*
D16*
X017911Y031917D03*
X017911Y031169D03*
X017045Y031543D03*
D17*
X013472Y027484D03*
X013457Y026461D03*
X013472Y025496D03*
D18*
X023413Y025528D03*
X023421Y026488D03*
X023421Y027417D03*
D19*
X008669Y036248D03*
X007685Y036248D03*
X007685Y043531D03*
X008669Y043531D03*
D20*
X011898Y043531D03*
X012882Y043531D03*
X012882Y036248D03*
X011898Y036248D03*
D21*
X017610Y041715D03*
X018610Y042715D03*
X019610Y043715D03*
X019610Y041715D03*
X017610Y043715D03*
X003138Y034850D03*
X003138Y029240D03*
X003138Y023630D03*
D22*
X025697Y015213D03*
X025697Y014213D03*
X028059Y014622D03*
X028059Y013622D03*
D23*
X020890Y017469D03*
X018890Y017469D03*
D24*
X020858Y011563D03*
X021858Y011563D03*
X022858Y011563D03*
X024205Y011563D03*
X025205Y011563D03*
X026205Y011563D03*
X026500Y003197D03*
X025500Y003197D03*
X024500Y003197D03*
X028043Y003197D03*
X029043Y003197D03*
X030043Y003197D03*
X031587Y003197D03*
X032587Y003197D03*
X033587Y003197D03*
X033610Y016224D03*
X033610Y017224D03*
X033610Y018224D03*
X033610Y019224D03*
X033610Y020224D03*
X033610Y021224D03*
X033610Y022224D03*
X033610Y023224D03*
X033610Y024224D03*
X028878Y035087D03*
X027878Y035087D03*
X026878Y035087D03*
X025878Y035087D03*
X024878Y035087D03*
X025195Y039575D03*
X025746Y040894D03*
X025195Y042213D03*
X022557Y042213D03*
X022006Y040894D03*
X022557Y039575D03*
X019201Y037596D03*
X018650Y036278D03*
X018650Y038915D03*
X016012Y038915D03*
X015461Y037596D03*
X016012Y036278D03*
X008626Y022224D03*
X008626Y021224D03*
X008626Y020224D03*
X008626Y019224D03*
X008626Y018224D03*
D25*
X005894Y018846D03*
X004713Y016996D03*
X003531Y018846D03*
X003531Y013827D03*
X004713Y011976D03*
X005894Y013827D03*
X005894Y008807D03*
X004713Y006957D03*
X003531Y008807D03*
X004713Y038945D03*
X005894Y040795D03*
X003531Y040795D03*
D26*
X005106Y036858D03*
X005106Y035795D03*
X005106Y033906D03*
X005106Y032843D03*
X005106Y031248D03*
X005106Y030185D03*
X005106Y028295D03*
X005106Y027232D03*
X005106Y025638D03*
X005106Y024575D03*
X005106Y022685D03*
X005106Y021622D03*
D27*
X010409Y005500D03*
X010409Y004500D03*
X011409Y004500D03*
X011409Y005500D03*
X012409Y005500D03*
X012409Y004500D03*
X013409Y004500D03*
X013409Y005500D03*
X014409Y005500D03*
X014409Y004500D03*
X018628Y004500D03*
X019628Y004500D03*
X019628Y005500D03*
X018628Y005500D03*
X020628Y005500D03*
X021628Y005500D03*
X021628Y004500D03*
X020628Y004500D03*
X022628Y004500D03*
X022628Y005500D03*
X023886Y036268D03*
X024886Y036268D03*
X025886Y036268D03*
X026886Y036268D03*
X027886Y036268D03*
X028886Y036268D03*
D28*
X035141Y011980D02*
X035741Y011980D01*
X035741Y010980D02*
X035141Y010980D01*
X035141Y009980D02*
X035741Y009980D01*
X035741Y008980D02*
X035141Y008980D01*
X034461Y007453D02*
X033861Y007453D01*
X033861Y006453D02*
X034461Y006453D01*
X034461Y005453D02*
X033861Y005453D01*
X033861Y004453D02*
X034461Y004453D01*
D29*
X035539Y013827D03*
X035539Y015795D03*
D30*
X032734Y014467D03*
X031996Y015500D03*
X031898Y016041D03*
X032094Y016632D03*
X032488Y018354D03*
X032488Y018846D03*
X032980Y019240D03*
X031898Y019535D03*
X031996Y020077D03*
X031996Y020766D03*
X031159Y021455D03*
X030963Y021947D03*
X031159Y022439D03*
X030963Y022931D03*
X030175Y022931D03*
X029978Y022439D03*
X029781Y021947D03*
X029585Y021455D03*
X029289Y019831D03*
X030274Y019831D03*
X030618Y019339D03*
X030618Y018748D03*
X030569Y017813D03*
X030077Y017813D03*
X029585Y017813D03*
X030323Y017026D03*
X030126Y015549D03*
X030815Y014959D03*
X030667Y012990D03*
X030667Y012154D03*
X031848Y010825D03*
X029093Y012154D03*
X028600Y011563D03*
X026484Y015943D03*
X024909Y017813D03*
X024122Y017026D03*
X023433Y016484D03*
X024270Y014319D03*
X023827Y013531D03*
X023531Y012154D03*
X019988Y010726D03*
X019447Y010037D03*
X018955Y010037D03*
X018463Y010037D03*
X017478Y010037D03*
X016445Y010037D03*
X015904Y007724D03*
X013689Y007724D03*
X013197Y008561D03*
X012705Y009102D03*
X012163Y010037D03*
X011720Y011071D03*
X011179Y010037D03*
X013689Y010037D03*
X011327Y014516D03*
X014969Y015598D03*
X013886Y018453D03*
X013787Y019043D03*
X015805Y020274D03*
X017823Y015598D03*
X018807Y013876D03*
X024909Y019535D03*
X025402Y020421D03*
X026189Y020421D03*
X026189Y019929D03*
X026632Y021307D03*
X026632Y021848D03*
X026632Y022390D03*
X027911Y022341D03*
X027911Y021652D03*
X028994Y023522D03*
X029978Y026524D03*
X030520Y028689D03*
X031061Y028689D03*
X032537Y030165D03*
X031799Y031789D03*
X032783Y033266D03*
X033571Y033955D03*
X034358Y033955D03*
X034358Y032724D03*
X033571Y032380D03*
X035146Y029575D03*
X032931Y026228D03*
X032931Y025441D03*
X028207Y019240D03*
X027567Y019240D03*
X028699Y017124D03*
X023039Y021799D03*
X022252Y021799D03*
X021465Y021799D03*
X021366Y024014D03*
X023581Y027409D03*
X027272Y027065D03*
X024959Y031839D03*
X024368Y031839D03*
X022350Y033266D03*
X021366Y033266D03*
X022154Y034890D03*
X022843Y035677D03*
X021169Y037596D03*
X017134Y033906D03*
X016346Y033906D03*
X017429Y032478D03*
X018512Y031199D03*
X015559Y025047D03*
X011573Y025638D03*
X011573Y027606D03*
X008522Y028098D03*
X008522Y030559D03*
X010638Y031789D03*
X011327Y034939D03*
X009998Y038039D03*
X006750Y037104D03*
X008522Y024752D03*
X006947Y017518D03*
X026583Y032970D03*
X027222Y032970D03*
X027222Y033955D03*
X026533Y033955D03*
X028846Y033955D03*
X030028Y031789D03*
X030569Y035726D03*
X031750Y035726D03*
X026878Y037793D03*
D31*
X024368Y036612D02*
X024368Y035776D01*
X024368Y031839D02*
X027665Y028541D01*
X027665Y026770D01*
X027026Y026130D01*
X027026Y021996D01*
X027272Y021750D01*
X027272Y020766D01*
X028846Y019191D01*
X029831Y019191D01*
X030274Y018748D01*
X030618Y018748D01*
X030618Y019339D02*
X030520Y019437D01*
X028945Y019437D01*
X027518Y020864D01*
X027518Y021799D01*
X027272Y022045D01*
X027272Y026031D01*
X027961Y026720D01*
X027961Y028837D01*
X024959Y031839D01*
X029978Y026524D02*
X031799Y026524D01*
X031996Y026327D01*
X031996Y020766D01*
X028502Y020766D01*
X028354Y020913D01*
X028354Y022193D01*
X028207Y022341D01*
X027911Y022341D01*
X027518Y022144D02*
X027911Y021750D01*
X027911Y021652D01*
X027862Y021602D01*
X027862Y021110D01*
X028404Y020569D01*
X031406Y020569D01*
X031898Y020077D01*
X031996Y020077D01*
X031898Y020077D02*
X031553Y019732D01*
X031553Y018305D01*
X032094Y017764D01*
X032094Y016632D01*
X032488Y016238D02*
X032291Y016041D01*
X031898Y016041D01*
X031504Y015844D02*
X031848Y015500D01*
X031996Y015500D01*
X032242Y015106D02*
X032882Y015746D01*
X032882Y017321D01*
X033276Y017715D01*
X033965Y017715D01*
X032980Y019240D02*
X032980Y019594D01*
X033610Y020224D01*
X032980Y019978D02*
X032537Y019535D01*
X032537Y018896D01*
X032488Y018846D01*
X032144Y019043D02*
X032291Y019191D01*
X032291Y019683D01*
X032685Y020077D01*
X032685Y020717D01*
X032980Y021012D01*
X032980Y023669D01*
X033535Y024224D01*
X033610Y024224D01*
X032931Y025441D02*
X032931Y026228D01*
X029945Y024900D02*
X029280Y024900D01*
X028610Y024900D02*
X027945Y024900D01*
X028354Y023522D02*
X028994Y023522D01*
X028354Y023522D02*
X027518Y022685D01*
X027518Y022144D01*
X027026Y021652D02*
X027026Y020421D01*
X028207Y019240D01*
X029289Y019831D02*
X030274Y019831D01*
X029585Y021455D02*
X031159Y021455D01*
X030963Y021947D02*
X029781Y021947D01*
X029978Y022439D02*
X031159Y022439D01*
X030963Y022931D02*
X030175Y022931D01*
X027026Y021652D02*
X026829Y021848D01*
X026632Y021848D01*
X026632Y021307D02*
X026189Y020864D01*
X026189Y020421D01*
X026189Y019929D02*
X025894Y019929D01*
X025402Y020421D01*
X024909Y020667D02*
X024909Y019535D01*
X024909Y020667D02*
X026632Y022390D01*
X024909Y017813D02*
X024122Y017026D01*
X023433Y016484D02*
X029043Y016484D01*
X029978Y015549D01*
X030126Y015549D01*
X030175Y014959D02*
X029191Y015943D01*
X026484Y015943D01*
X028699Y017124D02*
X028994Y017419D01*
X031307Y017419D01*
X031504Y017222D01*
X031504Y015844D01*
X031602Y015106D02*
X032242Y015106D01*
X031602Y015106D02*
X030421Y016287D01*
X030421Y016927D01*
X030323Y017026D01*
X031898Y018404D02*
X032488Y017813D01*
X032488Y016238D01*
X030815Y014959D02*
X030175Y014959D01*
X030667Y012154D02*
X029093Y012154D01*
X023827Y012449D02*
X023531Y012154D01*
X023827Y012449D02*
X023827Y013531D01*
X017823Y015598D02*
X014969Y015598D01*
X019142Y032094D02*
X018856Y032380D01*
X017528Y032380D01*
X017429Y032478D01*
X019142Y032094D02*
X019191Y032094D01*
X031799Y031789D02*
X032783Y032774D01*
X032783Y033266D01*
X033571Y033955D02*
X033571Y032380D01*
X034358Y032724D02*
X034358Y033955D01*
X034457Y030165D02*
X032537Y030165D01*
X034457Y030165D02*
X035047Y029575D01*
X035146Y029575D01*
X033610Y021224D02*
X033587Y021224D01*
X032980Y020618D01*
X032980Y019978D01*
X031898Y019535D02*
X031898Y018404D01*
X032144Y018502D02*
X032144Y019043D01*
X032144Y018502D02*
X032291Y018354D01*
X032488Y018354D01*
D32*
X035539Y015795D02*
X034801Y015057D01*
X034801Y012203D01*
X035024Y011980D01*
X035441Y011980D01*
X027272Y027065D02*
X026927Y027409D01*
X023581Y027409D01*
X022203Y030608D02*
X023974Y032380D01*
X029240Y032380D01*
X029831Y031789D01*
X030028Y031789D01*
X031051Y039083D02*
X031057Y039083D01*
X022203Y030608D02*
X015657Y030608D01*
X011327Y034939D01*
X011573Y025638D02*
X012409Y024801D01*
X015313Y024801D01*
X015559Y025047D01*
D33*
X002352Y037695D02*
X002352Y003716D01*
X002469Y003834D01*
X002788Y003966D01*
X003133Y003966D01*
X003452Y003834D01*
X003696Y003590D01*
X003828Y003271D01*
X003828Y002926D01*
X003696Y002607D01*
X003578Y002489D01*
X008866Y002489D01*
X008866Y012252D01*
X013729Y012252D01*
X014697Y013221D01*
X014697Y013221D01*
X014787Y013311D01*
X014905Y013359D01*
X018724Y013359D01*
X018979Y013615D01*
X018979Y015121D01*
X018133Y015967D01*
X018073Y015967D01*
X018261Y015780D01*
X018261Y015417D01*
X018004Y015160D01*
X017641Y015160D01*
X017493Y015308D01*
X015298Y015308D01*
X015150Y015160D01*
X014787Y015160D01*
X014530Y015417D01*
X014530Y015780D01*
X014787Y016037D01*
X015150Y016037D01*
X015298Y015888D01*
X017493Y015888D01*
X017572Y015967D01*
X015988Y015967D01*
X015870Y016016D01*
X015780Y016106D01*
X015156Y016730D01*
X012902Y016730D01*
X012902Y019954D01*
X010808Y019954D01*
X009166Y018312D01*
X009166Y018117D01*
X009084Y017919D01*
X008932Y017767D01*
X008733Y017684D01*
X008519Y017684D01*
X008320Y017767D01*
X008168Y017919D01*
X008086Y018117D01*
X008086Y018332D01*
X008168Y018530D01*
X008320Y018682D01*
X008422Y018724D01*
X008320Y018767D01*
X008168Y018919D01*
X008086Y019117D01*
X008086Y019332D01*
X008168Y019530D01*
X008320Y019682D01*
X008422Y019724D01*
X008320Y019767D01*
X008168Y019919D01*
X008086Y020117D01*
X008086Y020332D01*
X008168Y020530D01*
X008320Y020682D01*
X008422Y020724D01*
X008320Y020767D01*
X008168Y020919D01*
X008086Y021117D01*
X008086Y021332D01*
X008168Y021530D01*
X008320Y021682D01*
X008422Y021724D01*
X008320Y021767D01*
X008168Y021919D01*
X008086Y022117D01*
X008086Y022332D01*
X008168Y022530D01*
X008320Y022682D01*
X008519Y022764D01*
X008733Y022764D01*
X008932Y022682D01*
X009070Y022544D01*
X012902Y022544D01*
X012902Y024441D01*
X012338Y024441D01*
X012206Y024496D01*
X012104Y024597D01*
X011502Y025200D01*
X011391Y025200D01*
X011135Y025456D01*
X011135Y025819D01*
X011391Y026076D01*
X011754Y026076D01*
X012011Y025819D01*
X012011Y025709D01*
X012559Y025161D01*
X012820Y025161D01*
X012799Y025212D01*
X012799Y025780D01*
X012836Y025868D01*
X012902Y025934D01*
X012902Y026015D01*
X012888Y026021D01*
X012820Y026088D01*
X012784Y026177D01*
X012784Y026745D01*
X012820Y026833D01*
X012888Y026900D01*
X012902Y026906D01*
X012902Y027046D01*
X012836Y027112D01*
X012799Y027200D01*
X012799Y027768D01*
X012836Y027856D01*
X012902Y027922D01*
X012902Y032577D01*
X006898Y032577D01*
X006898Y036666D01*
X006842Y036666D01*
X006838Y036664D01*
X006662Y036664D01*
X006658Y036666D01*
X006569Y036666D01*
X006505Y036729D01*
X006501Y036731D01*
X006377Y036855D01*
X006375Y036860D01*
X006312Y036923D01*
X006312Y037012D01*
X006310Y037017D01*
X006310Y037192D01*
X006312Y037196D01*
X006312Y037286D01*
X006375Y037349D01*
X006377Y037354D01*
X006718Y037695D01*
X002352Y037695D01*
X002352Y037558D02*
X006582Y037558D01*
X006423Y037400D02*
X005531Y037400D01*
X005493Y037437D02*
X005242Y037541D01*
X004970Y037541D01*
X004719Y037437D01*
X004527Y037245D01*
X004423Y036994D01*
X004423Y036722D01*
X004527Y036471D01*
X004672Y036327D01*
X004527Y036182D01*
X004423Y035931D01*
X004423Y035659D01*
X004527Y035408D01*
X004691Y035244D01*
X004621Y035174D01*
X004534Y034964D01*
X004534Y034737D01*
X004621Y034526D01*
X004691Y034456D01*
X004527Y034292D01*
X004423Y034041D01*
X004423Y033770D01*
X004527Y033519D01*
X004672Y033374D01*
X004527Y033229D01*
X004423Y032978D01*
X004423Y032707D01*
X004527Y032456D01*
X004719Y032264D01*
X004970Y032160D01*
X005242Y032160D01*
X005493Y032264D01*
X005685Y032456D01*
X005789Y032707D01*
X005789Y032978D01*
X005685Y033229D01*
X005541Y033374D01*
X005685Y033519D01*
X005789Y033770D01*
X005789Y034041D01*
X005685Y034292D01*
X005521Y034456D01*
X005591Y034526D01*
X005678Y034737D01*
X005678Y034964D01*
X005591Y035174D01*
X005521Y035244D01*
X005685Y035408D01*
X005789Y035659D01*
X005789Y035931D01*
X005685Y036182D01*
X005541Y036327D01*
X005685Y036471D01*
X005789Y036722D01*
X005789Y036994D01*
X005685Y037245D01*
X005493Y037437D01*
X005687Y037241D02*
X006312Y037241D01*
X006310Y037083D02*
X005753Y037083D01*
X005789Y036924D02*
X006312Y036924D01*
X006466Y036766D02*
X005789Y036766D01*
X005741Y036607D02*
X006898Y036607D01*
X006898Y036449D02*
X005662Y036449D01*
X005577Y036290D02*
X006898Y036290D01*
X006898Y036132D02*
X005706Y036132D01*
X005772Y035973D02*
X006898Y035973D01*
X006898Y035815D02*
X005789Y035815D01*
X005788Y035656D02*
X006898Y035656D01*
X006898Y035498D02*
X005722Y035498D01*
X005616Y035339D02*
X006898Y035339D01*
X006898Y035181D02*
X005585Y035181D01*
X005654Y035022D02*
X006898Y035022D01*
X006898Y034864D02*
X005678Y034864D01*
X005665Y034705D02*
X006898Y034705D01*
X006898Y034547D02*
X005600Y034547D01*
X005589Y034388D02*
X006898Y034388D01*
X006898Y034230D02*
X005711Y034230D01*
X005777Y034071D02*
X006898Y034071D01*
X006898Y033913D02*
X005789Y033913D01*
X005783Y033754D02*
X006898Y033754D01*
X006898Y033596D02*
X005717Y033596D01*
X005604Y033437D02*
X006898Y033437D01*
X006898Y033279D02*
X005636Y033279D01*
X005730Y033120D02*
X006898Y033120D01*
X006898Y032962D02*
X005789Y032962D01*
X005789Y032803D02*
X006898Y032803D01*
X006898Y032645D02*
X005764Y032645D01*
X005698Y032486D02*
X012902Y032486D01*
X012902Y032328D02*
X005557Y032328D01*
X005265Y032169D02*
X012902Y032169D01*
X012902Y032011D02*
X002352Y032011D01*
X002352Y032169D02*
X004947Y032169D01*
X004970Y031931D02*
X004719Y031827D01*
X004527Y031635D01*
X004423Y031384D01*
X004423Y031112D01*
X004527Y030861D01*
X004672Y030717D01*
X004527Y030572D01*
X004423Y030321D01*
X004423Y030049D01*
X004527Y029798D01*
X004691Y029634D01*
X004621Y029564D01*
X004534Y029354D01*
X004534Y029126D01*
X004621Y028916D01*
X004691Y028846D01*
X004527Y028682D01*
X004423Y028431D01*
X004423Y028159D01*
X004527Y027908D01*
X004672Y027764D01*
X004527Y027619D01*
X004423Y027368D01*
X004423Y027096D01*
X004527Y026845D01*
X004719Y026653D01*
X004970Y026549D01*
X005242Y026549D01*
X005493Y026653D01*
X005685Y026845D01*
X005789Y027096D01*
X005789Y027368D01*
X005685Y027619D01*
X005541Y027764D01*
X005685Y027908D01*
X005789Y028159D01*
X005789Y028431D01*
X005685Y028682D01*
X012902Y028682D01*
X012902Y028524D02*
X005751Y028524D01*
X005789Y028365D02*
X012902Y028365D01*
X012902Y028207D02*
X005789Y028207D01*
X005743Y028048D02*
X012902Y028048D01*
X012869Y027890D02*
X005666Y027890D01*
X005573Y027731D02*
X012799Y027731D01*
X012799Y027573D02*
X005704Y027573D01*
X005770Y027414D02*
X012799Y027414D01*
X012799Y027256D02*
X005789Y027256D01*
X005789Y027097D02*
X012851Y027097D01*
X012902Y026939D02*
X005724Y026939D01*
X005620Y026780D02*
X012798Y026780D01*
X012784Y026622D02*
X005417Y026622D01*
X005281Y026305D02*
X012784Y026305D01*
X012784Y026463D02*
X002352Y026463D01*
X002352Y026305D02*
X004932Y026305D01*
X004970Y026321D02*
X004719Y026217D01*
X004527Y026025D01*
X004423Y025774D01*
X004423Y025502D01*
X004527Y025251D01*
X004672Y025106D01*
X004527Y024962D01*
X004423Y024711D01*
X004423Y024439D01*
X004527Y024188D01*
X004691Y024024D01*
X004621Y023954D01*
X004534Y023744D01*
X004534Y023516D01*
X004621Y023306D01*
X004691Y023236D01*
X004527Y023072D01*
X004423Y022821D01*
X004423Y022549D01*
X004527Y022298D01*
X004672Y022154D01*
X004527Y022009D01*
X004423Y021758D01*
X004423Y021486D01*
X004527Y021235D01*
X004719Y021043D01*
X004970Y020939D01*
X005242Y020939D01*
X005493Y021043D01*
X005685Y021235D01*
X005789Y021486D01*
X005789Y021758D01*
X005685Y022009D01*
X005541Y022154D01*
X005685Y022298D01*
X005789Y022549D01*
X005789Y022821D01*
X005685Y023072D01*
X005521Y023236D01*
X005591Y023306D01*
X005678Y023516D01*
X005678Y023744D01*
X005591Y023954D01*
X005521Y024024D01*
X005685Y024188D01*
X005789Y024439D01*
X005789Y024711D01*
X005685Y024962D01*
X005541Y025106D01*
X005685Y025251D01*
X005789Y025502D01*
X005789Y025774D01*
X005685Y026025D01*
X005493Y026217D01*
X005242Y026321D01*
X004970Y026321D01*
X004796Y026622D02*
X002352Y026622D01*
X002352Y026780D02*
X002829Y026780D01*
X002814Y026787D02*
X003024Y026700D01*
X003252Y026700D01*
X003462Y026787D01*
X003623Y026948D01*
X003710Y027158D01*
X003710Y027385D01*
X003623Y027596D01*
X003462Y027757D01*
X003252Y027844D01*
X003024Y027844D01*
X002814Y027757D01*
X002653Y027596D01*
X002566Y027385D01*
X002566Y027158D01*
X002653Y026948D01*
X002814Y026787D01*
X002662Y026939D02*
X002352Y026939D01*
X002352Y027097D02*
X002591Y027097D01*
X002566Y027256D02*
X002352Y027256D01*
X002352Y027414D02*
X002578Y027414D01*
X002643Y027573D02*
X002352Y027573D01*
X002352Y027731D02*
X002788Y027731D01*
X002352Y027890D02*
X004546Y027890D01*
X004469Y028048D02*
X002352Y028048D01*
X002352Y028207D02*
X004423Y028207D01*
X004423Y028365D02*
X002352Y028365D01*
X002352Y028524D02*
X002934Y028524D01*
X002991Y028500D02*
X003285Y028500D01*
X003557Y028613D01*
X003765Y028821D01*
X003878Y029093D01*
X003878Y029387D01*
X003765Y029659D01*
X003557Y029867D01*
X003285Y029980D01*
X002991Y029980D01*
X002719Y029867D01*
X002510Y029659D01*
X002398Y029387D01*
X002398Y029093D01*
X002510Y028821D01*
X002719Y028613D01*
X002991Y028500D01*
X003342Y028524D02*
X004462Y028524D01*
X004527Y028682D02*
X003626Y028682D01*
X003773Y028841D02*
X004686Y028841D01*
X004587Y028999D02*
X003839Y028999D01*
X003878Y029158D02*
X004534Y029158D01*
X004534Y029316D02*
X003878Y029316D01*
X003842Y029475D02*
X004584Y029475D01*
X004690Y029633D02*
X003776Y029633D01*
X003633Y029792D02*
X004534Y029792D01*
X004464Y029950D02*
X003357Y029950D01*
X002918Y029950D02*
X002352Y029950D01*
X002352Y029792D02*
X002643Y029792D01*
X002500Y029633D02*
X002352Y029633D01*
X002352Y029475D02*
X002434Y029475D01*
X002398Y029316D02*
X002352Y029316D01*
X002352Y029158D02*
X002398Y029158D01*
X002437Y028999D02*
X002352Y028999D01*
X002352Y028841D02*
X002502Y028841D01*
X002649Y028682D02*
X002352Y028682D01*
X002352Y030109D02*
X004423Y030109D01*
X004423Y030267D02*
X002352Y030267D01*
X002352Y030426D02*
X004467Y030426D01*
X004540Y030584D02*
X002352Y030584D01*
X002352Y030743D02*
X002795Y030743D01*
X002814Y030724D02*
X003024Y030637D01*
X003252Y030637D01*
X003462Y030724D01*
X003623Y030885D01*
X003710Y031095D01*
X003710Y031322D01*
X003623Y031533D01*
X003462Y031694D01*
X003252Y031781D01*
X003024Y031781D01*
X002814Y031694D01*
X002653Y031533D01*
X002566Y031322D01*
X002566Y031095D01*
X002653Y030885D01*
X002814Y030724D01*
X002646Y030901D02*
X002352Y030901D01*
X002352Y031060D02*
X002580Y031060D01*
X002566Y031218D02*
X002352Y031218D01*
X002352Y031377D02*
X002588Y031377D01*
X002655Y031535D02*
X002352Y031535D01*
X002352Y031694D02*
X002814Y031694D01*
X002352Y031852D02*
X004780Y031852D01*
X004970Y031931D02*
X005242Y031931D01*
X005493Y031827D01*
X005685Y031635D01*
X005789Y031384D01*
X005789Y031112D01*
X005685Y030861D01*
X005541Y030717D01*
X005685Y030572D01*
X005789Y030321D01*
X005789Y030049D01*
X005685Y029798D01*
X005521Y029634D01*
X005591Y029564D01*
X005678Y029354D01*
X005678Y029126D01*
X005591Y028916D01*
X005521Y028846D01*
X005685Y028682D01*
X005527Y028841D02*
X012902Y028841D01*
X012902Y028999D02*
X005626Y028999D01*
X005678Y029158D02*
X012902Y029158D01*
X012902Y029316D02*
X005678Y029316D01*
X005628Y029475D02*
X012902Y029475D01*
X012902Y029633D02*
X005522Y029633D01*
X005679Y029792D02*
X012902Y029792D01*
X012902Y029950D02*
X005748Y029950D01*
X005789Y030109D02*
X012902Y030109D01*
X012902Y030267D02*
X005789Y030267D01*
X005746Y030426D02*
X012902Y030426D01*
X012902Y030584D02*
X005673Y030584D01*
X005567Y030743D02*
X012902Y030743D01*
X012902Y030901D02*
X005702Y030901D01*
X005767Y031060D02*
X012902Y031060D01*
X012902Y031218D02*
X005789Y031218D01*
X005789Y031377D02*
X012902Y031377D01*
X012902Y031535D02*
X005727Y031535D01*
X005626Y031694D02*
X012902Y031694D01*
X012902Y031852D02*
X005432Y031852D01*
X004586Y031694D02*
X003462Y031694D01*
X003620Y031535D02*
X004486Y031535D01*
X004423Y031377D02*
X003687Y031377D01*
X003710Y031218D02*
X004423Y031218D01*
X004445Y031060D02*
X003695Y031060D01*
X003630Y030901D02*
X004511Y030901D01*
X004646Y030743D02*
X003481Y030743D01*
X003252Y032310D02*
X003024Y032310D01*
X002814Y032397D01*
X002653Y032558D01*
X002566Y032768D01*
X002566Y032996D01*
X002653Y033206D01*
X002814Y033367D01*
X003024Y033454D01*
X003252Y033454D01*
X003462Y033367D01*
X003623Y033206D01*
X003710Y032996D01*
X003710Y032768D01*
X003623Y032558D01*
X003462Y032397D01*
X003252Y032310D01*
X003295Y032328D02*
X004655Y032328D01*
X004515Y032486D02*
X003551Y032486D01*
X003659Y032645D02*
X004449Y032645D01*
X004423Y032803D02*
X003710Y032803D01*
X003710Y032962D02*
X004423Y032962D01*
X004482Y033120D02*
X003658Y033120D01*
X003550Y033279D02*
X004577Y033279D01*
X004609Y033437D02*
X003292Y033437D01*
X002983Y033437D02*
X002352Y033437D01*
X002352Y033279D02*
X002725Y033279D01*
X002617Y033120D02*
X002352Y033120D01*
X002352Y032962D02*
X002566Y032962D01*
X002566Y032803D02*
X002352Y032803D01*
X002352Y032645D02*
X002617Y032645D01*
X002724Y032486D02*
X002352Y032486D01*
X002352Y032328D02*
X002981Y032328D01*
X002352Y033596D02*
X004495Y033596D01*
X004430Y033754D02*
X002352Y033754D01*
X002352Y033913D02*
X004423Y033913D01*
X004436Y034071D02*
X002352Y034071D01*
X002352Y034230D02*
X002712Y034230D01*
X002719Y034223D02*
X002991Y034110D01*
X003285Y034110D01*
X003557Y034223D01*
X003765Y034431D01*
X003878Y034703D01*
X003878Y034998D01*
X003765Y035270D01*
X003557Y035478D01*
X003285Y035590D01*
X002991Y035590D01*
X002719Y035478D01*
X002510Y035270D01*
X002398Y034998D01*
X002398Y034703D01*
X002510Y034431D01*
X002719Y034223D01*
X002554Y034388D02*
X002352Y034388D01*
X002352Y034547D02*
X002463Y034547D01*
X002398Y034705D02*
X002352Y034705D01*
X002352Y034864D02*
X002398Y034864D01*
X002408Y035022D02*
X002352Y035022D01*
X002352Y035181D02*
X002474Y035181D01*
X002580Y035339D02*
X002352Y035339D01*
X002352Y035498D02*
X002767Y035498D01*
X002352Y035656D02*
X004425Y035656D01*
X004423Y035815D02*
X002352Y035815D01*
X002352Y035973D02*
X004441Y035973D01*
X004506Y036132D02*
X002352Y036132D01*
X002352Y036290D02*
X002919Y036290D01*
X003024Y036247D02*
X003252Y036247D01*
X003462Y036334D01*
X003623Y036495D01*
X003710Y036705D01*
X003710Y036933D01*
X003623Y037143D01*
X003462Y037304D01*
X003252Y037391D01*
X003024Y037391D01*
X002814Y037304D01*
X002653Y037143D01*
X002566Y036933D01*
X002566Y036705D01*
X002653Y036495D01*
X002814Y036334D01*
X003024Y036247D01*
X003356Y036290D02*
X004635Y036290D01*
X004550Y036449D02*
X003577Y036449D01*
X003669Y036607D02*
X004471Y036607D01*
X004423Y036766D02*
X003710Y036766D01*
X003710Y036924D02*
X004423Y036924D01*
X004460Y037083D02*
X003648Y037083D01*
X003525Y037241D02*
X004526Y037241D01*
X004682Y037400D02*
X002352Y037400D01*
X002352Y037241D02*
X002751Y037241D01*
X002628Y037083D02*
X002352Y037083D01*
X002352Y036924D02*
X002566Y036924D01*
X002566Y036766D02*
X002352Y036766D01*
X002352Y036607D02*
X002606Y036607D01*
X002699Y036449D02*
X002352Y036449D01*
X003509Y035498D02*
X004490Y035498D01*
X004597Y035339D02*
X003696Y035339D01*
X003802Y035181D02*
X004627Y035181D01*
X004558Y035022D02*
X003868Y035022D01*
X003878Y034864D02*
X004534Y034864D01*
X004547Y034705D02*
X003878Y034705D01*
X003813Y034547D02*
X004613Y034547D01*
X004623Y034388D02*
X003722Y034388D01*
X003564Y034230D02*
X004501Y034230D01*
X007193Y034398D02*
X007193Y035888D01*
X007220Y035851D01*
X007288Y035783D01*
X007365Y035726D01*
X007451Y035683D01*
X007542Y035653D01*
X007637Y035638D01*
X007647Y035638D01*
X007647Y036210D01*
X007723Y036210D01*
X007723Y035638D01*
X007733Y035638D01*
X007828Y035653D01*
X007919Y035683D01*
X008005Y035726D01*
X008082Y035783D01*
X008150Y035851D01*
X008177Y035888D01*
X008204Y035851D01*
X008272Y035783D01*
X008350Y035726D01*
X008435Y035683D01*
X008526Y035653D01*
X008621Y035638D01*
X008631Y035638D01*
X008631Y036210D01*
X008059Y036210D01*
X007723Y036210D01*
X007723Y036286D01*
X007647Y036286D01*
X007647Y036858D01*
X007637Y036858D01*
X007542Y036843D01*
X007451Y036813D01*
X007365Y036770D01*
X007288Y036713D01*
X007220Y036645D01*
X007193Y036608D01*
X007193Y036925D01*
X007867Y037599D01*
X010086Y037599D01*
X010090Y037601D01*
X010180Y037601D01*
X010243Y037664D01*
X010247Y037666D01*
X010371Y037790D01*
X010373Y037795D01*
X010436Y037858D01*
X010436Y037947D01*
X010438Y037952D01*
X010438Y038127D01*
X010436Y038131D01*
X010436Y038221D01*
X010373Y038284D01*
X010371Y038289D01*
X010247Y038412D01*
X010243Y038414D01*
X010180Y038477D01*
X010090Y038477D01*
X010086Y038479D01*
X007598Y038479D01*
X007436Y038412D01*
X007312Y038289D01*
X007063Y038039D01*
X005206Y038039D01*
X005212Y038042D01*
X005310Y038104D01*
X005400Y038176D01*
X005482Y038257D01*
X005554Y038348D01*
X005615Y038446D01*
X005666Y038550D01*
X005704Y038659D01*
X005730Y038772D01*
X005740Y038865D01*
X004793Y038865D01*
X004793Y039025D01*
X005740Y039025D01*
X005730Y039118D01*
X005704Y039230D01*
X005666Y039340D01*
X005615Y039444D01*
X005554Y039542D01*
X005482Y039632D01*
X005400Y039714D01*
X005310Y039786D01*
X005212Y039848D01*
X005107Y039898D01*
X004998Y039936D01*
X004885Y039962D01*
X004793Y039972D01*
X004793Y039025D01*
X004633Y039025D01*
X004633Y039972D01*
X004540Y039962D01*
X004427Y039936D01*
X004318Y039898D01*
X004214Y039848D01*
X004116Y039786D01*
X004025Y039714D01*
X003943Y039632D01*
X003871Y039542D01*
X003810Y039444D01*
X003760Y039340D01*
X003721Y039230D01*
X003696Y039118D01*
X003685Y039025D01*
X004633Y039025D01*
X004633Y038865D01*
X003685Y038865D01*
X003696Y038772D01*
X003721Y038659D01*
X003760Y038550D01*
X003810Y038446D01*
X003871Y038348D01*
X003943Y038257D01*
X004025Y038176D01*
X004116Y038104D01*
X004214Y038042D01*
X004219Y038039D01*
X002352Y038039D01*
X002352Y042737D01*
X002469Y042619D01*
X002788Y042487D01*
X003133Y042487D01*
X003452Y042619D01*
X003696Y042863D01*
X003828Y043182D01*
X003828Y043527D01*
X003696Y043846D01*
X003480Y044062D01*
X007382Y044062D01*
X007365Y044053D01*
X007288Y043997D01*
X007220Y043929D01*
X007163Y043851D01*
X007120Y043766D01*
X007090Y043674D01*
X007075Y043580D01*
X007075Y043570D01*
X007647Y043570D01*
X007647Y043493D01*
X007723Y043493D01*
X007723Y042921D01*
X007733Y042921D01*
X007828Y042937D01*
X007919Y042966D01*
X008005Y043010D01*
X008082Y043066D01*
X008150Y043134D01*
X008177Y043171D01*
X008204Y043134D01*
X008272Y043066D01*
X008350Y043010D01*
X008435Y042966D01*
X008526Y042937D01*
X008621Y042921D01*
X008631Y042921D01*
X008631Y043493D01*
X008707Y043493D01*
X008707Y042921D01*
X008717Y042921D01*
X008812Y042937D01*
X008903Y042966D01*
X008989Y043010D01*
X009067Y043066D01*
X009135Y043134D01*
X009191Y043212D01*
X009235Y043297D01*
X009264Y043389D01*
X009279Y043483D01*
X009279Y043493D01*
X008707Y043493D01*
X008707Y043570D01*
X009279Y043570D01*
X009279Y043580D01*
X009264Y043674D01*
X009235Y043766D01*
X009191Y043851D01*
X009135Y043929D01*
X009067Y043997D01*
X008989Y044053D01*
X008972Y044062D01*
X011249Y044062D01*
X011228Y044009D01*
X011228Y043971D01*
X010432Y043971D01*
X010270Y043905D01*
X007601Y041235D01*
X006898Y041235D01*
X006766Y041465D01*
X006563Y041667D01*
X006314Y041811D01*
X006037Y041885D01*
X005750Y041885D01*
X005473Y041811D01*
X005224Y041667D01*
X005021Y041465D01*
X004878Y041216D01*
X004804Y040939D01*
X004804Y040652D01*
X004878Y040375D01*
X005021Y040126D01*
X005224Y039923D01*
X005473Y039780D01*
X005750Y039705D01*
X006037Y039705D01*
X006314Y039780D01*
X006563Y039923D01*
X006766Y040126D01*
X006898Y040355D01*
X007871Y040355D01*
X008033Y040422D01*
X008156Y040546D01*
X010702Y043091D01*
X011228Y043091D01*
X011228Y043054D01*
X011264Y042966D01*
X011332Y042898D01*
X011420Y042861D01*
X012375Y042861D01*
X012390Y042867D01*
X012404Y042861D01*
X012442Y042861D01*
X012442Y041958D01*
X012509Y041796D01*
X015472Y038833D01*
X015472Y038808D01*
X015554Y038609D01*
X015706Y038458D01*
X015904Y038375D01*
X016119Y038375D01*
X016318Y038458D01*
X016470Y038609D01*
X016549Y038800D01*
X017365Y039617D01*
X021257Y039617D01*
X021419Y039684D01*
X022088Y040354D01*
X022113Y040354D01*
X022312Y040436D01*
X022464Y040588D01*
X022546Y040786D01*
X022546Y041001D01*
X022464Y041200D01*
X022312Y041351D01*
X022113Y041434D01*
X021898Y041434D01*
X021700Y041351D01*
X021548Y041200D01*
X021466Y041001D01*
X021466Y040976D01*
X020987Y040497D01*
X017096Y040497D01*
X016934Y040430D01*
X016810Y040306D01*
X016027Y039523D01*
X013322Y042228D01*
X013322Y042861D01*
X013360Y042861D01*
X013448Y042898D01*
X013515Y042966D01*
X013552Y043054D01*
X013552Y044009D01*
X013530Y044062D01*
X017025Y044062D01*
X016999Y044016D01*
X016965Y043934D01*
X016942Y043848D01*
X016935Y043792D01*
X017533Y043792D01*
X017533Y043637D01*
X017688Y043637D01*
X017688Y043792D01*
X018286Y043792D01*
X018279Y043848D01*
X018256Y043934D01*
X018221Y044016D01*
X018195Y044062D01*
X019025Y044062D01*
X018999Y044016D01*
X018965Y043934D01*
X018942Y043848D01*
X018935Y043792D01*
X019533Y043792D01*
X019533Y043637D01*
X019688Y043637D01*
X019688Y043792D01*
X020286Y043792D01*
X020279Y043848D01*
X020256Y043934D01*
X020221Y044016D01*
X020195Y044062D01*
X034922Y044062D01*
X034706Y043846D01*
X034574Y043527D01*
X034574Y043182D01*
X034706Y042863D01*
X034950Y042619D01*
X035268Y042487D01*
X035613Y042487D01*
X035932Y042619D01*
X036050Y042737D01*
X036050Y015939D01*
X036031Y015999D01*
X035993Y016073D01*
X035944Y016141D01*
X035885Y016200D01*
X035817Y016249D01*
X035743Y016286D01*
X035663Y016312D01*
X035581Y016325D01*
X035559Y016325D01*
X035559Y015815D01*
X035519Y015815D01*
X035519Y015775D01*
X035009Y015775D01*
X035009Y015754D01*
X035022Y015671D01*
X035048Y015592D01*
X035086Y015517D01*
X035135Y015450D01*
X035194Y015391D01*
X035262Y015342D01*
X035336Y015304D01*
X035415Y015278D01*
X035498Y015265D01*
X035519Y015265D01*
X035519Y015775D01*
X035559Y015775D01*
X035559Y015265D01*
X035581Y015265D01*
X035663Y015278D01*
X035743Y015304D01*
X035817Y015342D01*
X035885Y015391D01*
X035944Y015450D01*
X035993Y015517D01*
X036031Y015592D01*
X036050Y015651D01*
X036050Y014136D01*
X036040Y014161D01*
X035874Y014327D01*
X035657Y014417D01*
X035422Y014417D01*
X035205Y014327D01*
X035039Y014161D01*
X034949Y013944D01*
X034949Y013709D01*
X035039Y013493D01*
X035205Y013327D01*
X035422Y013237D01*
X035657Y013237D01*
X035874Y013327D01*
X036040Y013493D01*
X036050Y013518D01*
X036050Y012349D01*
X035993Y012391D01*
X035925Y012425D01*
X035853Y012448D01*
X035779Y012460D01*
X035461Y012460D01*
X035461Y012000D01*
X035421Y012000D01*
X034727Y012000D01*
X034727Y011960D01*
X035421Y011960D01*
X035421Y012000D01*
X035421Y012460D01*
X035103Y012460D01*
X035029Y012448D01*
X034957Y012425D01*
X034889Y012391D01*
X034828Y012346D01*
X034775Y012293D01*
X034730Y012232D01*
X034727Y012226D01*
X034727Y015171D01*
X034736Y015180D01*
X034826Y015270D01*
X034875Y015387D01*
X034875Y017188D01*
X034826Y017305D01*
X034146Y017986D01*
X034103Y018003D01*
X034150Y018117D01*
X034150Y018332D01*
X034068Y018530D01*
X033916Y018682D01*
X033814Y018724D01*
X033916Y018767D01*
X034068Y018919D01*
X034150Y019117D01*
X034150Y019332D01*
X034068Y019530D01*
X033916Y019682D01*
X033814Y019724D01*
X033916Y019767D01*
X034068Y019919D01*
X034150Y020117D01*
X034150Y020332D01*
X034068Y020530D01*
X033916Y020682D01*
X033814Y020724D01*
X033916Y020767D01*
X034068Y020919D01*
X034150Y021117D01*
X034150Y021332D01*
X034068Y021530D01*
X033916Y021682D01*
X033814Y021724D01*
X033916Y021767D01*
X034068Y021919D01*
X034150Y022117D01*
X034150Y022332D01*
X034068Y022530D01*
X033916Y022682D01*
X033814Y022724D01*
X033916Y022767D01*
X034068Y022919D01*
X034150Y023117D01*
X034150Y023332D01*
X034068Y023530D01*
X033916Y023682D01*
X033814Y023724D01*
X033916Y023767D01*
X034068Y023919D01*
X034150Y024117D01*
X034150Y024332D01*
X034068Y024530D01*
X033916Y024682D01*
X033718Y024764D01*
X033503Y024764D01*
X033304Y024682D01*
X033152Y024530D01*
X033070Y024332D01*
X033070Y024169D01*
X032816Y023915D01*
X032734Y023834D01*
X032690Y023727D01*
X032690Y021132D01*
X032521Y020962D01*
X032439Y020881D01*
X032434Y020869D01*
X032434Y020947D01*
X032286Y021095D01*
X032286Y026384D01*
X032242Y026491D01*
X032160Y026573D01*
X031963Y026769D01*
X031857Y026814D01*
X030308Y026814D01*
X030160Y026962D01*
X029797Y026962D01*
X029540Y026705D01*
X029540Y026342D01*
X029797Y026086D01*
X030160Y026086D01*
X030308Y026234D01*
X031679Y026234D01*
X031706Y026207D01*
X031706Y021095D01*
X031666Y021056D01*
X031380Y021056D01*
X031598Y021273D01*
X031598Y021636D01*
X031401Y021833D01*
X031401Y022061D01*
X031598Y022258D01*
X031598Y022620D01*
X031401Y022817D01*
X031401Y023113D01*
X031144Y023369D01*
X030781Y023369D01*
X030633Y023221D01*
X030505Y023221D01*
X030357Y023369D01*
X029994Y023369D01*
X029737Y023113D01*
X029737Y022817D01*
X029540Y022620D01*
X029540Y022325D01*
X029343Y022128D01*
X029343Y021833D01*
X029147Y021636D01*
X029147Y021273D01*
X029364Y021056D01*
X028644Y021056D01*
X028644Y022251D01*
X028600Y022357D01*
X028519Y022439D01*
X028371Y022586D01*
X028264Y022631D01*
X028241Y022631D01*
X028093Y022779D01*
X027730Y022779D01*
X027562Y022610D01*
X027562Y024412D01*
X027684Y024290D01*
X027853Y024220D01*
X028036Y024220D01*
X028205Y024290D01*
X028335Y024419D01*
X028348Y024450D01*
X028366Y024443D01*
X028855Y024443D01*
X028943Y024480D01*
X028945Y024481D01*
X028947Y024480D01*
X029035Y024443D01*
X029524Y024443D01*
X029542Y024450D01*
X029555Y024419D01*
X029684Y024290D01*
X029853Y024220D01*
X030036Y024220D01*
X030205Y024290D01*
X030335Y024419D01*
X030405Y024588D01*
X030405Y025211D01*
X030335Y025380D01*
X030205Y025510D01*
X030036Y025580D01*
X029853Y025580D01*
X029684Y025510D01*
X029555Y025380D01*
X029542Y025349D01*
X029524Y025356D01*
X029035Y025356D01*
X028947Y025320D01*
X028945Y025318D01*
X028943Y025320D01*
X028855Y025356D01*
X028366Y025356D01*
X028348Y025349D01*
X028335Y025380D01*
X028205Y025510D01*
X028036Y025580D01*
X027853Y025580D01*
X027684Y025510D01*
X027562Y025387D01*
X027562Y025911D01*
X028206Y026556D01*
X028251Y026663D01*
X028251Y028894D01*
X028206Y029001D01*
X028125Y029082D01*
X025397Y031811D01*
X025397Y032020D01*
X029091Y032020D01*
X029526Y031585D01*
X029627Y031484D01*
X029759Y031429D01*
X029768Y031429D01*
X029846Y031351D01*
X030209Y031351D01*
X030249Y031391D01*
X030249Y029038D01*
X030082Y028870D01*
X030082Y028508D01*
X030338Y028251D01*
X030701Y028251D01*
X030790Y028340D01*
X030880Y028251D01*
X031242Y028251D01*
X031499Y028508D01*
X031499Y028870D01*
X031430Y028939D01*
X031430Y031539D01*
X031618Y031351D01*
X031981Y031351D01*
X032237Y031608D01*
X032237Y031817D01*
X033029Y032609D01*
X033073Y032716D01*
X033073Y032936D01*
X033222Y033084D01*
X033222Y033447D01*
X032965Y033704D01*
X032602Y033704D01*
X032345Y033447D01*
X032345Y033084D01*
X032493Y032936D01*
X032493Y032894D01*
X031827Y032227D01*
X031618Y032227D01*
X031430Y032040D01*
X031430Y034954D01*
X031764Y035288D01*
X031931Y035288D01*
X032188Y035545D01*
X032188Y035908D01*
X031931Y036164D01*
X031569Y036164D01*
X031312Y035908D01*
X031312Y035741D01*
X030929Y035358D01*
X030889Y035318D01*
X030889Y035427D01*
X031007Y035545D01*
X031007Y035908D01*
X030750Y036164D01*
X030387Y036164D01*
X030131Y035908D01*
X030131Y035545D01*
X030249Y035427D01*
X030249Y032188D01*
X030209Y032227D01*
X029902Y032227D01*
X029545Y032584D01*
X029444Y032685D01*
X029312Y032740D01*
X027611Y032740D01*
X027661Y032789D01*
X027661Y033152D01*
X027522Y033290D01*
X027522Y033635D01*
X027661Y033773D01*
X027661Y034136D01*
X027621Y034176D01*
X028351Y034176D01*
X028469Y034225D01*
X028790Y034547D01*
X028985Y034547D01*
X028986Y034547D01*
X028832Y034393D01*
X028665Y034393D01*
X028408Y034136D01*
X028408Y033773D01*
X028665Y033517D01*
X029028Y033517D01*
X029285Y033773D01*
X029285Y033940D01*
X029914Y034569D01*
X030004Y034659D01*
X030052Y034777D01*
X030052Y036873D01*
X030004Y036990D01*
X029410Y037584D01*
X029454Y037566D01*
X029660Y037566D01*
X029850Y037644D01*
X029996Y037790D01*
X030057Y037938D01*
X030119Y037790D01*
X030264Y037644D01*
X030454Y037566D01*
X030660Y037566D01*
X030850Y037644D01*
X030996Y037790D01*
X031057Y037938D01*
X031119Y037790D01*
X031264Y037644D01*
X031454Y037566D01*
X031660Y037566D01*
X031850Y037644D01*
X031996Y037790D01*
X032057Y037938D01*
X032119Y037790D01*
X032264Y037644D01*
X032454Y037566D01*
X032660Y037566D01*
X032850Y037644D01*
X032996Y037790D01*
X033074Y037980D01*
X033074Y038186D01*
X032996Y038376D01*
X032850Y038521D01*
X032660Y038600D01*
X032454Y038600D01*
X032264Y038521D01*
X032119Y038376D01*
X032057Y038227D01*
X031996Y038376D01*
X031850Y038521D01*
X031664Y038598D01*
X031497Y038765D01*
X031497Y038794D01*
X031557Y038938D01*
X031619Y038790D01*
X031764Y038644D01*
X031954Y038566D01*
X032160Y038566D01*
X032350Y038644D01*
X032496Y038790D01*
X032557Y038938D01*
X032619Y038790D01*
X032764Y038644D01*
X032954Y038566D01*
X033160Y038566D01*
X033350Y038644D01*
X033496Y038790D01*
X033574Y038980D01*
X033574Y039186D01*
X033496Y039376D01*
X033350Y039521D01*
X033160Y039600D01*
X032954Y039600D01*
X032764Y039521D01*
X032619Y039376D01*
X032557Y039227D01*
X032496Y039376D01*
X032350Y039521D01*
X032160Y039600D01*
X031954Y039600D01*
X031764Y039521D01*
X031619Y039376D01*
X031557Y039227D01*
X031496Y039376D01*
X031491Y039380D01*
X031491Y039465D01*
X031424Y039627D01*
X030917Y040135D01*
X030755Y040202D01*
X029153Y040202D01*
X028991Y040135D01*
X028867Y040011D01*
X028123Y039267D01*
X025651Y039267D01*
X025653Y039269D01*
X025735Y039467D01*
X025735Y039682D01*
X025653Y039881D01*
X025501Y040033D01*
X025302Y040115D01*
X025087Y040115D01*
X024889Y040033D01*
X024737Y039881D01*
X024655Y039682D01*
X024655Y039467D01*
X024737Y039269D01*
X024739Y039267D01*
X023013Y039267D01*
X023015Y039269D01*
X023097Y039467D01*
X023097Y039682D01*
X023015Y039881D01*
X022863Y040033D01*
X022664Y040115D01*
X022450Y040115D01*
X022251Y040033D01*
X022099Y039881D01*
X022017Y039682D01*
X022017Y039467D01*
X022099Y039269D01*
X022101Y039267D01*
X020540Y039267D01*
X020379Y039200D01*
X019985Y038806D01*
X019861Y038682D01*
X019794Y038521D01*
X019794Y035909D01*
X019708Y035822D01*
X018958Y035822D01*
X019107Y035972D01*
X019190Y036170D01*
X019190Y036385D01*
X019107Y036583D01*
X018955Y036735D01*
X018757Y036818D01*
X018542Y036818D01*
X018344Y036735D01*
X018192Y036583D01*
X018110Y036385D01*
X018110Y036170D01*
X018192Y035972D01*
X018342Y035822D01*
X016320Y035822D01*
X016470Y035972D01*
X016552Y036170D01*
X016552Y036385D01*
X016470Y036583D01*
X016318Y036735D01*
X016119Y036818D01*
X015904Y036818D01*
X015706Y036735D01*
X015554Y036583D01*
X015472Y036385D01*
X015472Y036170D01*
X015554Y035972D01*
X015704Y035822D01*
X015643Y035822D01*
X013865Y037600D01*
X013741Y037723D01*
X013580Y037790D01*
X010550Y037790D01*
X010389Y037723D01*
X010265Y037600D01*
X009896Y037231D01*
X009773Y037108D01*
X009706Y036946D01*
X009706Y032921D01*
X007242Y032921D01*
X007242Y034398D01*
X007193Y034398D01*
X007242Y034388D02*
X009706Y034388D01*
X009706Y034230D02*
X007242Y034230D01*
X007242Y034071D02*
X009706Y034071D01*
X009706Y033913D02*
X007242Y033913D01*
X007242Y033754D02*
X009706Y033754D01*
X009706Y033596D02*
X007242Y033596D01*
X007242Y033437D02*
X009706Y033437D01*
X009706Y033279D02*
X007242Y033279D01*
X007242Y033120D02*
X009706Y033120D01*
X009706Y032962D02*
X007242Y032962D01*
X007193Y034547D02*
X009706Y034547D01*
X009706Y034705D02*
X007193Y034705D01*
X007193Y034864D02*
X009706Y034864D01*
X009706Y035022D02*
X007193Y035022D01*
X007193Y035181D02*
X009706Y035181D01*
X009706Y035339D02*
X007193Y035339D01*
X007193Y035498D02*
X009706Y035498D01*
X009706Y035656D02*
X008822Y035656D01*
X008812Y035653D02*
X008903Y035683D01*
X008989Y035726D01*
X009067Y035783D01*
X009135Y035851D01*
X009191Y035928D01*
X009235Y036014D01*
X009264Y036105D01*
X009279Y036200D01*
X009279Y036210D01*
X008707Y036210D01*
X008707Y035638D01*
X008717Y035638D01*
X008812Y035653D01*
X008707Y035656D02*
X008631Y035656D01*
X008517Y035656D02*
X007837Y035656D01*
X007723Y035656D02*
X007647Y035656D01*
X007533Y035656D02*
X007193Y035656D01*
X007193Y035815D02*
X007256Y035815D01*
X007647Y035815D02*
X007723Y035815D01*
X007723Y035973D02*
X007647Y035973D01*
X007647Y036132D02*
X007723Y036132D01*
X007723Y036286D02*
X008631Y036286D01*
X008631Y036210D01*
X008707Y036210D01*
X008707Y036286D01*
X008631Y036286D01*
X008631Y036858D01*
X008621Y036858D01*
X008526Y036843D01*
X008435Y036813D01*
X008350Y036770D01*
X008272Y036713D01*
X008204Y036645D01*
X008177Y036608D01*
X008150Y036645D01*
X008082Y036713D01*
X008005Y036770D01*
X007919Y036813D01*
X007828Y036843D01*
X007733Y036858D01*
X007723Y036858D01*
X007723Y036286D01*
X007723Y036290D02*
X007647Y036290D01*
X007647Y036449D02*
X007723Y036449D01*
X007723Y036607D02*
X007647Y036607D01*
X007647Y036766D02*
X007723Y036766D01*
X008010Y036766D02*
X008344Y036766D01*
X008631Y036766D02*
X008707Y036766D01*
X008707Y036858D02*
X008707Y036286D01*
X009279Y036286D01*
X009279Y036296D01*
X009264Y036391D01*
X009235Y036482D01*
X009191Y036568D01*
X009135Y036645D01*
X009067Y036713D01*
X008989Y036770D01*
X008903Y036813D01*
X008812Y036843D01*
X008717Y036858D01*
X008707Y036858D01*
X008707Y036607D02*
X008631Y036607D01*
X008631Y036449D02*
X008707Y036449D01*
X008707Y036290D02*
X008631Y036290D01*
X008631Y036132D02*
X008707Y036132D01*
X008707Y035973D02*
X008631Y035973D01*
X008631Y035815D02*
X008707Y035815D01*
X009099Y035815D02*
X009706Y035815D01*
X009706Y035973D02*
X009214Y035973D01*
X009268Y036132D02*
X009706Y036132D01*
X009706Y036290D02*
X009279Y036290D01*
X009245Y036449D02*
X009706Y036449D01*
X009706Y036607D02*
X009162Y036607D01*
X008995Y036766D02*
X009706Y036766D01*
X009706Y036924D02*
X007193Y036924D01*
X007193Y036766D02*
X007360Y036766D01*
X007351Y037083D02*
X009762Y037083D01*
X009896Y037231D02*
X009896Y037231D01*
X009906Y037241D02*
X007509Y037241D01*
X007668Y037400D02*
X010065Y037400D01*
X010223Y037558D02*
X007826Y037558D01*
X007216Y038192D02*
X005417Y038192D01*
X005556Y038351D02*
X007374Y038351D01*
X006576Y039936D02*
X014369Y039936D01*
X014211Y040094D02*
X006734Y040094D01*
X006839Y040253D02*
X014052Y040253D01*
X013894Y040411D02*
X008006Y040411D01*
X008180Y040570D02*
X013735Y040570D01*
X013577Y040728D02*
X008339Y040728D01*
X008497Y040887D02*
X013418Y040887D01*
X013260Y041045D02*
X008656Y041045D01*
X008814Y041204D02*
X013101Y041204D01*
X012943Y041362D02*
X008973Y041362D01*
X009131Y041521D02*
X012784Y041521D01*
X012626Y041679D02*
X009290Y041679D01*
X009448Y041838D02*
X012492Y041838D01*
X012442Y041996D02*
X009607Y041996D01*
X009765Y042155D02*
X012442Y042155D01*
X012442Y042313D02*
X009924Y042313D01*
X010082Y042472D02*
X012442Y042472D01*
X012442Y042630D02*
X010241Y042630D01*
X010399Y042789D02*
X012442Y042789D01*
X013322Y042789D02*
X017870Y042789D01*
X017870Y042862D02*
X017870Y042567D01*
X017983Y042295D01*
X018024Y042254D01*
X017989Y042281D01*
X017912Y042326D01*
X017829Y042360D01*
X017743Y042383D01*
X017688Y042390D01*
X017688Y041792D01*
X018286Y041792D01*
X018279Y041848D01*
X018256Y041934D01*
X018221Y042016D01*
X018177Y042093D01*
X018150Y042129D01*
X018191Y042087D01*
X018463Y041975D01*
X018757Y041975D01*
X019029Y042087D01*
X019071Y042129D01*
X019044Y042093D01*
X018999Y042016D01*
X018965Y041934D01*
X018942Y041848D01*
X018935Y041792D01*
X019533Y041792D01*
X019533Y042390D01*
X019477Y042383D01*
X019391Y042360D01*
X019309Y042326D01*
X019232Y042281D01*
X019196Y042254D01*
X019238Y042295D01*
X019350Y042567D01*
X019350Y042862D01*
X019238Y043134D01*
X019196Y043175D01*
X019232Y043148D01*
X019309Y043103D01*
X019391Y043069D01*
X019477Y043046D01*
X019533Y043039D01*
X019533Y043637D01*
X018935Y043637D01*
X018942Y043582D01*
X018965Y043496D01*
X018999Y043413D01*
X019044Y043336D01*
X019071Y043300D01*
X019029Y043342D01*
X018757Y043455D01*
X018463Y043455D01*
X018191Y043342D01*
X018150Y043300D01*
X018177Y043336D01*
X018221Y043413D01*
X018256Y043496D01*
X018279Y043582D01*
X018286Y043637D01*
X017688Y043637D01*
X017688Y043039D01*
X017743Y043046D01*
X017829Y043069D01*
X017912Y043103D01*
X017989Y043148D01*
X018024Y043175D01*
X017983Y043134D01*
X017870Y042862D01*
X017906Y042947D02*
X013497Y042947D01*
X013552Y043106D02*
X017305Y043106D01*
X017309Y043103D02*
X017391Y043069D01*
X017477Y043046D01*
X017533Y043039D01*
X017533Y043637D01*
X016935Y043637D01*
X016942Y043582D01*
X016965Y043496D01*
X016999Y043413D01*
X017044Y043336D01*
X017098Y043265D01*
X017161Y043202D01*
X017232Y043148D01*
X017309Y043103D01*
X017533Y043106D02*
X017688Y043106D01*
X017688Y043264D02*
X017533Y043264D01*
X017533Y043423D02*
X017688Y043423D01*
X017688Y043581D02*
X017533Y043581D01*
X017533Y043740D02*
X013552Y043740D01*
X013552Y043898D02*
X016955Y043898D01*
X017023Y044057D02*
X013532Y044057D01*
X013552Y043581D02*
X016942Y043581D01*
X016995Y043423D02*
X013552Y043423D01*
X013552Y043264D02*
X017099Y043264D01*
X017688Y043740D02*
X019533Y043740D01*
X019688Y043740D02*
X029330Y043740D01*
X029362Y043816D02*
X029280Y043619D01*
X029280Y043405D01*
X029362Y043208D01*
X029513Y043057D01*
X029710Y042975D01*
X029924Y042975D01*
X030121Y043057D01*
X030272Y043208D01*
X030354Y043405D01*
X030354Y043619D01*
X030272Y043816D01*
X030121Y043967D01*
X029924Y044049D01*
X029710Y044049D01*
X029513Y043967D01*
X029362Y043816D01*
X029444Y043898D02*
X020265Y043898D01*
X020198Y044057D02*
X034917Y044057D01*
X034758Y043898D02*
X034170Y043898D01*
X034101Y043967D02*
X034252Y043816D01*
X034334Y043619D01*
X034334Y043405D01*
X034252Y043208D01*
X034101Y043057D01*
X033904Y042975D01*
X033690Y042975D01*
X033493Y043057D01*
X033342Y043208D01*
X033260Y043405D01*
X033260Y043619D01*
X033342Y043816D01*
X033493Y043967D01*
X033690Y044049D01*
X033904Y044049D01*
X034101Y043967D01*
X034284Y043740D02*
X034662Y043740D01*
X034596Y043581D02*
X034334Y043581D01*
X034334Y043423D02*
X034574Y043423D01*
X034574Y043264D02*
X034276Y043264D01*
X034150Y043106D02*
X034605Y043106D01*
X034671Y042947D02*
X033334Y042947D01*
X033334Y043020D02*
X033334Y042807D01*
X033252Y042609D01*
X033101Y042458D01*
X032904Y042377D01*
X032690Y042377D01*
X032493Y042458D01*
X032342Y042609D01*
X032260Y042807D01*
X032260Y043020D01*
X032342Y043217D01*
X032493Y043369D01*
X032690Y043450D01*
X032904Y043450D01*
X033101Y043369D01*
X033252Y043217D01*
X033334Y043020D01*
X033299Y043106D02*
X033444Y043106D01*
X033319Y043264D02*
X033206Y043264D01*
X033260Y043423D02*
X032971Y043423D01*
X033260Y043581D02*
X030354Y043581D01*
X030354Y043423D02*
X032624Y043423D01*
X032389Y043264D02*
X030295Y043264D01*
X030170Y043106D02*
X032296Y043106D01*
X032260Y042947D02*
X029354Y042947D01*
X029354Y043020D02*
X029354Y042807D01*
X029272Y042609D01*
X029152Y042489D01*
X029237Y042489D01*
X029571Y042351D01*
X029826Y042096D01*
X029964Y041763D01*
X029964Y041402D01*
X029826Y041069D01*
X029571Y040814D01*
X029237Y040676D01*
X028877Y040676D01*
X028852Y040686D01*
X028919Y040524D01*
X028919Y040240D01*
X028811Y039978D01*
X028610Y039778D01*
X028348Y039669D01*
X028065Y039669D01*
X027803Y039778D01*
X027603Y039978D01*
X027494Y040240D01*
X027494Y040524D01*
X027603Y040785D01*
X027803Y040986D01*
X028065Y041094D01*
X028278Y041094D01*
X028150Y041402D01*
X028150Y041763D01*
X028288Y042096D01*
X028543Y042351D01*
X028657Y042398D01*
X028513Y042458D01*
X028362Y042609D01*
X028280Y042807D01*
X028280Y043020D01*
X028362Y043217D01*
X028513Y043369D01*
X028710Y043450D01*
X028924Y043450D01*
X029121Y043369D01*
X029272Y043217D01*
X029354Y043020D01*
X029318Y043106D02*
X029464Y043106D01*
X029338Y043264D02*
X029225Y043264D01*
X029280Y043423D02*
X028990Y043423D01*
X029280Y043581D02*
X020278Y043581D01*
X020279Y043582D02*
X020286Y043637D01*
X019688Y043637D01*
X019688Y043039D01*
X019743Y043046D01*
X019829Y043069D01*
X019912Y043103D01*
X019989Y043148D01*
X020060Y043202D01*
X020123Y043265D01*
X020177Y043336D01*
X020221Y043413D01*
X020256Y043496D01*
X020279Y043582D01*
X020225Y043423D02*
X028644Y043423D01*
X028408Y043264D02*
X020121Y043264D01*
X019916Y043106D02*
X028315Y043106D01*
X028280Y042947D02*
X019315Y042947D01*
X019305Y043106D02*
X019249Y043106D01*
X019533Y043106D02*
X019688Y043106D01*
X019688Y043264D02*
X019533Y043264D01*
X019533Y043423D02*
X019688Y043423D01*
X019688Y043581D02*
X019533Y043581D01*
X018995Y043423D02*
X018834Y043423D01*
X018942Y043581D02*
X018278Y043581D01*
X018225Y043423D02*
X018386Y043423D01*
X018265Y043898D02*
X018955Y043898D01*
X019023Y044057D02*
X018198Y044057D01*
X017971Y043106D02*
X017916Y043106D01*
X017870Y042630D02*
X013322Y042630D01*
X013322Y042472D02*
X017910Y042472D01*
X017933Y042313D02*
X017976Y042313D01*
X017688Y042313D02*
X017533Y042313D01*
X017533Y042390D02*
X017477Y042383D01*
X017391Y042360D01*
X017309Y042326D01*
X017232Y042281D01*
X017161Y042227D01*
X017098Y042164D01*
X017044Y042093D01*
X016999Y042016D01*
X016965Y041934D01*
X016942Y041848D01*
X016935Y041792D01*
X017533Y041792D01*
X017533Y042390D01*
X017533Y042155D02*
X017688Y042155D01*
X017688Y041996D02*
X017533Y041996D01*
X017533Y041838D02*
X017688Y041838D01*
X017688Y041792D02*
X017533Y041792D01*
X017533Y041637D01*
X017688Y041637D01*
X017688Y041792D01*
X017688Y041679D02*
X019533Y041679D01*
X019533Y041637D02*
X018935Y041637D01*
X018942Y041582D01*
X018965Y041496D01*
X018999Y041413D01*
X019044Y041336D01*
X019098Y041265D01*
X019161Y041202D01*
X019232Y041148D01*
X019309Y041103D01*
X019391Y041069D01*
X019477Y041046D01*
X019533Y041039D01*
X019533Y041637D01*
X019688Y041637D01*
X019688Y041792D01*
X020286Y041792D01*
X020279Y041848D01*
X020256Y041934D01*
X020221Y042016D01*
X020177Y042093D01*
X020123Y042164D01*
X020060Y042227D01*
X019989Y042281D01*
X019912Y042326D01*
X019829Y042360D01*
X019743Y042383D01*
X019688Y042390D01*
X019688Y041792D01*
X019533Y041792D01*
X019533Y041637D01*
X019533Y041521D02*
X019688Y041521D01*
X019688Y041637D02*
X019688Y041039D01*
X019743Y041046D01*
X019829Y041069D01*
X019912Y041103D01*
X019989Y041148D01*
X020060Y041202D01*
X020123Y041265D01*
X020177Y041336D01*
X020221Y041413D01*
X020256Y041496D01*
X020279Y041582D01*
X020286Y041637D01*
X019688Y041637D01*
X019688Y041679D02*
X022434Y041679D01*
X022450Y041673D02*
X022664Y041673D01*
X022863Y041755D01*
X023015Y041907D01*
X023097Y042105D01*
X023097Y042320D01*
X023015Y042518D01*
X022863Y042670D01*
X022664Y042753D01*
X022450Y042753D01*
X022251Y042670D01*
X022099Y042518D01*
X022017Y042320D01*
X022017Y042105D01*
X022099Y041907D01*
X022251Y041755D01*
X022450Y041673D01*
X022680Y041679D02*
X023506Y041679D01*
X023385Y041629D02*
X023703Y041761D01*
X024049Y041761D01*
X024367Y041629D01*
X024611Y041385D01*
X024743Y041066D01*
X024743Y040721D01*
X024611Y040402D01*
X024367Y040158D01*
X024049Y040026D01*
X023703Y040026D01*
X023385Y040158D01*
X023141Y040402D01*
X023009Y040721D01*
X023009Y041066D01*
X023141Y041385D01*
X023385Y041629D01*
X023276Y041521D02*
X020262Y041521D01*
X020192Y041362D02*
X021726Y041362D01*
X021552Y041204D02*
X020061Y041204D01*
X019735Y041045D02*
X021484Y041045D01*
X021377Y040887D02*
X014663Y040887D01*
X014504Y041045D02*
X017485Y041045D01*
X017477Y041046D02*
X017533Y041039D01*
X017533Y041637D01*
X016935Y041637D01*
X016942Y041582D01*
X016965Y041496D01*
X016999Y041413D01*
X017044Y041336D01*
X017098Y041265D01*
X017161Y041202D01*
X017232Y041148D01*
X017309Y041103D01*
X017391Y041069D01*
X017477Y041046D01*
X017533Y041045D02*
X017688Y041045D01*
X017688Y041039D02*
X017743Y041046D01*
X017829Y041069D01*
X017912Y041103D01*
X017989Y041148D01*
X018060Y041202D01*
X018123Y041265D01*
X018177Y041336D01*
X018221Y041413D01*
X018256Y041496D01*
X018279Y041582D01*
X018286Y041637D01*
X017688Y041637D01*
X017688Y041039D01*
X017735Y041045D02*
X019485Y041045D01*
X019533Y041045D02*
X019688Y041045D01*
X019688Y041204D02*
X019533Y041204D01*
X019533Y041362D02*
X019688Y041362D01*
X019688Y041838D02*
X019533Y041838D01*
X019533Y041996D02*
X019688Y041996D01*
X019688Y042155D02*
X019533Y042155D01*
X019533Y042313D02*
X019688Y042313D01*
X019933Y042313D02*
X022017Y042313D01*
X022017Y042155D02*
X020130Y042155D01*
X020230Y041996D02*
X022062Y041996D01*
X022168Y041838D02*
X020280Y041838D01*
X021218Y040728D02*
X014821Y040728D01*
X014980Y040570D02*
X021060Y040570D01*
X021670Y039936D02*
X022154Y039936D01*
X022056Y039777D02*
X021512Y039777D01*
X021261Y039619D02*
X022017Y039619D01*
X022020Y039460D02*
X017208Y039460D01*
X017050Y039302D02*
X018272Y039302D01*
X018344Y039373D02*
X018192Y039221D01*
X018110Y039023D01*
X018110Y038808D01*
X018192Y038609D01*
X018344Y038458D01*
X018542Y038375D01*
X018757Y038375D01*
X018955Y038458D01*
X019107Y038609D01*
X019190Y038808D01*
X019190Y039023D01*
X019107Y039221D01*
X018955Y039373D01*
X018757Y039455D01*
X018542Y039455D01*
X018344Y039373D01*
X018159Y039143D02*
X016891Y039143D01*
X016733Y038985D02*
X018110Y038985D01*
X018110Y038826D02*
X016574Y038826D01*
X016494Y038668D02*
X018168Y038668D01*
X018292Y038509D02*
X016369Y038509D01*
X016700Y038192D02*
X010436Y038192D01*
X010438Y038034D02*
X015134Y038034D01*
X015155Y038054D02*
X015003Y037902D01*
X014921Y037704D01*
X014921Y037489D01*
X015003Y037291D01*
X015155Y037139D01*
X015353Y037056D01*
X015568Y037056D01*
X015767Y037139D01*
X015918Y037291D01*
X016001Y037489D01*
X016001Y037704D01*
X015918Y037902D01*
X015767Y038054D01*
X015568Y038136D01*
X015353Y038136D01*
X015155Y038054D01*
X014992Y037875D02*
X010436Y037875D01*
X010382Y037717D02*
X010298Y037717D01*
X010265Y037600D02*
X010265Y037600D01*
X010309Y038351D02*
X016885Y038351D01*
X016839Y038332D02*
X016595Y038088D01*
X016463Y037769D01*
X016463Y037424D01*
X016595Y037105D01*
X016839Y036861D01*
X017158Y036729D01*
X017503Y036729D01*
X017822Y036861D01*
X018066Y037105D01*
X018198Y037424D01*
X018198Y037769D01*
X018066Y038088D01*
X017822Y038332D01*
X017503Y038464D01*
X017158Y038464D01*
X016839Y038332D01*
X016573Y038034D02*
X015787Y038034D01*
X015930Y037875D02*
X016507Y037875D01*
X016463Y037717D02*
X015995Y037717D01*
X016001Y037558D02*
X016463Y037558D01*
X016473Y037400D02*
X015964Y037400D01*
X015869Y037241D02*
X016539Y037241D01*
X016618Y037083D02*
X015631Y037083D01*
X015290Y037083D02*
X014382Y037083D01*
X014224Y037241D02*
X015052Y037241D01*
X014958Y037400D02*
X014065Y037400D01*
X013907Y037558D02*
X014921Y037558D01*
X014926Y037717D02*
X013748Y037717D01*
X013552Y036668D02*
X015211Y035009D01*
X015373Y034942D01*
X019977Y034942D01*
X020139Y035009D01*
X020263Y035133D01*
X020607Y035477D01*
X020674Y035639D01*
X020674Y038251D01*
X020810Y038387D01*
X028393Y038387D01*
X028548Y038451D01*
X028526Y038398D01*
X028526Y037631D01*
X028575Y037514D01*
X029412Y036677D01*
X029412Y036505D01*
X029110Y036808D01*
X028662Y036808D01*
X028386Y036531D01*
X028110Y036808D01*
X027662Y036808D01*
X027346Y036491D01*
X027346Y036487D01*
X027085Y036748D01*
X026906Y036748D01*
X026906Y036288D01*
X026866Y036288D01*
X026866Y036748D01*
X026687Y036748D01*
X026426Y036487D01*
X026426Y036491D01*
X026110Y036808D01*
X025662Y036808D01*
X025386Y036531D01*
X025110Y036808D01*
X024662Y036808D01*
X024386Y036531D01*
X024110Y036808D01*
X023662Y036808D01*
X023346Y036491D01*
X023346Y036044D01*
X023393Y035997D01*
X023142Y035997D01*
X023024Y036115D01*
X022661Y036115D01*
X022404Y035859D01*
X022404Y035496D01*
X022523Y035378D01*
X022523Y033103D01*
X022513Y033094D01*
X021804Y033094D01*
X021804Y033447D01*
X021548Y033704D01*
X021185Y033704D01*
X020928Y033447D01*
X020928Y033094D01*
X019631Y033094D01*
X019631Y033412D01*
X019564Y033574D01*
X018442Y034696D01*
X018318Y034820D01*
X018156Y034887D01*
X014865Y034887D01*
X013552Y036200D01*
X013552Y036668D01*
X013552Y036607D02*
X013613Y036607D01*
X013552Y036449D02*
X013772Y036449D01*
X013930Y036290D02*
X013552Y036290D01*
X013621Y036132D02*
X014089Y036132D01*
X014247Y035973D02*
X013779Y035973D01*
X013938Y035815D02*
X014406Y035815D01*
X014564Y035656D02*
X014096Y035656D01*
X014255Y035498D02*
X014723Y035498D01*
X014881Y035339D02*
X014413Y035339D01*
X014572Y035181D02*
X015040Y035181D01*
X015198Y035022D02*
X014730Y035022D01*
X015492Y035973D02*
X015553Y035973D01*
X015488Y036132D02*
X015333Y036132D01*
X015472Y036290D02*
X015175Y036290D01*
X015016Y036449D02*
X015498Y036449D01*
X015578Y036607D02*
X014858Y036607D01*
X014699Y036766D02*
X015779Y036766D01*
X016245Y036766D02*
X017070Y036766D01*
X016776Y036924D02*
X014541Y036924D01*
X015654Y038509D02*
X005646Y038509D01*
X005706Y038668D02*
X015530Y038668D01*
X015472Y038826D02*
X005736Y038826D01*
X005724Y039143D02*
X015162Y039143D01*
X015320Y038985D02*
X004793Y038985D01*
X004793Y039143D02*
X004633Y039143D01*
X004633Y038985D02*
X002352Y038985D01*
X002352Y039143D02*
X003701Y039143D01*
X003746Y039302D02*
X002352Y039302D01*
X002352Y039460D02*
X003820Y039460D01*
X003932Y039619D02*
X002352Y039619D01*
X002352Y039777D02*
X003368Y039777D01*
X003359Y039778D02*
X003246Y039804D01*
X003137Y039842D01*
X003032Y039892D01*
X002935Y039954D01*
X002844Y040026D01*
X002762Y040108D01*
X002690Y040198D01*
X002629Y040296D01*
X002578Y040400D01*
X002540Y040510D01*
X002514Y040622D01*
X002504Y040715D01*
X003451Y040715D01*
X003451Y040875D01*
X002504Y040875D01*
X002514Y040968D01*
X002540Y041081D01*
X002578Y041190D01*
X002629Y041294D01*
X002690Y041392D01*
X002762Y041483D01*
X002844Y041564D01*
X002935Y041637D01*
X003032Y041698D01*
X003137Y041748D01*
X003246Y041787D01*
X003359Y041812D01*
X003451Y041823D01*
X003451Y040875D01*
X003611Y040875D01*
X003611Y041823D01*
X003704Y041812D01*
X003817Y041787D01*
X003926Y041748D01*
X004031Y041698D01*
X004128Y041637D01*
X004219Y041564D01*
X004301Y041483D01*
X004373Y041392D01*
X004434Y041294D01*
X004485Y041190D01*
X004523Y041081D01*
X004549Y040968D01*
X004559Y040875D01*
X003612Y040875D01*
X003612Y040715D01*
X004559Y040715D01*
X004549Y040622D01*
X004523Y040510D01*
X004485Y040400D01*
X004434Y040296D01*
X004373Y040198D01*
X004301Y040108D01*
X004219Y040026D01*
X004128Y039954D01*
X004031Y039892D01*
X003926Y039842D01*
X003817Y039804D01*
X003704Y039778D01*
X003611Y039768D01*
X003611Y040715D01*
X003451Y040715D01*
X003451Y039768D01*
X003359Y039778D01*
X003451Y039777D02*
X003611Y039777D01*
X003695Y039777D02*
X004104Y039777D01*
X004099Y039936D02*
X004425Y039936D01*
X004633Y039936D02*
X004793Y039936D01*
X004793Y039777D02*
X004633Y039777D01*
X004633Y039619D02*
X004793Y039619D01*
X004793Y039460D02*
X004633Y039460D01*
X004633Y039302D02*
X004793Y039302D01*
X005000Y039936D02*
X005212Y039936D01*
X005321Y039777D02*
X005482Y039777D01*
X005493Y039619D02*
X014686Y039619D01*
X014528Y039777D02*
X006305Y039777D01*
X005679Y039302D02*
X015003Y039302D01*
X014845Y039460D02*
X005605Y039460D01*
X005053Y040094D02*
X004287Y040094D01*
X004407Y040253D02*
X004948Y040253D01*
X004868Y040411D02*
X004488Y040411D01*
X004536Y040570D02*
X004826Y040570D01*
X004804Y040728D02*
X003612Y040728D01*
X003611Y040570D02*
X003451Y040570D01*
X003451Y040728D02*
X002352Y040728D01*
X002352Y040570D02*
X002527Y040570D01*
X002575Y040411D02*
X002352Y040411D01*
X002352Y040253D02*
X002656Y040253D01*
X002776Y040094D02*
X002352Y040094D01*
X002352Y039936D02*
X002964Y039936D01*
X003451Y039936D02*
X003611Y039936D01*
X003611Y040094D02*
X003451Y040094D01*
X003451Y040253D02*
X003611Y040253D01*
X003611Y040411D02*
X003451Y040411D01*
X003451Y040887D02*
X003611Y040887D01*
X003611Y041045D02*
X003451Y041045D01*
X003451Y041204D02*
X003611Y041204D01*
X003611Y041362D02*
X003451Y041362D01*
X003451Y041521D02*
X003611Y041521D01*
X003611Y041679D02*
X003451Y041679D01*
X003002Y041679D02*
X002352Y041679D01*
X002352Y041521D02*
X002800Y041521D01*
X002671Y041362D02*
X002352Y041362D01*
X002352Y041204D02*
X002585Y041204D01*
X002532Y041045D02*
X002352Y041045D01*
X002352Y040887D02*
X002505Y040887D01*
X002352Y041838D02*
X005573Y041838D01*
X005245Y041679D02*
X004061Y041679D01*
X004263Y041521D02*
X005078Y041521D01*
X004962Y041362D02*
X004392Y041362D01*
X004478Y041204D02*
X004875Y041204D01*
X004832Y041045D02*
X004531Y041045D01*
X004558Y040887D02*
X004804Y040887D01*
X006215Y041838D02*
X008204Y041838D01*
X008362Y041996D02*
X002352Y041996D01*
X002352Y042155D02*
X008521Y042155D01*
X008679Y042313D02*
X002352Y042313D01*
X002352Y042472D02*
X008838Y042472D01*
X008996Y042630D02*
X003463Y042630D01*
X003622Y042789D02*
X009155Y042789D01*
X009313Y042947D02*
X008845Y042947D01*
X008707Y042947D02*
X008631Y042947D01*
X008494Y042947D02*
X007861Y042947D01*
X007723Y042947D02*
X007647Y042947D01*
X007647Y042921D02*
X007647Y043493D01*
X007075Y043493D01*
X007075Y043483D01*
X007090Y043389D01*
X007120Y043297D01*
X007163Y043212D01*
X007220Y043134D01*
X007288Y043066D01*
X007365Y043010D01*
X007451Y042966D01*
X007542Y042937D01*
X007637Y042921D01*
X007647Y042921D01*
X007509Y042947D02*
X003731Y042947D01*
X003796Y043106D02*
X007248Y043106D01*
X007137Y043264D02*
X003828Y043264D01*
X003828Y043423D02*
X007085Y043423D01*
X007075Y043581D02*
X003806Y043581D01*
X003740Y043740D02*
X007111Y043740D01*
X007197Y043898D02*
X003643Y043898D01*
X003485Y044057D02*
X007372Y044057D01*
X007723Y043570D02*
X008631Y043570D01*
X008631Y043493D01*
X008295Y043493D01*
X007723Y043493D01*
X007723Y043570D01*
X007723Y043423D02*
X007647Y043423D01*
X007647Y043264D02*
X007723Y043264D01*
X007723Y043106D02*
X007647Y043106D01*
X008122Y043106D02*
X008232Y043106D01*
X008631Y043106D02*
X008707Y043106D01*
X008707Y043264D02*
X008631Y043264D01*
X008631Y043423D02*
X008707Y043423D01*
X009106Y043106D02*
X009472Y043106D01*
X009630Y043264D02*
X009218Y043264D01*
X009270Y043423D02*
X009789Y043423D01*
X009947Y043581D02*
X009279Y043581D01*
X009243Y043740D02*
X010106Y043740D01*
X010264Y043898D02*
X009157Y043898D01*
X008982Y044057D02*
X011247Y044057D01*
X011283Y042947D02*
X010558Y042947D01*
X008045Y041679D02*
X006543Y041679D01*
X006710Y041521D02*
X007887Y041521D01*
X007728Y041362D02*
X006825Y041362D01*
X003689Y038826D02*
X002352Y038826D01*
X002352Y038668D02*
X003719Y038668D01*
X003779Y038509D02*
X002352Y038509D01*
X002352Y038351D02*
X003870Y038351D01*
X004009Y038192D02*
X002352Y038192D01*
X002352Y042630D02*
X002458Y042630D01*
X008114Y035815D02*
X008240Y035815D01*
X013246Y032511D02*
X015454Y030303D01*
X015586Y030248D01*
X022274Y030248D01*
X022407Y030303D01*
X023930Y031826D01*
X023930Y031657D01*
X024187Y031400D01*
X024396Y031400D01*
X027375Y028421D01*
X027375Y026890D01*
X026780Y026294D01*
X026736Y026188D01*
X026736Y022828D01*
X026450Y022828D01*
X026194Y022571D01*
X026194Y022362D01*
X024745Y020913D01*
X024664Y020832D01*
X024619Y020725D01*
X024619Y019865D01*
X024503Y019748D01*
X024481Y019757D01*
X018841Y019757D01*
X016193Y022406D01*
X016103Y022496D01*
X015985Y022544D01*
X013246Y022544D01*
X013246Y025020D01*
X013953Y025020D01*
X014041Y025056D01*
X014109Y025124D01*
X014128Y025170D01*
X018182Y025170D01*
X021199Y022153D01*
X021026Y021981D01*
X021026Y021618D01*
X021283Y021361D01*
X021450Y021361D01*
X021587Y021224D01*
X021677Y021134D01*
X021795Y021086D01*
X023349Y021086D01*
X023467Y021134D01*
X023664Y021331D01*
X023754Y021421D01*
X023802Y021539D01*
X023802Y025051D01*
X023855Y025051D01*
X023943Y025088D01*
X024011Y025155D01*
X024047Y025244D01*
X024047Y025812D01*
X024011Y025900D01*
X023943Y025967D01*
X023855Y026004D01*
X022972Y026004D01*
X022884Y025967D01*
X022816Y025900D01*
X022780Y025812D01*
X022780Y025244D01*
X022816Y025155D01*
X022884Y025088D01*
X022972Y025051D01*
X023162Y025051D01*
X023162Y022237D01*
X023054Y022237D01*
X022622Y022669D01*
X022532Y022759D01*
X022414Y022808D01*
X022237Y022808D01*
X021469Y023576D01*
X021548Y023576D01*
X021804Y023832D01*
X021804Y024195D01*
X021548Y024452D01*
X021381Y024452D01*
X018077Y027756D01*
X017959Y027804D01*
X014131Y027804D01*
X014109Y027856D01*
X014041Y027924D01*
X013953Y027960D01*
X013246Y027960D01*
X013246Y032511D01*
X013246Y032486D02*
X013270Y032486D01*
X013246Y032328D02*
X013429Y032328D01*
X013587Y032169D02*
X013246Y032169D01*
X013246Y032011D02*
X013746Y032011D01*
X013904Y031852D02*
X013246Y031852D01*
X013246Y031694D02*
X014063Y031694D01*
X014221Y031535D02*
X013246Y031535D01*
X013246Y031377D02*
X014380Y031377D01*
X014538Y031218D02*
X013246Y031218D01*
X013246Y031060D02*
X014697Y031060D01*
X014855Y030901D02*
X013246Y030901D01*
X013246Y030743D02*
X015014Y030743D01*
X015172Y030584D02*
X013246Y030584D01*
X013246Y030426D02*
X015331Y030426D01*
X015540Y030267D02*
X013246Y030267D01*
X013246Y030109D02*
X025688Y030109D01*
X025529Y030267D02*
X022320Y030267D01*
X022529Y030426D02*
X025371Y030426D01*
X025212Y030584D02*
X022688Y030584D01*
X022846Y030743D02*
X025054Y030743D01*
X024895Y030901D02*
X023005Y030901D01*
X023163Y031060D02*
X024737Y031060D01*
X024578Y031218D02*
X023322Y031218D01*
X023480Y031377D02*
X024420Y031377D01*
X024052Y031535D02*
X023639Y031535D01*
X023797Y031694D02*
X023930Y031694D01*
X025397Y031852D02*
X029259Y031852D01*
X029417Y031694D02*
X025514Y031694D01*
X025672Y031535D02*
X029576Y031535D01*
X029821Y031377D02*
X025831Y031377D01*
X025989Y031218D02*
X030249Y031218D01*
X030249Y031060D02*
X026148Y031060D01*
X026306Y030901D02*
X030249Y030901D01*
X030249Y030743D02*
X026465Y030743D01*
X026623Y030584D02*
X030249Y030584D01*
X030249Y030426D02*
X026782Y030426D01*
X026940Y030267D02*
X030249Y030267D01*
X030249Y030109D02*
X027099Y030109D01*
X027257Y029950D02*
X030249Y029950D01*
X030249Y029792D02*
X027416Y029792D01*
X027574Y029633D02*
X030249Y029633D01*
X030249Y029475D02*
X027733Y029475D01*
X027891Y029316D02*
X030249Y029316D01*
X030249Y029158D02*
X028050Y029158D01*
X028207Y028999D02*
X030210Y028999D01*
X030082Y028841D02*
X028251Y028841D01*
X028251Y028682D02*
X030082Y028682D01*
X030082Y028524D02*
X028251Y028524D01*
X028251Y028365D02*
X030224Y028365D01*
X030520Y028689D02*
X030569Y028738D01*
X030569Y035726D01*
X031007Y035656D02*
X031227Y035656D01*
X031312Y035815D02*
X031007Y035815D01*
X030942Y035973D02*
X031377Y035973D01*
X031536Y036132D02*
X030783Y036132D01*
X030355Y036132D02*
X030052Y036132D01*
X030052Y036290D02*
X036050Y036290D01*
X036050Y036132D02*
X031964Y036132D01*
X032123Y035973D02*
X036050Y035973D01*
X036050Y035815D02*
X032188Y035815D01*
X032188Y035656D02*
X036050Y035656D01*
X036050Y035498D02*
X032141Y035498D01*
X031982Y035339D02*
X036050Y035339D01*
X036050Y035181D02*
X031657Y035181D01*
X031498Y035022D02*
X036050Y035022D01*
X036050Y034864D02*
X031430Y034864D01*
X031430Y034705D02*
X036050Y034705D01*
X036050Y034547D02*
X031430Y034547D01*
X031430Y034388D02*
X033385Y034388D01*
X033389Y034393D02*
X033133Y034136D01*
X033133Y033773D01*
X033281Y033625D01*
X033281Y032710D01*
X033133Y032561D01*
X033133Y032198D01*
X033389Y031942D01*
X033752Y031942D01*
X034009Y032198D01*
X034009Y032454D01*
X034177Y032286D01*
X034540Y032286D01*
X034796Y032543D01*
X034796Y032906D01*
X034648Y033054D01*
X034648Y033625D01*
X034796Y033773D01*
X034796Y034136D01*
X034540Y034393D01*
X034177Y034393D01*
X033965Y034181D01*
X033752Y034393D01*
X033389Y034393D01*
X033226Y034230D02*
X031430Y034230D01*
X031430Y034071D02*
X033133Y034071D01*
X033133Y033913D02*
X031430Y033913D01*
X031430Y033754D02*
X033152Y033754D01*
X033073Y033596D02*
X033281Y033596D01*
X033281Y033437D02*
X033222Y033437D01*
X033222Y033279D02*
X033281Y033279D01*
X033281Y033120D02*
X033222Y033120D01*
X033281Y032962D02*
X033099Y032962D01*
X033073Y032803D02*
X033281Y032803D01*
X033216Y032645D02*
X033044Y032645D01*
X033133Y032486D02*
X032906Y032486D01*
X032748Y032328D02*
X033133Y032328D01*
X033162Y032169D02*
X032589Y032169D01*
X032431Y032011D02*
X033321Y032011D01*
X033821Y032011D02*
X036050Y032011D01*
X036050Y032169D02*
X033980Y032169D01*
X034009Y032328D02*
X034135Y032328D01*
X034581Y032328D02*
X036050Y032328D01*
X036050Y032486D02*
X034740Y032486D01*
X034796Y032645D02*
X036050Y032645D01*
X036050Y032803D02*
X034796Y032803D01*
X034741Y032962D02*
X036050Y032962D01*
X036050Y033120D02*
X034648Y033120D01*
X034648Y033279D02*
X036050Y033279D01*
X036050Y033437D02*
X034648Y033437D01*
X034648Y033596D02*
X036050Y033596D01*
X036050Y033754D02*
X034777Y033754D01*
X034796Y033913D02*
X036050Y033913D01*
X036050Y034071D02*
X034796Y034071D01*
X034703Y034230D02*
X036050Y034230D01*
X036050Y034388D02*
X034544Y034388D01*
X034172Y034388D02*
X033757Y034388D01*
X033916Y034230D02*
X034014Y034230D01*
X032494Y033596D02*
X031430Y033596D01*
X031430Y033437D02*
X032345Y033437D01*
X032345Y033279D02*
X031430Y033279D01*
X031430Y033120D02*
X032345Y033120D01*
X032468Y032962D02*
X031430Y032962D01*
X031430Y032803D02*
X032403Y032803D01*
X032244Y032645D02*
X031430Y032645D01*
X031430Y032486D02*
X032086Y032486D01*
X031927Y032328D02*
X031430Y032328D01*
X031430Y032169D02*
X031559Y032169D01*
X032237Y031694D02*
X036050Y031694D01*
X036050Y031852D02*
X032272Y031852D01*
X032165Y031535D02*
X036050Y031535D01*
X036050Y031377D02*
X032006Y031377D01*
X031592Y031377D02*
X031430Y031377D01*
X031430Y031535D02*
X031434Y031535D01*
X031430Y031218D02*
X036050Y031218D01*
X036050Y031060D02*
X031430Y031060D01*
X031430Y030901D02*
X036050Y030901D01*
X036050Y030743D02*
X031430Y030743D01*
X031430Y030584D02*
X036050Y030584D01*
X036050Y030426D02*
X031430Y030426D01*
X031430Y030267D02*
X036050Y030267D01*
X036050Y030109D02*
X031430Y030109D01*
X031430Y029950D02*
X036050Y029950D01*
X036050Y029792D02*
X031430Y029792D01*
X031430Y029633D02*
X036050Y029633D01*
X036050Y029475D02*
X031430Y029475D01*
X031430Y029316D02*
X036050Y029316D01*
X036050Y029158D02*
X031430Y029158D01*
X031430Y028999D02*
X036050Y028999D01*
X036050Y028841D02*
X031499Y028841D01*
X031499Y028682D02*
X036050Y028682D01*
X036050Y028524D02*
X031499Y028524D01*
X031357Y028365D02*
X036050Y028365D01*
X036050Y028207D02*
X028251Y028207D01*
X028251Y028048D02*
X036050Y028048D01*
X036050Y027890D02*
X028251Y027890D01*
X028251Y027731D02*
X036050Y027731D01*
X036050Y027573D02*
X028251Y027573D01*
X028251Y027414D02*
X036050Y027414D01*
X036050Y027256D02*
X028251Y027256D01*
X028251Y027097D02*
X036050Y027097D01*
X036050Y026939D02*
X030183Y026939D01*
X029774Y026939D02*
X028251Y026939D01*
X028251Y026780D02*
X029615Y026780D01*
X029540Y026622D02*
X028234Y026622D01*
X028113Y026463D02*
X029540Y026463D01*
X029578Y026305D02*
X027955Y026305D01*
X027796Y026146D02*
X029736Y026146D01*
X030220Y026146D02*
X031706Y026146D01*
X031706Y025988D02*
X027638Y025988D01*
X027562Y025829D02*
X031706Y025829D01*
X031706Y025671D02*
X027562Y025671D01*
X027562Y025512D02*
X027690Y025512D01*
X028199Y025512D02*
X029690Y025512D01*
X029544Y025354D02*
X029530Y025354D01*
X030199Y025512D02*
X031706Y025512D01*
X031706Y025354D02*
X030346Y025354D01*
X030405Y025195D02*
X031706Y025195D01*
X031706Y025037D02*
X030405Y025037D01*
X030405Y024878D02*
X031706Y024878D01*
X031706Y024720D02*
X030405Y024720D01*
X030394Y024561D02*
X031706Y024561D01*
X031706Y024403D02*
X030318Y024403D01*
X030096Y024244D02*
X031706Y024244D01*
X031706Y024086D02*
X027562Y024086D01*
X027562Y024244D02*
X027794Y024244D01*
X027571Y024403D02*
X027562Y024403D01*
X027562Y023927D02*
X031706Y023927D01*
X031706Y023769D02*
X027562Y023769D01*
X027562Y023610D02*
X031706Y023610D01*
X031706Y023452D02*
X027562Y023452D01*
X027562Y023293D02*
X029918Y023293D01*
X029759Y023135D02*
X027562Y023135D01*
X027562Y022976D02*
X029737Y022976D01*
X029737Y022818D02*
X027562Y022818D01*
X027562Y022659D02*
X027610Y022659D01*
X028212Y022659D02*
X029579Y022659D01*
X029540Y022501D02*
X028457Y022501D01*
X028606Y022342D02*
X029540Y022342D01*
X029399Y022184D02*
X028644Y022184D01*
X028644Y022025D02*
X029343Y022025D01*
X029343Y021867D02*
X028644Y021867D01*
X028644Y021708D02*
X029218Y021708D01*
X029147Y021550D02*
X028644Y021550D01*
X028644Y021391D02*
X029147Y021391D01*
X029187Y021233D02*
X028644Y021233D01*
X028644Y021074D02*
X029346Y021074D01*
X029471Y020269D02*
X029108Y020269D01*
X028851Y020012D01*
X028851Y019941D01*
X027808Y020984D01*
X027808Y021857D01*
X027789Y021902D01*
X028064Y021902D01*
X028064Y020856D01*
X028108Y020749D01*
X028256Y020601D01*
X028338Y020520D01*
X028444Y020476D01*
X031666Y020476D01*
X031815Y020328D01*
X032178Y020328D01*
X032395Y020545D01*
X032395Y020197D01*
X032125Y019927D01*
X032079Y019974D01*
X031716Y019974D01*
X031460Y019717D01*
X031460Y019354D01*
X031608Y019206D01*
X031608Y018346D01*
X031652Y018239D01*
X032198Y017693D01*
X032198Y016360D01*
X032079Y016479D01*
X031794Y016479D01*
X031794Y017280D01*
X031750Y017387D01*
X031471Y017665D01*
X031365Y017709D01*
X031007Y017709D01*
X031007Y017994D01*
X030889Y018113D01*
X030889Y018123D01*
X030840Y018240D01*
X030771Y018310D01*
X030800Y018310D01*
X031056Y018567D01*
X031056Y018930D01*
X030942Y019043D01*
X031056Y019157D01*
X031056Y019520D01*
X030800Y019777D01*
X030712Y019777D01*
X030712Y020012D01*
X030455Y020269D01*
X030092Y020269D01*
X029944Y020121D01*
X029619Y020121D01*
X029471Y020269D01*
X029617Y020123D02*
X029946Y020123D01*
X030601Y020123D02*
X032321Y020123D01*
X032395Y020282D02*
X028510Y020282D01*
X028352Y020440D02*
X031702Y020440D01*
X031707Y019965D02*
X030712Y019965D01*
X030712Y019806D02*
X031549Y019806D01*
X031460Y019648D02*
X030929Y019648D01*
X031056Y019489D02*
X031460Y019489D01*
X031483Y019331D02*
X031056Y019331D01*
X031056Y019172D02*
X031608Y019172D01*
X031608Y019014D02*
X030972Y019014D01*
X031056Y018855D02*
X031608Y018855D01*
X031608Y018697D02*
X031056Y018697D01*
X031028Y018538D02*
X031608Y018538D01*
X031608Y018380D02*
X030869Y018380D01*
X030848Y018221D02*
X031670Y018221D01*
X031828Y018063D02*
X030939Y018063D01*
X031007Y017904D02*
X031987Y017904D01*
X032145Y017746D02*
X031007Y017746D01*
X030569Y017813D02*
X030569Y018059D01*
X029831Y018797D01*
X024614Y018797D01*
X024319Y019093D01*
X018561Y019093D01*
X015805Y021848D01*
X009250Y021848D01*
X008626Y021224D01*
X008086Y021233D02*
X005683Y021233D01*
X005750Y021391D02*
X008111Y021391D01*
X008188Y021550D02*
X005789Y021550D01*
X005789Y021708D02*
X008383Y021708D01*
X008220Y021867D02*
X005744Y021867D01*
X005669Y022025D02*
X008124Y022025D01*
X008086Y022184D02*
X005571Y022184D01*
X005703Y022342D02*
X008090Y022342D01*
X008156Y022501D02*
X005769Y022501D01*
X005789Y022659D02*
X008297Y022659D01*
X008626Y022224D02*
X015921Y022224D01*
X018709Y019437D01*
X024417Y019437D01*
X024762Y019093D01*
X027419Y019093D01*
X027567Y019240D01*
X028669Y020123D02*
X028962Y020123D01*
X028851Y019965D02*
X028827Y019965D01*
X028259Y020599D02*
X028193Y020599D01*
X028105Y020757D02*
X028035Y020757D01*
X028064Y020916D02*
X027876Y020916D01*
X027808Y021074D02*
X028064Y021074D01*
X028064Y021233D02*
X027808Y021233D01*
X027808Y021391D02*
X028064Y021391D01*
X028064Y021550D02*
X027808Y021550D01*
X027808Y021708D02*
X028064Y021708D01*
X028064Y021867D02*
X027804Y021867D01*
X026736Y022976D02*
X023802Y022976D01*
X023802Y022818D02*
X026440Y022818D01*
X026282Y022659D02*
X023802Y022659D01*
X023802Y022501D02*
X026194Y022501D01*
X026174Y022342D02*
X023802Y022342D01*
X023802Y022184D02*
X026016Y022184D01*
X025857Y022025D02*
X023802Y022025D01*
X023802Y021867D02*
X025699Y021867D01*
X025540Y021708D02*
X023802Y021708D01*
X023802Y021550D02*
X025382Y021550D01*
X025223Y021391D02*
X023724Y021391D01*
X023565Y021233D02*
X025065Y021233D01*
X024906Y021074D02*
X017524Y021074D01*
X017683Y020916D02*
X024748Y020916D01*
X024633Y020757D02*
X017841Y020757D01*
X018000Y020599D02*
X024619Y020599D01*
X024619Y020440D02*
X018158Y020440D01*
X018317Y020282D02*
X024619Y020282D01*
X024619Y020123D02*
X018475Y020123D01*
X018634Y019965D02*
X024619Y019965D01*
X024561Y019806D02*
X018792Y019806D01*
X018413Y018748D02*
X024220Y018748D01*
X024467Y018502D01*
X029585Y018502D01*
X030077Y018010D01*
X030077Y017813D01*
X029585Y017813D02*
X029585Y018010D01*
X029388Y018207D01*
X024270Y018207D01*
X024073Y018404D01*
X018266Y018404D01*
X015657Y021012D01*
X010413Y021012D01*
X008626Y019224D01*
X008129Y019014D02*
X006977Y019014D01*
X006984Y018990D02*
X006909Y019267D01*
X006766Y019516D01*
X006563Y019719D01*
X006314Y019862D01*
X006037Y019936D01*
X005750Y019936D01*
X005473Y019862D01*
X005224Y019719D01*
X005021Y019516D01*
X004878Y019267D01*
X004804Y018990D01*
X004804Y018703D01*
X004878Y018426D01*
X005021Y018177D01*
X005224Y017974D01*
X005473Y017831D01*
X005750Y017756D01*
X006037Y017756D01*
X006314Y017831D01*
X006563Y017974D01*
X006766Y018177D01*
X006909Y018426D01*
X006984Y018703D01*
X006984Y018990D01*
X006984Y018855D02*
X008232Y018855D01*
X008355Y018697D02*
X006982Y018697D01*
X006940Y018538D02*
X008176Y018538D01*
X008106Y018380D02*
X006883Y018380D01*
X006791Y018221D02*
X008086Y018221D01*
X008109Y018063D02*
X006651Y018063D01*
X006442Y017904D02*
X008183Y017904D01*
X008371Y017746D02*
X005505Y017746D01*
X005585Y017665D02*
X005382Y017868D01*
X005133Y018012D01*
X004856Y018086D01*
X004569Y018086D01*
X004403Y018041D01*
X004335Y018109D01*
X004404Y018177D01*
X004547Y018426D01*
X004621Y018703D01*
X004621Y018990D01*
X004547Y019267D01*
X004404Y019516D01*
X004201Y019719D01*
X003952Y019862D01*
X003675Y019936D01*
X003388Y019936D01*
X003111Y019862D01*
X002862Y019719D01*
X002659Y019516D01*
X002516Y019267D01*
X002441Y018990D01*
X002441Y018703D01*
X002516Y018426D01*
X002659Y018177D01*
X002862Y017974D01*
X003111Y017831D01*
X003154Y017819D01*
X003667Y017306D01*
X003623Y017140D01*
X003623Y016853D01*
X003667Y016686D01*
X003091Y016110D01*
X003011Y015918D01*
X003011Y014785D01*
X002862Y014699D01*
X002659Y014496D01*
X002516Y014247D01*
X002441Y013970D01*
X002441Y013683D01*
X002516Y013406D01*
X002659Y013157D01*
X002862Y012955D01*
X003111Y012811D01*
X003154Y012799D01*
X003667Y012286D01*
X003623Y012120D01*
X003623Y011833D01*
X003667Y011666D01*
X003091Y011090D01*
X003011Y010899D01*
X003011Y009765D01*
X002862Y009679D01*
X002659Y009476D01*
X002516Y009228D01*
X002441Y008951D01*
X002441Y008664D01*
X002516Y008386D01*
X002659Y008138D01*
X002862Y007935D01*
X003111Y007791D01*
X003154Y007780D01*
X003667Y007267D01*
X003623Y007100D01*
X003623Y006813D01*
X003697Y006536D01*
X003840Y006287D01*
X004043Y006084D01*
X004292Y005941D01*
X004569Y005867D01*
X004856Y005867D01*
X005133Y005941D01*
X005382Y006084D01*
X005585Y006287D01*
X005728Y006536D01*
X005803Y006813D01*
X005803Y007100D01*
X005728Y007377D01*
X005585Y007626D01*
X005382Y007829D01*
X005133Y007972D01*
X004856Y008047D01*
X004569Y008047D01*
X004403Y008002D01*
X004335Y008069D01*
X004404Y008138D01*
X004547Y008386D01*
X004621Y008664D01*
X004621Y008951D01*
X004547Y009228D01*
X004404Y009476D01*
X004201Y009679D01*
X004051Y009765D01*
X004051Y010580D01*
X004403Y010931D01*
X004569Y010886D01*
X004856Y010886D01*
X005133Y010961D01*
X005382Y011104D01*
X005585Y011307D01*
X005728Y011556D01*
X005803Y011833D01*
X005803Y012120D01*
X005728Y012397D01*
X005585Y012646D01*
X005382Y012849D01*
X005133Y012992D01*
X004856Y013066D01*
X004569Y013066D01*
X004403Y013022D01*
X004335Y013089D01*
X004404Y013157D01*
X004547Y013406D01*
X004621Y013683D01*
X004621Y013970D01*
X004547Y014247D01*
X004404Y014496D01*
X004201Y014699D01*
X004051Y014785D01*
X004051Y015600D01*
X004403Y015951D01*
X004569Y015906D01*
X004856Y015906D01*
X005133Y015980D01*
X005382Y016124D01*
X005585Y016327D01*
X005728Y016575D01*
X005803Y016853D01*
X005803Y017140D01*
X005728Y017417D01*
X005585Y017665D01*
X005630Y017587D02*
X012902Y017587D01*
X012902Y017429D02*
X005721Y017429D01*
X005768Y017270D02*
X012902Y017270D01*
X012902Y017112D02*
X005803Y017112D01*
X005803Y016953D02*
X012902Y016953D01*
X012902Y016795D02*
X005787Y016795D01*
X005745Y016636D02*
X015250Y016636D01*
X015408Y016478D02*
X005672Y016478D01*
X005577Y016319D02*
X015567Y016319D01*
X015725Y016161D02*
X005419Y016161D01*
X005171Y016002D02*
X014753Y016002D01*
X014594Y015844D02*
X004296Y015844D01*
X004137Y015685D02*
X014530Y015685D01*
X014530Y015527D02*
X004051Y015527D01*
X004051Y015368D02*
X014579Y015368D01*
X014738Y015210D02*
X004051Y015210D01*
X004051Y015051D02*
X018979Y015051D01*
X018979Y014893D02*
X006127Y014893D01*
X006037Y014917D02*
X006314Y014842D01*
X006563Y014699D01*
X006766Y014496D01*
X006909Y014247D01*
X006984Y013970D01*
X006984Y013683D01*
X006909Y013406D01*
X006766Y013157D01*
X006563Y012955D01*
X006314Y012811D01*
X006037Y012737D01*
X005750Y012737D01*
X005473Y012811D01*
X005224Y012955D01*
X005021Y013157D01*
X004878Y013406D01*
X004804Y013683D01*
X004804Y013970D01*
X004878Y014247D01*
X005021Y014496D01*
X005224Y014699D01*
X005473Y014842D01*
X005750Y014917D01*
X006037Y014917D01*
X005660Y014893D02*
X004051Y014893D01*
X004140Y014734D02*
X005285Y014734D01*
X005101Y014576D02*
X004324Y014576D01*
X004449Y014417D02*
X004976Y014417D01*
X004884Y014259D02*
X004541Y014259D01*
X004587Y014100D02*
X004838Y014100D01*
X004804Y013942D02*
X004621Y013942D01*
X004621Y013783D02*
X004804Y013783D01*
X004819Y013625D02*
X004606Y013625D01*
X004563Y013466D02*
X004862Y013466D01*
X004935Y013308D02*
X004490Y013308D01*
X004395Y013149D02*
X005030Y013149D01*
X005136Y012991D02*
X005188Y012991D01*
X005398Y012832D02*
X005436Y012832D01*
X005557Y012674D02*
X014150Y012674D01*
X014309Y012832D02*
X006351Y012832D01*
X006599Y012991D02*
X014467Y012991D01*
X014626Y013149D02*
X006758Y013149D01*
X006853Y013308D02*
X014784Y013308D01*
X014969Y013039D02*
X013689Y011760D01*
X010933Y011760D01*
X009801Y010628D01*
X009801Y008906D01*
X011671Y007035D01*
X013689Y007035D01*
X014409Y006315D01*
X014427Y006297D01*
X021831Y006297D01*
X022628Y005500D01*
X023034Y005858D02*
X033503Y005858D01*
X033556Y005911D02*
X033404Y005759D01*
X033321Y005560D01*
X033321Y005345D01*
X033404Y005147D01*
X033556Y004995D01*
X033657Y004953D01*
X033556Y004911D01*
X033404Y004759D01*
X033321Y004560D01*
X033321Y004345D01*
X033404Y004147D01*
X033443Y004107D01*
X030570Y004107D01*
X030453Y004059D01*
X030363Y003969D01*
X030363Y003969D01*
X030131Y003737D01*
X029936Y003737D01*
X029737Y003655D01*
X029586Y003503D01*
X029543Y003401D01*
X029501Y003503D01*
X029349Y003655D01*
X029151Y003737D01*
X028936Y003737D01*
X028737Y003655D01*
X028586Y003503D01*
X028509Y003318D01*
X028488Y003381D01*
X028454Y003448D01*
X028409Y003510D01*
X028356Y003563D01*
X028295Y003607D01*
X028228Y003642D01*
X028156Y003665D01*
X028081Y003677D01*
X028063Y003677D01*
X028063Y003217D01*
X028023Y003217D01*
X028023Y003177D01*
X027563Y003177D01*
X027563Y003159D01*
X027575Y003084D01*
X027598Y003013D01*
X027633Y002945D01*
X027677Y002884D01*
X027731Y002831D01*
X027792Y002786D01*
X027859Y002752D01*
X027931Y002729D01*
X028006Y002717D01*
X028023Y002717D01*
X028023Y003177D01*
X028063Y003177D01*
X028063Y002717D01*
X028081Y002717D01*
X028156Y002729D01*
X028228Y002752D01*
X028295Y002786D01*
X028356Y002831D01*
X028409Y002884D01*
X028454Y002945D01*
X028488Y003013D01*
X028509Y003076D01*
X028586Y002891D01*
X028737Y002739D01*
X028936Y002657D01*
X029151Y002657D01*
X029349Y002739D01*
X029501Y002891D01*
X029543Y002993D01*
X029586Y002891D01*
X029737Y002739D01*
X029936Y002657D01*
X030151Y002657D01*
X030349Y002739D01*
X030501Y002891D01*
X030583Y003089D01*
X030583Y003284D01*
X030766Y003467D01*
X031114Y003467D01*
X031047Y003304D01*
X031047Y003089D01*
X031129Y002891D01*
X031281Y002739D01*
X031479Y002657D01*
X031694Y002657D01*
X031892Y002739D01*
X032044Y002891D01*
X032087Y002993D01*
X032129Y002891D01*
X032281Y002739D01*
X032479Y002657D01*
X032694Y002657D01*
X032892Y002739D01*
X033044Y002891D01*
X033087Y002993D01*
X033129Y002891D01*
X033281Y002739D01*
X033479Y002657D01*
X033694Y002657D01*
X033892Y002739D01*
X034044Y002891D01*
X034127Y003089D01*
X034127Y003304D01*
X034059Y003467D01*
X034655Y003467D01*
X034574Y003271D01*
X034574Y002926D01*
X034706Y002607D01*
X034823Y002489D01*
X009211Y002489D01*
X009211Y011907D01*
X010628Y011907D01*
X009620Y010899D01*
X009620Y010899D01*
X009530Y010809D01*
X009481Y010692D01*
X009481Y008842D01*
X009530Y008724D01*
X009620Y008634D01*
X011490Y006764D01*
X011608Y006715D01*
X013556Y006715D01*
X014089Y006182D01*
X014089Y005944D01*
X013909Y005764D01*
X013633Y006040D01*
X013186Y006040D01*
X012909Y005764D01*
X012633Y006040D01*
X012186Y006040D01*
X011909Y005764D01*
X011633Y006040D01*
X011186Y006040D01*
X010909Y005764D01*
X010633Y006040D01*
X010186Y006040D01*
X009869Y005724D01*
X009869Y005276D01*
X010146Y005000D01*
X009869Y004724D01*
X009869Y004276D01*
X010186Y003960D01*
X010633Y003960D01*
X010909Y004236D01*
X011186Y003960D01*
X011633Y003960D01*
X011909Y004236D01*
X012186Y003960D01*
X012633Y003960D01*
X012909Y004236D01*
X013186Y003960D01*
X013633Y003960D01*
X013949Y004276D01*
X013949Y004281D01*
X014211Y004020D01*
X014389Y004020D01*
X014389Y004480D01*
X014429Y004480D01*
X014429Y004020D01*
X014608Y004020D01*
X014889Y004301D01*
X014889Y004480D01*
X014429Y004480D01*
X014429Y004520D01*
X014889Y004520D01*
X014889Y004699D01*
X014628Y004960D01*
X014633Y004960D01*
X014949Y005276D01*
X014949Y005724D01*
X014729Y005944D01*
X014729Y005977D01*
X018342Y005977D01*
X018088Y005724D01*
X018088Y005276D01*
X018364Y005000D01*
X018088Y004724D01*
X018088Y004276D01*
X018404Y003960D01*
X018852Y003960D01*
X019128Y004236D01*
X019404Y003960D01*
X019852Y003960D01*
X020128Y004236D01*
X020404Y003960D01*
X020852Y003960D01*
X021128Y004236D01*
X021404Y003960D01*
X021852Y003960D01*
X022168Y004276D01*
X022168Y004281D01*
X022429Y004020D01*
X022608Y004020D01*
X022608Y004480D01*
X022648Y004480D01*
X022648Y004520D01*
X023108Y004520D01*
X023108Y004699D01*
X022847Y004960D01*
X022852Y004960D01*
X023168Y005276D01*
X023168Y005724D01*
X022852Y006040D01*
X022540Y006040D01*
X022012Y006569D01*
X021894Y006617D01*
X014560Y006617D01*
X013960Y007217D01*
X013870Y007307D01*
X013753Y007355D01*
X011804Y007355D01*
X010121Y009038D01*
X010121Y010495D01*
X011066Y011440D01*
X011470Y011440D01*
X011282Y011252D01*
X011282Y011085D01*
X010908Y010711D01*
X010859Y010593D01*
X010859Y010337D01*
X010741Y010219D01*
X010741Y009856D01*
X010998Y009599D01*
X011361Y009599D01*
X011617Y009856D01*
X011617Y010219D01*
X011499Y010337D01*
X011499Y010397D01*
X011735Y010633D01*
X011902Y010633D01*
X012159Y010889D01*
X012159Y011252D01*
X011971Y011440D01*
X013753Y011440D01*
X013870Y011489D01*
X013960Y011579D01*
X014289Y011907D01*
X019644Y011907D01*
X019644Y016663D01*
X019652Y016663D01*
X019652Y016304D01*
X019874Y016304D01*
X019890Y016308D01*
X019905Y016304D01*
X020127Y016304D01*
X020127Y016663D01*
X019749Y016663D01*
X019652Y016663D01*
X019652Y016700D01*
X019644Y016700D01*
X019644Y017075D01*
X019324Y017075D01*
X019317Y017081D01*
X019306Y017086D01*
X019369Y017148D01*
X019455Y017356D01*
X019455Y017581D01*
X019369Y017789D01*
X019210Y017947D01*
X019002Y018034D01*
X018777Y018034D01*
X018570Y017947D01*
X018411Y017789D01*
X018325Y017581D01*
X018325Y017356D01*
X018411Y017148D01*
X018484Y017075D01*
X015716Y017075D01*
X014324Y018467D01*
X014324Y018634D01*
X014067Y018891D01*
X013704Y018891D01*
X013448Y018634D01*
X013448Y018271D01*
X013704Y018015D01*
X013871Y018015D01*
X014811Y017075D01*
X013246Y017075D01*
X013246Y019954D01*
X015506Y019954D01*
X015624Y019836D01*
X015987Y019836D01*
X016184Y020033D01*
X017994Y018222D01*
X018084Y018132D01*
X018202Y018084D01*
X023940Y018084D01*
X024088Y017935D01*
X024206Y017887D01*
X024471Y017887D01*
X024471Y017785D01*
X024150Y017464D01*
X023941Y017464D01*
X023684Y017207D01*
X023684Y016853D01*
X023615Y016922D01*
X023252Y016922D01*
X022995Y016666D01*
X022995Y016303D01*
X023252Y016046D01*
X023615Y016046D01*
X023763Y016194D01*
X025151Y016194D01*
X024777Y015820D01*
X024687Y015730D01*
X024639Y015613D01*
X024639Y012745D01*
X024687Y012628D01*
X025212Y012103D01*
X025097Y012103D01*
X024899Y012021D01*
X024747Y011869D01*
X024670Y011684D01*
X024650Y011747D01*
X024615Y011815D01*
X024571Y011876D01*
X024517Y011929D01*
X024456Y011974D01*
X024389Y012008D01*
X024317Y012031D01*
X024243Y012043D01*
X024225Y012043D01*
X024225Y011583D01*
X024665Y011583D01*
X024665Y011543D01*
X024225Y011543D01*
X024225Y011583D01*
X024185Y011583D01*
X024185Y012043D01*
X024167Y012043D01*
X024092Y012031D01*
X024020Y012008D01*
X023970Y011982D01*
X023970Y012182D01*
X024073Y012285D01*
X024117Y012391D01*
X024117Y013202D01*
X024265Y013350D01*
X024265Y013713D01*
X024008Y013970D01*
X023645Y013970D01*
X023389Y013713D01*
X023389Y013350D01*
X023537Y013202D01*
X023537Y012592D01*
X023350Y012592D01*
X023093Y012335D01*
X023093Y012050D01*
X022966Y012103D01*
X022751Y012103D01*
X022552Y012021D01*
X022400Y011869D01*
X022358Y011767D01*
X022316Y011869D01*
X022164Y012021D01*
X021966Y012103D01*
X021751Y012103D01*
X021552Y012021D01*
X021400Y011869D01*
X021324Y011684D01*
X021303Y011747D01*
X021269Y011815D01*
X021224Y011876D01*
X021171Y011929D01*
X021110Y011974D01*
X021043Y012008D01*
X020971Y012031D01*
X020896Y012043D01*
X020878Y012043D01*
X020878Y011583D01*
X020838Y011583D01*
X020838Y011543D01*
X020378Y011543D01*
X020378Y011525D01*
X020390Y011451D01*
X020413Y011379D01*
X020448Y011311D01*
X020492Y011250D01*
X020546Y011197D01*
X020607Y011152D01*
X020674Y011118D01*
X020746Y011095D01*
X020820Y011083D01*
X020838Y011083D01*
X020838Y011543D01*
X020878Y011543D01*
X020878Y011083D01*
X020896Y011083D01*
X020971Y011095D01*
X021043Y011118D01*
X021110Y011152D01*
X021171Y011197D01*
X021224Y011250D01*
X021269Y011311D01*
X021303Y011379D01*
X021324Y011442D01*
X021400Y011257D01*
X021552Y011105D01*
X021751Y011023D01*
X021966Y011023D01*
X022164Y011105D01*
X022316Y011257D01*
X022358Y011359D01*
X022400Y011257D01*
X022552Y011105D01*
X022751Y011023D01*
X022966Y011023D01*
X023164Y011105D01*
X023316Y011257D01*
X023398Y011456D01*
X023398Y011670D01*
X023380Y011715D01*
X023713Y011715D01*
X023776Y011778D01*
X023760Y011747D01*
X023737Y011675D01*
X023725Y011601D01*
X023725Y011583D01*
X024185Y011583D01*
X024185Y011543D01*
X024225Y011543D01*
X024225Y011083D01*
X024243Y011083D01*
X024317Y011095D01*
X024389Y011118D01*
X024456Y011152D01*
X024517Y011197D01*
X024571Y011250D01*
X024615Y011311D01*
X024650Y011379D01*
X024670Y011442D01*
X024747Y011257D01*
X024899Y011105D01*
X025097Y011023D01*
X025312Y011023D01*
X025511Y011105D01*
X025663Y011257D01*
X025705Y011359D01*
X025747Y011257D01*
X025899Y011105D01*
X026097Y011023D01*
X026312Y011023D01*
X026511Y011105D01*
X026663Y011257D01*
X026745Y011456D01*
X026745Y011670D01*
X026663Y011869D01*
X026511Y012021D01*
X026312Y012103D01*
X026117Y012103D01*
X025279Y012942D01*
X025279Y013825D01*
X025374Y013729D01*
X025583Y013643D01*
X025810Y013643D01*
X026020Y013729D01*
X026180Y013890D01*
X026267Y014099D01*
X026267Y014326D01*
X026180Y014535D01*
X026020Y014696D01*
X025979Y014713D01*
X026020Y014729D01*
X026180Y014890D01*
X026267Y015099D01*
X026267Y015326D01*
X026180Y015535D01*
X026093Y015623D01*
X026185Y015623D01*
X026303Y015505D01*
X026666Y015505D01*
X026814Y015653D01*
X029071Y015653D01*
X030011Y014713D01*
X030118Y014669D01*
X030485Y014669D01*
X030633Y014521D01*
X030828Y014521D01*
X030899Y014491D01*
X031627Y014491D01*
X031627Y014157D01*
X031676Y014039D01*
X031766Y013949D01*
X031922Y013793D01*
X032012Y013703D01*
X032129Y013654D01*
X033586Y013654D01*
X033743Y013497D01*
X033743Y009186D01*
X033792Y009069D01*
X034029Y008831D01*
X034147Y008782D01*
X034638Y008782D01*
X034683Y008674D01*
X034835Y008523D01*
X035034Y008440D01*
X035848Y008440D01*
X036047Y008523D01*
X036050Y008526D01*
X036050Y003716D01*
X035932Y003834D01*
X035613Y003966D01*
X035325Y003966D01*
X035367Y004068D01*
X035367Y007296D01*
X035319Y007414D01*
X035072Y007660D01*
X034982Y007750D01*
X034890Y007788D01*
X034767Y007911D01*
X034569Y007993D01*
X033754Y007993D01*
X033556Y007911D01*
X033404Y007759D01*
X033321Y007560D01*
X033321Y007345D01*
X033404Y007147D01*
X033556Y006995D01*
X033657Y006953D01*
X033556Y006911D01*
X033404Y006759D01*
X033321Y006560D01*
X033321Y006345D01*
X033404Y006147D01*
X033556Y005995D01*
X033657Y005953D01*
X033556Y005911D01*
X033534Y006017D02*
X022875Y006017D01*
X023168Y005700D02*
X033379Y005700D01*
X033321Y005541D02*
X023168Y005541D01*
X023168Y005383D02*
X033321Y005383D01*
X033372Y005224D02*
X023116Y005224D01*
X022957Y005066D02*
X033485Y005066D01*
X033552Y004907D02*
X022900Y004907D01*
X023058Y004749D02*
X033399Y004749D01*
X033334Y004590D02*
X023108Y004590D01*
X023108Y004480D02*
X022648Y004480D01*
X022648Y004020D01*
X022827Y004020D01*
X023108Y004301D01*
X023108Y004480D01*
X023108Y004432D02*
X033321Y004432D01*
X033351Y004273D02*
X023080Y004273D01*
X022921Y004115D02*
X033436Y004115D01*
X034119Y003322D02*
X034595Y003322D01*
X034574Y003164D02*
X034127Y003164D01*
X034092Y003005D02*
X034574Y003005D01*
X034606Y002847D02*
X034000Y002847D01*
X033769Y002688D02*
X034672Y002688D01*
X034783Y002530D02*
X009211Y002530D01*
X009211Y002688D02*
X024317Y002688D01*
X024393Y002657D02*
X024607Y002657D01*
X024806Y002739D01*
X024958Y002891D01*
X025000Y002993D01*
X025042Y002891D01*
X025194Y002739D01*
X025393Y002657D01*
X025607Y002657D01*
X025806Y002739D01*
X025958Y002891D01*
X026000Y002993D01*
X026042Y002891D01*
X026194Y002739D01*
X026393Y002657D01*
X026607Y002657D01*
X026806Y002739D01*
X026958Y002891D01*
X027040Y003089D01*
X027040Y003304D01*
X026958Y003503D01*
X026806Y003655D01*
X026607Y003737D01*
X026393Y003737D01*
X026194Y003655D01*
X026042Y003503D01*
X026000Y003401D01*
X025958Y003503D01*
X025806Y003655D01*
X025607Y003737D01*
X025393Y003737D01*
X025194Y003655D01*
X025042Y003503D01*
X025000Y003401D01*
X024958Y003503D01*
X024806Y003655D01*
X024607Y003737D01*
X024393Y003737D01*
X024194Y003655D01*
X024042Y003503D01*
X023960Y003304D01*
X023960Y003089D01*
X024042Y002891D01*
X024194Y002739D01*
X024393Y002657D01*
X024683Y002688D02*
X025317Y002688D01*
X025087Y002847D02*
X024913Y002847D01*
X024967Y003481D02*
X025033Y003481D01*
X025179Y003639D02*
X024821Y003639D01*
X024179Y003639D02*
X009211Y003639D01*
X009211Y003481D02*
X024033Y003481D01*
X023967Y003322D02*
X009211Y003322D01*
X009211Y003164D02*
X023960Y003164D01*
X023995Y003005D02*
X009211Y003005D01*
X009211Y002847D02*
X024087Y002847D01*
X022648Y004115D02*
X022608Y004115D01*
X022608Y004273D02*
X022648Y004273D01*
X022648Y004432D02*
X022608Y004432D01*
X022628Y004500D02*
X026656Y004500D01*
X026706Y004550D01*
X023089Y008167D01*
X020874Y008167D01*
X020431Y007724D01*
X015904Y007724D01*
X013689Y007724D01*
X013892Y007285D02*
X033347Y007285D01*
X033321Y007443D02*
X011716Y007443D01*
X011558Y007602D02*
X033339Y007602D01*
X033405Y007760D02*
X011399Y007760D01*
X011241Y007919D02*
X033575Y007919D01*
X034161Y007453D02*
X034187Y007478D01*
X034801Y007478D01*
X035047Y007232D01*
X035047Y004132D01*
X034703Y003787D01*
X030634Y003787D01*
X030043Y003197D01*
X030548Y003005D02*
X031082Y003005D01*
X031047Y003164D02*
X030583Y003164D01*
X030621Y003322D02*
X031054Y003322D01*
X031173Y002847D02*
X030457Y002847D01*
X030226Y002688D02*
X031404Y002688D01*
X031769Y002688D02*
X032404Y002688D01*
X032173Y002847D02*
X032000Y002847D01*
X032769Y002688D02*
X033404Y002688D01*
X033173Y002847D02*
X033000Y002847D01*
X035367Y004115D02*
X036050Y004115D01*
X036050Y004273D02*
X035367Y004273D01*
X035367Y004432D02*
X036050Y004432D01*
X036050Y004590D02*
X035367Y004590D01*
X035367Y004749D02*
X036050Y004749D01*
X036050Y004907D02*
X035367Y004907D01*
X035367Y005066D02*
X036050Y005066D01*
X036050Y005224D02*
X035367Y005224D01*
X035367Y005383D02*
X036050Y005383D01*
X036050Y005541D02*
X035367Y005541D01*
X035367Y005700D02*
X036050Y005700D01*
X036050Y005858D02*
X035367Y005858D01*
X035367Y006017D02*
X036050Y006017D01*
X036050Y006175D02*
X035367Y006175D01*
X035367Y006334D02*
X036050Y006334D01*
X036050Y006492D02*
X035367Y006492D01*
X035367Y006651D02*
X036050Y006651D01*
X036050Y006809D02*
X035367Y006809D01*
X035367Y006968D02*
X036050Y006968D01*
X036050Y007126D02*
X035367Y007126D01*
X035367Y007285D02*
X036050Y007285D01*
X036050Y007443D02*
X035289Y007443D01*
X035130Y007602D02*
X036050Y007602D01*
X036050Y007760D02*
X034957Y007760D01*
X034748Y007919D02*
X036050Y007919D01*
X036050Y008077D02*
X011082Y008077D01*
X010924Y008236D02*
X012903Y008236D01*
X013015Y008123D02*
X012759Y008380D01*
X012759Y008664D01*
X012523Y008664D01*
X012267Y008921D01*
X012267Y009284D01*
X012523Y009540D01*
X012886Y009540D01*
X013004Y009422D01*
X013212Y009422D01*
X012917Y009717D01*
X012463Y009717D01*
X012345Y009599D01*
X011982Y009599D01*
X011725Y009856D01*
X011725Y010219D01*
X011982Y010476D01*
X012345Y010476D01*
X012463Y010357D01*
X013113Y010357D01*
X013230Y010309D01*
X013286Y010254D01*
X013508Y010476D01*
X013870Y010476D01*
X014127Y010219D01*
X014127Y010052D01*
X014511Y009668D01*
X016194Y009668D01*
X016007Y009856D01*
X016007Y010219D01*
X016125Y010337D01*
X016125Y010495D01*
X016174Y010612D01*
X016559Y010998D01*
X016677Y011046D01*
X019689Y011046D01*
X019807Y011164D01*
X020170Y011164D01*
X020426Y010908D01*
X020426Y010545D01*
X020170Y010288D01*
X019816Y010288D01*
X019885Y010219D01*
X019885Y009856D01*
X019767Y009738D01*
X019767Y009629D01*
X019718Y009512D01*
X018398Y008191D01*
X018280Y008143D01*
X013398Y008143D01*
X013378Y008123D01*
X013015Y008123D01*
X012759Y008394D02*
X010765Y008394D01*
X010607Y008553D02*
X012759Y008553D01*
X012476Y008711D02*
X010448Y008711D01*
X010290Y008870D02*
X012318Y008870D01*
X012267Y009028D02*
X010131Y009028D01*
X010121Y009187D02*
X012267Y009187D01*
X012328Y009345D02*
X010121Y009345D01*
X010121Y009504D02*
X012486Y009504D01*
X012408Y009662D02*
X012972Y009662D01*
X012923Y009504D02*
X013130Y009504D01*
X013443Y009102D02*
X012705Y009102D01*
X013197Y008561D02*
X013295Y008463D01*
X018217Y008463D01*
X019447Y009693D01*
X019447Y010037D01*
X019885Y009979D02*
X033743Y009979D01*
X033743Y009821D02*
X019850Y009821D01*
X019767Y009662D02*
X033743Y009662D01*
X033743Y009504D02*
X019710Y009504D01*
X019552Y009345D02*
X033743Y009345D01*
X033743Y009187D02*
X019393Y009187D01*
X019235Y009028D02*
X033832Y009028D01*
X033991Y008870D02*
X019076Y008870D01*
X018918Y008711D02*
X034668Y008711D01*
X034805Y008553D02*
X018759Y008553D01*
X018601Y008394D02*
X036050Y008394D01*
X036050Y008236D02*
X018442Y008236D01*
X017872Y008758D02*
X013787Y008758D01*
X013443Y009102D01*
X014033Y009053D02*
X017478Y009053D01*
X017577Y009152D01*
X018463Y010037D01*
X018955Y010037D02*
X018955Y009841D01*
X017872Y008758D01*
X016789Y009348D02*
X017478Y010037D01*
X016789Y009348D02*
X014378Y009348D01*
X013689Y010037D01*
X014050Y010296D02*
X016084Y010296D01*
X016125Y010455D02*
X013891Y010455D01*
X014127Y010138D02*
X016007Y010138D01*
X016007Y009979D02*
X014200Y009979D01*
X014358Y009821D02*
X016042Y009821D01*
X016445Y010037D02*
X016445Y010431D01*
X016740Y010726D01*
X019988Y010726D01*
X020426Y010772D02*
X028447Y010772D01*
X028419Y010800D02*
X028665Y010554D01*
X028783Y010505D01*
X031549Y010505D01*
X031667Y010387D01*
X032030Y010387D01*
X032287Y010643D01*
X032287Y011006D01*
X032030Y011263D01*
X031667Y011263D01*
X031549Y011145D01*
X028979Y011145D01*
X028920Y011203D01*
X028920Y011263D01*
X029039Y011382D01*
X029039Y011715D01*
X029274Y011715D01*
X029422Y011864D01*
X030338Y011864D01*
X030486Y011715D01*
X030849Y011715D01*
X031105Y011972D01*
X031105Y012335D01*
X030849Y012592D01*
X030486Y012592D01*
X030338Y012444D01*
X029422Y012444D01*
X029274Y012592D01*
X028911Y012592D01*
X028654Y012335D01*
X028654Y012001D01*
X028419Y012001D01*
X028162Y011744D01*
X028162Y011382D01*
X028280Y011263D01*
X028280Y011007D01*
X028329Y010890D01*
X028419Y010800D01*
X028312Y010930D02*
X020404Y010930D01*
X020246Y011089D02*
X020785Y011089D01*
X020838Y011089D02*
X020878Y011089D01*
X020932Y011089D02*
X021592Y011089D01*
X021410Y011247D02*
X021221Y011247D01*
X021312Y011406D02*
X021339Y011406D01*
X021340Y011723D02*
X021311Y011723D01*
X021219Y011881D02*
X021413Y011881D01*
X021598Y012040D02*
X020917Y012040D01*
X020878Y012040D02*
X020838Y012040D01*
X020838Y012043D02*
X020820Y012043D01*
X020746Y012031D01*
X020674Y012008D01*
X020607Y011974D01*
X020546Y011929D01*
X020492Y011876D01*
X020448Y011815D01*
X020413Y011747D01*
X020390Y011675D01*
X020378Y011601D01*
X020378Y011583D01*
X020838Y011583D01*
X020838Y012043D01*
X020799Y012040D02*
X019644Y012040D01*
X019644Y012198D02*
X023093Y012198D01*
X023115Y012357D02*
X019644Y012357D01*
X019644Y012515D02*
X023273Y012515D01*
X023537Y012674D02*
X019644Y012674D01*
X019644Y012832D02*
X023537Y012832D01*
X023537Y012991D02*
X019644Y012991D01*
X019644Y013149D02*
X023537Y013149D01*
X023431Y013308D02*
X019644Y013308D01*
X019644Y013466D02*
X023389Y013466D01*
X023389Y013625D02*
X019644Y013625D01*
X019644Y013783D02*
X023459Y013783D01*
X023617Y013942D02*
X019644Y013942D01*
X019644Y014100D02*
X024639Y014100D01*
X024639Y013942D02*
X024036Y013942D01*
X024195Y013783D02*
X024639Y013783D01*
X024639Y013625D02*
X024265Y013625D01*
X024265Y013466D02*
X024639Y013466D01*
X024639Y013308D02*
X024222Y013308D01*
X024117Y013149D02*
X024639Y013149D01*
X024639Y012991D02*
X024117Y012991D01*
X024117Y012832D02*
X024639Y012832D01*
X024668Y012674D02*
X024117Y012674D01*
X024117Y012515D02*
X024800Y012515D01*
X024959Y012357D02*
X024102Y012357D01*
X023986Y012198D02*
X025117Y012198D01*
X024944Y012040D02*
X024264Y012040D01*
X024225Y012040D02*
X024185Y012040D01*
X024146Y012040D02*
X023970Y012040D01*
X024185Y011881D02*
X024225Y011881D01*
X024225Y011723D02*
X024185Y011723D01*
X024185Y011564D02*
X023398Y011564D01*
X023378Y011406D02*
X023751Y011406D01*
X023760Y011379D02*
X023794Y011311D01*
X023839Y011250D01*
X023892Y011197D01*
X023953Y011152D01*
X024020Y011118D01*
X024092Y011095D01*
X024167Y011083D01*
X024185Y011083D01*
X024185Y011543D01*
X023725Y011543D01*
X023725Y011525D01*
X023737Y011451D01*
X023760Y011379D01*
X023842Y011247D02*
X023306Y011247D01*
X023124Y011089D02*
X024131Y011089D01*
X024185Y011089D02*
X024225Y011089D01*
X024278Y011089D02*
X024939Y011089D01*
X024757Y011247D02*
X024568Y011247D01*
X024658Y011406D02*
X024685Y011406D01*
X024665Y011564D02*
X024225Y011564D01*
X024205Y011563D02*
X024270Y011563D01*
X024270Y011022D01*
X024220Y010972D01*
X021071Y010972D01*
X020874Y010776D01*
X020874Y008167D01*
X022088Y006492D02*
X033321Y006492D01*
X033326Y006334D02*
X022247Y006334D01*
X022405Y006175D02*
X033392Y006175D01*
X033359Y006651D02*
X014526Y006651D01*
X014368Y006809D02*
X033454Y006809D01*
X033622Y006968D02*
X014209Y006968D01*
X014051Y007126D02*
X033424Y007126D01*
X034211Y009102D02*
X034063Y009250D01*
X034063Y013630D01*
X033719Y013974D01*
X032193Y013974D01*
X031947Y014220D01*
X031947Y014663D01*
X032094Y014811D01*
X032439Y014811D01*
X033606Y015978D01*
X033606Y016220D01*
X033610Y016224D01*
X033993Y015844D02*
X034235Y015844D01*
X034211Y015943D02*
X032734Y014467D01*
X032656Y014576D02*
X034087Y014576D01*
X034087Y014734D02*
X032815Y014734D01*
X032973Y014893D02*
X034087Y014893D01*
X034087Y015051D02*
X033132Y015051D01*
X033290Y015210D02*
X034087Y015210D01*
X034087Y015367D02*
X034087Y014058D01*
X033900Y014246D01*
X033782Y014294D01*
X032325Y014294D01*
X032267Y014353D01*
X032267Y014491D01*
X032503Y014491D01*
X032620Y014540D01*
X033788Y015707D01*
X033798Y015718D01*
X033916Y015767D01*
X034068Y015919D01*
X034150Y016117D01*
X034150Y016332D01*
X034068Y016530D01*
X033916Y016682D01*
X033731Y016759D01*
X033794Y016780D01*
X033862Y016814D01*
X033923Y016858D01*
X033976Y016912D01*
X034021Y016973D01*
X034055Y017040D01*
X034078Y017112D01*
X034083Y017143D01*
X034235Y016991D01*
X034235Y015583D01*
X034136Y015484D01*
X034087Y015367D01*
X034088Y015368D02*
X033449Y015368D01*
X033607Y015527D02*
X034178Y015527D01*
X034235Y015685D02*
X033766Y015685D01*
X033788Y015707D02*
X033788Y015707D01*
X034103Y016002D02*
X034235Y016002D01*
X034211Y015943D02*
X034211Y016878D01*
X033864Y017224D01*
X033610Y017224D01*
X033630Y017204D02*
X034022Y017204D01*
X033982Y017244D01*
X033630Y017244D01*
X033630Y017204D01*
X034006Y016953D02*
X034235Y016953D01*
X034235Y016795D02*
X033824Y016795D01*
X033962Y016636D02*
X034235Y016636D01*
X034235Y016478D02*
X034090Y016478D01*
X034150Y016319D02*
X034235Y016319D01*
X034235Y016161D02*
X034150Y016161D01*
X034875Y016161D02*
X035155Y016161D01*
X035135Y016141D02*
X035086Y016073D01*
X035048Y015999D01*
X035022Y015919D01*
X035009Y015837D01*
X035009Y015815D01*
X035519Y015815D01*
X035519Y016325D01*
X035498Y016325D01*
X035415Y016312D01*
X035336Y016286D01*
X035262Y016249D01*
X035194Y016200D01*
X035135Y016141D01*
X035050Y016002D02*
X034875Y016002D01*
X034875Y015844D02*
X035010Y015844D01*
X035020Y015685D02*
X034875Y015685D01*
X034875Y015527D02*
X035081Y015527D01*
X035226Y015368D02*
X034867Y015368D01*
X034766Y015210D02*
X036050Y015210D01*
X036050Y015368D02*
X035853Y015368D01*
X035997Y015527D02*
X036050Y015527D01*
X036029Y016002D02*
X036050Y016002D01*
X036050Y016161D02*
X035924Y016161D01*
X036050Y016319D02*
X035620Y016319D01*
X035559Y016319D02*
X035519Y016319D01*
X035459Y016319D02*
X034875Y016319D01*
X034875Y016478D02*
X036050Y016478D01*
X036050Y016636D02*
X034875Y016636D01*
X034875Y016795D02*
X036050Y016795D01*
X036050Y016953D02*
X034875Y016953D01*
X034875Y017112D02*
X036050Y017112D01*
X036050Y017270D02*
X034841Y017270D01*
X034703Y017429D02*
X036050Y017429D01*
X036050Y017587D02*
X034545Y017587D01*
X034386Y017746D02*
X036050Y017746D01*
X036050Y017904D02*
X034228Y017904D01*
X034128Y018063D02*
X036050Y018063D01*
X036050Y018221D02*
X034150Y018221D01*
X034130Y018380D02*
X036050Y018380D01*
X036050Y018538D02*
X034060Y018538D01*
X033881Y018697D02*
X036050Y018697D01*
X036050Y018855D02*
X034005Y018855D01*
X034107Y019014D02*
X036050Y019014D01*
X036050Y019172D02*
X034150Y019172D01*
X034150Y019331D02*
X036050Y019331D01*
X036050Y019489D02*
X034085Y019489D01*
X033951Y019648D02*
X036050Y019648D01*
X036050Y019806D02*
X033956Y019806D01*
X034087Y019965D02*
X036050Y019965D01*
X036050Y020123D02*
X034150Y020123D01*
X034150Y020282D02*
X036050Y020282D01*
X036050Y020440D02*
X034105Y020440D01*
X034000Y020599D02*
X036050Y020599D01*
X036050Y020757D02*
X033893Y020757D01*
X034065Y020916D02*
X036050Y020916D01*
X036050Y021074D02*
X034132Y021074D01*
X034150Y021233D02*
X036050Y021233D01*
X036050Y021391D02*
X034126Y021391D01*
X034049Y021550D02*
X036050Y021550D01*
X036050Y021708D02*
X033854Y021708D01*
X034016Y021867D02*
X036050Y021867D01*
X036050Y022025D02*
X034112Y022025D01*
X034150Y022184D02*
X036050Y022184D01*
X036050Y022342D02*
X034146Y022342D01*
X034080Y022501D02*
X036050Y022501D01*
X036050Y022659D02*
X033939Y022659D01*
X033967Y022818D02*
X036050Y022818D01*
X036050Y022976D02*
X034092Y022976D01*
X034150Y023135D02*
X036050Y023135D01*
X036050Y023293D02*
X034150Y023293D01*
X034101Y023452D02*
X036050Y023452D01*
X036050Y023610D02*
X033988Y023610D01*
X033918Y023769D02*
X036050Y023769D01*
X036050Y023927D02*
X034072Y023927D01*
X034137Y024086D02*
X036050Y024086D01*
X036050Y024244D02*
X034150Y024244D01*
X034121Y024403D02*
X036050Y024403D01*
X036050Y024561D02*
X034037Y024561D01*
X033826Y024720D02*
X036050Y024720D01*
X036050Y024878D02*
X032286Y024878D01*
X032286Y024720D02*
X033395Y024720D01*
X033183Y024561D02*
X032286Y024561D01*
X032286Y024403D02*
X033100Y024403D01*
X033070Y024244D02*
X032286Y024244D01*
X032286Y024086D02*
X032987Y024086D01*
X032828Y023927D02*
X032286Y023927D01*
X032286Y023769D02*
X032708Y023769D01*
X032690Y023610D02*
X032286Y023610D01*
X032286Y023452D02*
X032690Y023452D01*
X032690Y023293D02*
X032286Y023293D01*
X032286Y023135D02*
X032690Y023135D01*
X032690Y022976D02*
X032286Y022976D01*
X032286Y022818D02*
X032690Y022818D01*
X032690Y022659D02*
X032286Y022659D01*
X032286Y022501D02*
X032690Y022501D01*
X032690Y022342D02*
X032286Y022342D01*
X032286Y022184D02*
X032690Y022184D01*
X032690Y022025D02*
X032286Y022025D01*
X032286Y021867D02*
X032690Y021867D01*
X032690Y021708D02*
X032286Y021708D01*
X032286Y021550D02*
X032690Y021550D01*
X032690Y021391D02*
X032286Y021391D01*
X032286Y021233D02*
X032690Y021233D01*
X032633Y021074D02*
X032307Y021074D01*
X032434Y020916D02*
X032474Y020916D01*
X032395Y020440D02*
X032290Y020440D01*
X032163Y019965D02*
X032088Y019965D01*
X031685Y021074D02*
X031398Y021074D01*
X031557Y021233D02*
X031706Y021233D01*
X031706Y021391D02*
X031598Y021391D01*
X031598Y021550D02*
X031706Y021550D01*
X031706Y021708D02*
X031526Y021708D01*
X031401Y021867D02*
X031706Y021867D01*
X031706Y022025D02*
X031401Y022025D01*
X031524Y022184D02*
X031706Y022184D01*
X031706Y022342D02*
X031598Y022342D01*
X031598Y022501D02*
X031706Y022501D01*
X031706Y022659D02*
X031559Y022659D01*
X031706Y022818D02*
X031401Y022818D01*
X031401Y022976D02*
X031706Y022976D01*
X031706Y023135D02*
X031379Y023135D01*
X031220Y023293D02*
X031706Y023293D01*
X030705Y023293D02*
X030433Y023293D01*
X029794Y024244D02*
X028096Y024244D01*
X028318Y024403D02*
X029571Y024403D01*
X029029Y025354D02*
X028861Y025354D01*
X028360Y025354D02*
X028346Y025354D01*
X027107Y026622D02*
X024055Y026622D01*
X024055Y026772D02*
X024018Y026860D01*
X023951Y026928D01*
X023863Y026964D01*
X022980Y026964D01*
X022892Y026928D01*
X022824Y026860D01*
X022788Y026772D01*
X022788Y026204D01*
X022824Y026116D01*
X022892Y026049D01*
X022980Y026012D01*
X023863Y026012D01*
X023951Y026049D01*
X024018Y026116D01*
X024055Y026204D01*
X024055Y026772D01*
X024052Y026780D02*
X027266Y026780D01*
X027375Y026939D02*
X023925Y026939D01*
X023884Y027013D02*
X023925Y027037D01*
X023959Y027071D01*
X023983Y027112D01*
X023995Y027157D01*
X023995Y027379D01*
X023459Y027379D01*
X023459Y027001D01*
X023839Y027001D01*
X023884Y027013D01*
X023974Y027097D02*
X027375Y027097D01*
X027375Y027256D02*
X023995Y027256D01*
X023995Y027455D02*
X023459Y027455D01*
X023383Y027455D01*
X023383Y027379D01*
X023459Y027379D01*
X023459Y027455D01*
X023459Y027834D01*
X023839Y027834D01*
X023884Y027821D01*
X023925Y027798D01*
X023959Y027764D01*
X023983Y027723D01*
X023995Y027677D01*
X023995Y027455D01*
X023995Y027573D02*
X027375Y027573D01*
X027375Y027731D02*
X023978Y027731D01*
X023581Y027409D02*
X023573Y027417D01*
X023421Y027417D01*
X023383Y027414D02*
X018418Y027414D01*
X018260Y027573D02*
X022848Y027573D01*
X022848Y027677D02*
X022848Y027455D01*
X023383Y027455D01*
X023383Y027834D01*
X023004Y027834D01*
X022958Y027821D01*
X022917Y027798D01*
X022884Y027764D01*
X022860Y027723D01*
X022848Y027677D01*
X022865Y027731D02*
X018101Y027731D01*
X017896Y027484D02*
X021366Y024014D01*
X021741Y023769D02*
X023162Y023769D01*
X023162Y023927D02*
X021804Y023927D01*
X021804Y024086D02*
X023162Y024086D01*
X023162Y024244D02*
X021755Y024244D01*
X021597Y024403D02*
X023162Y024403D01*
X023162Y024561D02*
X021271Y024561D01*
X021113Y024720D02*
X023162Y024720D01*
X023162Y024878D02*
X020954Y024878D01*
X020796Y025037D02*
X023162Y025037D01*
X022800Y025195D02*
X020637Y025195D01*
X020479Y025354D02*
X022780Y025354D01*
X022780Y025512D02*
X020320Y025512D01*
X020162Y025671D02*
X022780Y025671D01*
X022787Y025829D02*
X020003Y025829D01*
X019845Y025988D02*
X022933Y025988D01*
X022812Y026146D02*
X019686Y026146D01*
X019528Y026305D02*
X022788Y026305D01*
X022788Y026463D02*
X019369Y026463D01*
X019211Y026622D02*
X022788Y026622D01*
X022791Y026780D02*
X019052Y026780D01*
X018894Y026939D02*
X022918Y026939D01*
X022958Y027013D02*
X023004Y027001D01*
X023383Y027001D01*
X023383Y027379D01*
X022848Y027379D01*
X022848Y027157D01*
X022860Y027112D01*
X022884Y027071D01*
X022917Y027037D01*
X022958Y027013D01*
X022868Y027097D02*
X018735Y027097D01*
X018577Y027256D02*
X022848Y027256D01*
X023383Y027256D02*
X023459Y027256D01*
X023459Y027414D02*
X027375Y027414D01*
X027375Y027890D02*
X014076Y027890D01*
X013472Y027484D02*
X017896Y027484D01*
X018118Y026474D02*
X013470Y026474D01*
X013457Y026461D01*
X012902Y025988D02*
X011843Y025988D01*
X012001Y025829D02*
X012820Y025829D01*
X012799Y025671D02*
X012049Y025671D01*
X012208Y025512D02*
X012799Y025512D01*
X012799Y025354D02*
X012366Y025354D01*
X012525Y025195D02*
X012806Y025195D01*
X013246Y024878D02*
X018474Y024878D01*
X018316Y025037D02*
X013994Y025037D01*
X013478Y025490D02*
X013472Y025496D01*
X013478Y025490D02*
X018315Y025490D01*
X021612Y022193D01*
X021907Y022193D01*
X022252Y021848D01*
X022252Y021799D01*
X021858Y021406D02*
X023285Y021406D01*
X023482Y021602D01*
X023482Y025459D01*
X023413Y025528D01*
X023802Y025037D02*
X026736Y025037D01*
X026736Y025195D02*
X024027Y025195D01*
X024047Y025354D02*
X026736Y025354D01*
X026736Y025512D02*
X024047Y025512D01*
X024047Y025671D02*
X026736Y025671D01*
X026736Y025829D02*
X024040Y025829D01*
X023894Y025988D02*
X026736Y025988D01*
X026736Y026146D02*
X024031Y026146D01*
X024055Y026305D02*
X026790Y026305D01*
X026949Y026463D02*
X024055Y026463D01*
X023459Y027097D02*
X023383Y027097D01*
X023383Y027573D02*
X023459Y027573D01*
X023459Y027731D02*
X023383Y027731D01*
X023802Y024878D02*
X026736Y024878D01*
X026736Y024720D02*
X023802Y024720D01*
X023802Y024561D02*
X026736Y024561D01*
X026736Y024403D02*
X023802Y024403D01*
X023802Y024244D02*
X026736Y024244D01*
X026736Y024086D02*
X023802Y024086D01*
X023802Y023927D02*
X026736Y023927D01*
X026736Y023769D02*
X023802Y023769D01*
X023802Y023610D02*
X026736Y023610D01*
X026736Y023452D02*
X023802Y023452D01*
X023802Y023293D02*
X026736Y023293D01*
X026736Y023135D02*
X023802Y023135D01*
X023162Y023135D02*
X021910Y023135D01*
X021752Y023293D02*
X023162Y023293D01*
X023162Y023452D02*
X021593Y023452D01*
X021582Y023610D02*
X023162Y023610D01*
X023162Y022976D02*
X022069Y022976D01*
X022227Y022818D02*
X023162Y022818D01*
X023162Y022659D02*
X022632Y022659D01*
X022790Y022501D02*
X023162Y022501D01*
X023162Y022342D02*
X022949Y022342D01*
X023039Y021799D02*
X022350Y022488D01*
X022104Y022488D01*
X018118Y026474D01*
X018633Y024720D02*
X013246Y024720D01*
X013246Y024561D02*
X018791Y024561D01*
X018950Y024403D02*
X013246Y024403D01*
X013246Y024244D02*
X019108Y024244D01*
X019267Y024086D02*
X013246Y024086D01*
X013246Y023927D02*
X019425Y023927D01*
X019584Y023769D02*
X013246Y023769D01*
X013246Y023610D02*
X019742Y023610D01*
X019901Y023452D02*
X013246Y023452D01*
X013246Y023293D02*
X020059Y023293D01*
X020218Y023135D02*
X013246Y023135D01*
X013246Y022976D02*
X020376Y022976D01*
X020535Y022818D02*
X013246Y022818D01*
X013246Y022659D02*
X020693Y022659D01*
X020852Y022501D02*
X016091Y022501D01*
X016256Y022342D02*
X021010Y022342D01*
X021169Y022184D02*
X016415Y022184D01*
X016573Y022025D02*
X021071Y022025D01*
X021026Y021867D02*
X016732Y021867D01*
X016890Y021708D02*
X021026Y021708D01*
X021095Y021550D02*
X017049Y021550D01*
X017207Y021391D02*
X021253Y021391D01*
X021579Y021233D02*
X017366Y021233D01*
X016252Y019965D02*
X016116Y019965D01*
X016411Y019806D02*
X013246Y019806D01*
X013246Y019648D02*
X016569Y019648D01*
X016728Y019489D02*
X013246Y019489D01*
X013246Y019331D02*
X016886Y019331D01*
X017045Y019172D02*
X013246Y019172D01*
X013246Y019014D02*
X017203Y019014D01*
X017134Y019043D02*
X018118Y018059D01*
X019693Y018059D01*
X019890Y017862D01*
X019890Y016730D01*
X019939Y016681D01*
X020146Y016681D01*
X020164Y016663D02*
X020164Y016304D01*
X020386Y016304D01*
X020428Y016315D01*
X020462Y016281D01*
X020551Y016244D01*
X021079Y016244D01*
X021167Y016281D01*
X021235Y016348D01*
X021271Y016437D01*
X021271Y016926D01*
X021235Y017014D01*
X021235Y017014D01*
X021369Y017148D01*
X021455Y017356D01*
X021455Y017581D01*
X021369Y017789D01*
X021210Y017947D01*
X021002Y018034D01*
X020777Y018034D01*
X020570Y017947D01*
X020411Y017789D01*
X020325Y017581D01*
X020325Y017356D01*
X020411Y017148D01*
X020473Y017086D01*
X020462Y017081D01*
X020428Y017047D01*
X020386Y017058D01*
X020164Y017058D01*
X020164Y016700D01*
X020127Y016700D01*
X020127Y017058D01*
X019905Y017058D01*
X019890Y017054D01*
X019874Y017058D01*
X019652Y017058D01*
X019652Y016700D01*
X020127Y016700D01*
X020127Y016663D01*
X020164Y016663D01*
X020164Y016636D02*
X020127Y016636D01*
X020127Y016478D02*
X020164Y016478D01*
X020164Y016319D02*
X020127Y016319D01*
X019939Y016681D02*
X019634Y016681D01*
X019644Y016636D02*
X019652Y016636D01*
X019644Y016478D02*
X019652Y016478D01*
X019644Y016319D02*
X019652Y016319D01*
X019644Y016161D02*
X023137Y016161D01*
X022995Y016319D02*
X021206Y016319D01*
X021271Y016478D02*
X022995Y016478D01*
X022995Y016636D02*
X021271Y016636D01*
X021271Y016795D02*
X023124Y016795D01*
X023684Y016953D02*
X021260Y016953D01*
X021332Y017112D02*
X023684Y017112D01*
X023747Y017270D02*
X021419Y017270D01*
X021455Y017429D02*
X023905Y017429D01*
X024273Y017587D02*
X021452Y017587D01*
X021387Y017746D02*
X024432Y017746D01*
X024164Y017904D02*
X021253Y017904D01*
X020890Y017469D02*
X020890Y016756D01*
X020815Y016681D01*
X020448Y017112D02*
X019332Y017112D01*
X019419Y017270D02*
X020360Y017270D01*
X020325Y017429D02*
X019455Y017429D01*
X019452Y017587D02*
X020327Y017587D01*
X020393Y017746D02*
X019387Y017746D01*
X019253Y017904D02*
X020526Y017904D01*
X020164Y016953D02*
X020127Y016953D01*
X020127Y016795D02*
X020164Y016795D01*
X019652Y016795D02*
X019644Y016795D01*
X019644Y016953D02*
X019652Y016953D01*
X018965Y016681D02*
X018890Y016756D01*
X018890Y017469D01*
X018360Y017270D02*
X015521Y017270D01*
X015680Y017112D02*
X018448Y017112D01*
X018325Y017429D02*
X015363Y017429D01*
X015204Y017587D02*
X018327Y017587D01*
X018393Y017746D02*
X015046Y017746D01*
X014887Y017904D02*
X018526Y017904D01*
X017996Y018221D02*
X014570Y018221D01*
X014729Y018063D02*
X023961Y018063D01*
X023729Y016161D02*
X025118Y016161D01*
X024959Y016002D02*
X019644Y016002D01*
X019644Y015844D02*
X024801Y015844D01*
X024669Y015685D02*
X019644Y015685D01*
X019644Y015527D02*
X024639Y015527D01*
X024639Y015368D02*
X019644Y015368D01*
X019644Y015210D02*
X024639Y015210D01*
X024639Y015051D02*
X019644Y015051D01*
X019644Y014893D02*
X024639Y014893D01*
X024639Y014734D02*
X019644Y014734D01*
X019644Y014576D02*
X024639Y014576D01*
X024639Y014417D02*
X019644Y014417D01*
X019644Y014259D02*
X024639Y014259D01*
X024270Y014319D02*
X024270Y011563D01*
X024225Y011406D02*
X024185Y011406D01*
X024185Y011247D02*
X024225Y011247D01*
X024220Y010972D02*
X027026Y010972D01*
X027173Y011120D01*
X027173Y011661D01*
X028502Y012990D01*
X030667Y012990D01*
X030409Y012515D02*
X029351Y012515D01*
X028835Y012515D02*
X025705Y012515D01*
X025547Y012674D02*
X033743Y012674D01*
X033743Y012832D02*
X025388Y012832D01*
X025279Y012991D02*
X033743Y012991D01*
X033743Y013149D02*
X028392Y013149D01*
X028382Y013139D02*
X028542Y013299D01*
X028629Y013509D01*
X028629Y013735D01*
X028542Y013945D01*
X028382Y014105D01*
X028341Y014122D01*
X028382Y014139D01*
X028542Y014299D01*
X028629Y014509D01*
X028629Y014735D01*
X028542Y014945D01*
X028382Y015105D01*
X028172Y015192D01*
X027946Y015192D01*
X027736Y015105D01*
X027576Y014945D01*
X027489Y014735D01*
X027489Y014509D01*
X027576Y014299D01*
X027736Y014139D01*
X027777Y014122D01*
X027736Y014105D01*
X027576Y013945D01*
X027489Y013735D01*
X027489Y013509D01*
X027576Y013299D01*
X027736Y013139D01*
X027946Y013052D01*
X028172Y013052D01*
X028382Y013139D01*
X028546Y013308D02*
X033743Y013308D01*
X033743Y013466D02*
X028611Y013466D01*
X028629Y013625D02*
X033616Y013625D01*
X034045Y014100D02*
X034087Y014100D01*
X034087Y014259D02*
X033869Y014259D01*
X034087Y014417D02*
X032267Y014417D01*
X031947Y014663D02*
X031799Y014811D01*
X030963Y014811D01*
X030815Y014959D01*
X030578Y014576D02*
X028629Y014576D01*
X028629Y014734D02*
X029990Y014734D01*
X029831Y014893D02*
X028564Y014893D01*
X028436Y015051D02*
X029673Y015051D01*
X029514Y015210D02*
X026267Y015210D01*
X026249Y015368D02*
X029356Y015368D01*
X029197Y015527D02*
X026688Y015527D01*
X026281Y015527D02*
X026184Y015527D01*
X026247Y015051D02*
X027682Y015051D01*
X027554Y014893D02*
X026181Y014893D01*
X026024Y014734D02*
X027489Y014734D01*
X027489Y014576D02*
X026140Y014576D01*
X026229Y014417D02*
X027527Y014417D01*
X027616Y014259D02*
X026267Y014259D01*
X026267Y014100D02*
X027731Y014100D01*
X027574Y013942D02*
X026202Y013942D01*
X026073Y013783D02*
X027509Y013783D01*
X027489Y013625D02*
X025279Y013625D01*
X025279Y013783D02*
X025320Y013783D01*
X025279Y013466D02*
X027507Y013466D01*
X027572Y013308D02*
X025279Y013308D01*
X025279Y013149D02*
X027726Y013149D01*
X028609Y013783D02*
X031932Y013783D01*
X031922Y013793D02*
X031922Y013793D01*
X031773Y013942D02*
X028544Y013942D01*
X028387Y014100D02*
X031650Y014100D01*
X031627Y014259D02*
X028502Y014259D01*
X028591Y014417D02*
X031627Y014417D01*
X031766Y013949D02*
X031766Y013949D01*
X030925Y012515D02*
X033743Y012515D01*
X033743Y012357D02*
X031084Y012357D01*
X031105Y012198D02*
X033743Y012198D01*
X033743Y012040D02*
X031105Y012040D01*
X031014Y011881D02*
X033743Y011881D01*
X033743Y011723D02*
X030856Y011723D01*
X030479Y011723D02*
X029281Y011723D01*
X029039Y011564D02*
X033743Y011564D01*
X033743Y011406D02*
X029039Y011406D01*
X028920Y011247D02*
X031651Y011247D01*
X032046Y011247D02*
X033743Y011247D01*
X033743Y011089D02*
X032204Y011089D01*
X032287Y010930D02*
X033743Y010930D01*
X033743Y010772D02*
X032287Y010772D01*
X032256Y010613D02*
X033743Y010613D01*
X033743Y010455D02*
X032098Y010455D01*
X031848Y010825D02*
X028846Y010825D01*
X028600Y011071D01*
X028600Y011563D01*
X028162Y011564D02*
X026745Y011564D01*
X026724Y011406D02*
X028162Y011406D01*
X028280Y011247D02*
X026653Y011247D01*
X026471Y011089D02*
X028280Y011089D01*
X028606Y010613D02*
X020426Y010613D01*
X020336Y010455D02*
X031599Y010455D01*
X033743Y010296D02*
X020178Y010296D01*
X019885Y010138D02*
X033743Y010138D01*
X034407Y010283D02*
X034407Y015303D01*
X034555Y015451D01*
X034555Y017124D01*
X033965Y017715D01*
X034078Y017112D02*
X034115Y017112D01*
X035519Y016161D02*
X035559Y016161D01*
X035559Y016002D02*
X035519Y016002D01*
X035519Y015844D02*
X035559Y015844D01*
X035559Y015685D02*
X035519Y015685D01*
X035519Y015527D02*
X035559Y015527D01*
X035559Y015368D02*
X035519Y015368D01*
X036050Y015051D02*
X034727Y015051D01*
X034727Y014893D02*
X036050Y014893D01*
X036050Y014734D02*
X034727Y014734D01*
X034727Y014576D02*
X036050Y014576D01*
X036050Y014417D02*
X034727Y014417D01*
X034727Y014259D02*
X035137Y014259D01*
X035014Y014100D02*
X034727Y014100D01*
X034727Y013942D02*
X034949Y013942D01*
X034949Y013783D02*
X034727Y013783D01*
X034727Y013625D02*
X034984Y013625D01*
X035066Y013466D02*
X034727Y013466D01*
X034727Y013308D02*
X035251Y013308D01*
X034727Y013149D02*
X036050Y013149D01*
X036050Y012991D02*
X034727Y012991D01*
X034727Y012832D02*
X036050Y012832D01*
X036050Y012674D02*
X034727Y012674D01*
X034727Y012515D02*
X036050Y012515D01*
X036040Y012357D02*
X036050Y012357D01*
X035461Y012357D02*
X035421Y012357D01*
X035421Y012198D02*
X035461Y012198D01*
X035461Y012040D02*
X035421Y012040D01*
X034842Y012357D02*
X034727Y012357D01*
X035828Y013308D02*
X036050Y013308D01*
X036050Y013466D02*
X036013Y013466D01*
X036050Y014259D02*
X035942Y014259D01*
X034407Y010283D02*
X034711Y009980D01*
X035441Y009980D01*
X035343Y009102D02*
X034211Y009102D01*
X035343Y009102D02*
X035441Y009004D01*
X035441Y008980D01*
X035637Y003956D02*
X036050Y003956D01*
X036050Y003798D02*
X035968Y003798D01*
X030350Y003956D02*
X009211Y003956D01*
X009211Y003798D02*
X030192Y003798D01*
X029722Y003639D02*
X029365Y003639D01*
X029510Y003481D02*
X029576Y003481D01*
X029630Y002847D02*
X029457Y002847D01*
X029226Y002688D02*
X029860Y002688D01*
X028860Y002688D02*
X026683Y002688D01*
X026913Y002847D02*
X027715Y002847D01*
X027602Y003005D02*
X027005Y003005D01*
X027040Y003164D02*
X027563Y003164D01*
X027563Y003217D02*
X028023Y003217D01*
X028023Y003677D01*
X028006Y003677D01*
X027931Y003665D01*
X027859Y003642D01*
X027792Y003607D01*
X027731Y003563D01*
X027677Y003510D01*
X027633Y003448D01*
X027598Y003381D01*
X027575Y003309D01*
X027563Y003235D01*
X027563Y003217D01*
X027579Y003322D02*
X027033Y003322D01*
X026967Y003481D02*
X027656Y003481D01*
X027854Y003639D02*
X026821Y003639D01*
X026179Y003639D02*
X025821Y003639D01*
X025967Y003481D02*
X026033Y003481D01*
X026087Y002847D02*
X025913Y002847D01*
X025683Y002688D02*
X026317Y002688D01*
X028023Y002847D02*
X028063Y002847D01*
X028063Y003005D02*
X028023Y003005D01*
X028023Y003164D02*
X028063Y003164D01*
X028043Y003197D02*
X028043Y003213D01*
X026706Y004550D01*
X028023Y003639D02*
X028063Y003639D01*
X028063Y003481D02*
X028023Y003481D01*
X028023Y003322D02*
X028063Y003322D01*
X028233Y003639D02*
X028722Y003639D01*
X028576Y003481D02*
X028430Y003481D01*
X028507Y003322D02*
X028511Y003322D01*
X028484Y003005D02*
X028538Y003005D01*
X028630Y002847D02*
X028372Y002847D01*
X022335Y004115D02*
X022006Y004115D01*
X022165Y004273D02*
X022176Y004273D01*
X021250Y004115D02*
X021006Y004115D01*
X020250Y004115D02*
X020006Y004115D01*
X019250Y004115D02*
X019006Y004115D01*
X018250Y004115D02*
X014703Y004115D01*
X014861Y004273D02*
X018091Y004273D01*
X018088Y004432D02*
X014889Y004432D01*
X014889Y004590D02*
X018088Y004590D01*
X018113Y004749D02*
X014840Y004749D01*
X014681Y004907D02*
X018271Y004907D01*
X018299Y005066D02*
X014739Y005066D01*
X014897Y005224D02*
X018140Y005224D01*
X018088Y005383D02*
X014949Y005383D01*
X014949Y005541D02*
X018088Y005541D01*
X018088Y005700D02*
X014949Y005700D01*
X014815Y005858D02*
X018222Y005858D01*
X014409Y005500D02*
X014409Y006315D01*
X014089Y006175D02*
X009211Y006175D01*
X009211Y006017D02*
X010162Y006017D01*
X010004Y005858D02*
X009211Y005858D01*
X009211Y005700D02*
X009869Y005700D01*
X009869Y005541D02*
X009211Y005541D01*
X009211Y005383D02*
X009869Y005383D01*
X009922Y005224D02*
X009211Y005224D01*
X009211Y005066D02*
X010080Y005066D01*
X010053Y004907D02*
X009211Y004907D01*
X009211Y004749D02*
X009894Y004749D01*
X009869Y004590D02*
X009211Y004590D01*
X009211Y004432D02*
X009869Y004432D01*
X009873Y004273D02*
X009211Y004273D01*
X009211Y004115D02*
X010031Y004115D01*
X010788Y004115D02*
X011031Y004115D01*
X011788Y004115D02*
X012031Y004115D01*
X012788Y004115D02*
X013031Y004115D01*
X013788Y004115D02*
X014116Y004115D01*
X013958Y004273D02*
X013946Y004273D01*
X014389Y004273D02*
X014429Y004273D01*
X014429Y004115D02*
X014389Y004115D01*
X014389Y004432D02*
X014429Y004432D01*
X014004Y005858D02*
X013815Y005858D01*
X013657Y006017D02*
X014089Y006017D01*
X013938Y006334D02*
X009211Y006334D01*
X009211Y006492D02*
X013780Y006492D01*
X013621Y006651D02*
X009211Y006651D01*
X009211Y006809D02*
X011445Y006809D01*
X011287Y006968D02*
X009211Y006968D01*
X009211Y007126D02*
X011128Y007126D01*
X010970Y007285D02*
X009211Y007285D01*
X009211Y007443D02*
X010811Y007443D01*
X010653Y007602D02*
X009211Y007602D01*
X009211Y007760D02*
X010494Y007760D01*
X010336Y007919D02*
X009211Y007919D01*
X009211Y008077D02*
X010177Y008077D01*
X010019Y008236D02*
X009211Y008236D01*
X009211Y008394D02*
X009860Y008394D01*
X009702Y008553D02*
X009211Y008553D01*
X009211Y008711D02*
X009543Y008711D01*
X009481Y008870D02*
X009211Y008870D01*
X009211Y009028D02*
X009481Y009028D01*
X009481Y009187D02*
X009211Y009187D01*
X009211Y009345D02*
X009481Y009345D01*
X009481Y009504D02*
X009211Y009504D01*
X009211Y009662D02*
X009481Y009662D01*
X009481Y009821D02*
X009211Y009821D01*
X009211Y009979D02*
X009481Y009979D01*
X009481Y010138D02*
X009211Y010138D01*
X009211Y010296D02*
X009481Y010296D01*
X009481Y010455D02*
X009211Y010455D01*
X009211Y010613D02*
X009481Y010613D01*
X009514Y010772D02*
X009211Y010772D01*
X009211Y010930D02*
X009651Y010930D01*
X009809Y011089D02*
X009211Y011089D01*
X009211Y011247D02*
X009968Y011247D01*
X010126Y011406D02*
X009211Y011406D01*
X009211Y011564D02*
X010285Y011564D01*
X010443Y011723D02*
X009211Y011723D01*
X009211Y011881D02*
X010602Y011881D01*
X011031Y011406D02*
X011436Y011406D01*
X011282Y011247D02*
X010873Y011247D01*
X010714Y011089D02*
X011282Y011089D01*
X011127Y010930D02*
X010556Y010930D01*
X010397Y010772D02*
X010969Y010772D01*
X010867Y010613D02*
X010239Y010613D01*
X010121Y010455D02*
X010859Y010455D01*
X010818Y010296D02*
X010121Y010296D01*
X010121Y010138D02*
X010741Y010138D01*
X010741Y009979D02*
X010121Y009979D01*
X010121Y009821D02*
X010776Y009821D01*
X010935Y009662D02*
X010121Y009662D01*
X011179Y010037D02*
X011179Y010530D01*
X011720Y011071D01*
X012041Y010772D02*
X016333Y010772D01*
X016491Y010930D02*
X012159Y010930D01*
X012159Y011089D02*
X019731Y011089D01*
X020405Y011406D02*
X012005Y011406D01*
X012159Y011247D02*
X020495Y011247D01*
X020838Y011247D02*
X020878Y011247D01*
X020858Y011185D02*
X021071Y010972D01*
X020858Y011185D02*
X020858Y011563D01*
X020838Y011564D02*
X013946Y011564D01*
X013960Y011579D02*
X013960Y011579D01*
X014104Y011723D02*
X020405Y011723D01*
X020498Y011881D02*
X014263Y011881D01*
X013833Y012357D02*
X005739Y012357D01*
X005782Y012198D02*
X008866Y012198D01*
X008866Y012040D02*
X005803Y012040D01*
X005803Y011881D02*
X008866Y011881D01*
X008866Y011723D02*
X005773Y011723D01*
X005731Y011564D02*
X008866Y011564D01*
X008866Y011406D02*
X005642Y011406D01*
X005525Y011247D02*
X008866Y011247D01*
X008866Y011089D02*
X005355Y011089D01*
X005019Y010930D02*
X008866Y010930D01*
X008866Y010772D02*
X004243Y010772D01*
X004402Y010930D02*
X004406Y010930D01*
X004085Y010613D02*
X008866Y010613D01*
X008866Y010455D02*
X004051Y010455D01*
X004051Y010296D02*
X008866Y010296D01*
X008866Y010138D02*
X004051Y010138D01*
X004051Y009979D02*
X008866Y009979D01*
X008866Y009821D02*
X006318Y009821D01*
X006314Y009823D02*
X006037Y009897D01*
X005750Y009897D01*
X005473Y009823D01*
X005224Y009679D01*
X005021Y009476D01*
X004878Y009228D01*
X004804Y008951D01*
X004804Y008664D01*
X004878Y008386D01*
X005021Y008138D01*
X005224Y007935D01*
X005473Y007791D01*
X005750Y007717D01*
X006037Y007717D01*
X006314Y007791D01*
X006563Y007935D01*
X006766Y008138D01*
X006909Y008386D01*
X006984Y008664D01*
X006984Y008951D01*
X006909Y009228D01*
X006766Y009476D01*
X006563Y009679D01*
X006314Y009823D01*
X006580Y009662D02*
X008866Y009662D01*
X008866Y009504D02*
X006739Y009504D01*
X006842Y009345D02*
X008866Y009345D01*
X008866Y009187D02*
X006920Y009187D01*
X006963Y009028D02*
X008866Y009028D01*
X008866Y008870D02*
X006984Y008870D01*
X006984Y008711D02*
X008866Y008711D01*
X008866Y008553D02*
X006954Y008553D01*
X006911Y008394D02*
X008866Y008394D01*
X008866Y008236D02*
X006822Y008236D01*
X006705Y008077D02*
X008866Y008077D01*
X008866Y007919D02*
X006535Y007919D01*
X006198Y007760D02*
X008866Y007760D01*
X008866Y007602D02*
X005599Y007602D01*
X005590Y007760D02*
X005451Y007760D01*
X005253Y007919D02*
X005227Y007919D01*
X005082Y008077D02*
X004343Y008077D01*
X004460Y008236D02*
X004965Y008236D01*
X004876Y008394D02*
X004549Y008394D01*
X004592Y008553D02*
X004833Y008553D01*
X004804Y008711D02*
X004621Y008711D01*
X004621Y008870D02*
X004804Y008870D01*
X004824Y009028D02*
X004601Y009028D01*
X004558Y009187D02*
X004867Y009187D01*
X004946Y009345D02*
X004479Y009345D01*
X004376Y009504D02*
X005049Y009504D01*
X005207Y009662D02*
X004218Y009662D01*
X004051Y009821D02*
X005469Y009821D01*
X003652Y011723D02*
X002352Y011723D01*
X002352Y011881D02*
X003623Y011881D01*
X003623Y012040D02*
X002352Y012040D01*
X002352Y012198D02*
X003644Y012198D01*
X003597Y012357D02*
X002352Y012357D01*
X002352Y012515D02*
X003438Y012515D01*
X003280Y012674D02*
X002352Y012674D01*
X002352Y012832D02*
X003074Y012832D01*
X002826Y012991D02*
X002352Y012991D01*
X002352Y013149D02*
X002668Y013149D01*
X002573Y013308D02*
X002352Y013308D01*
X002352Y013466D02*
X002500Y013466D01*
X002457Y013625D02*
X002352Y013625D01*
X002352Y013783D02*
X002441Y013783D01*
X002441Y013942D02*
X002352Y013942D01*
X002352Y014100D02*
X002476Y014100D01*
X002522Y014259D02*
X002352Y014259D01*
X002352Y014417D02*
X002614Y014417D01*
X002739Y014576D02*
X002352Y014576D01*
X002352Y014734D02*
X002923Y014734D01*
X003011Y014893D02*
X002352Y014893D01*
X002352Y015051D02*
X003011Y015051D01*
X003011Y015210D02*
X002352Y015210D01*
X002352Y015368D02*
X003011Y015368D01*
X003011Y015527D02*
X002352Y015527D01*
X002352Y015685D02*
X003011Y015685D01*
X003011Y015844D02*
X002352Y015844D01*
X002352Y016002D02*
X003046Y016002D01*
X003142Y016161D02*
X002352Y016161D01*
X002352Y016319D02*
X003300Y016319D01*
X003459Y016478D02*
X002352Y016478D01*
X002352Y016636D02*
X003617Y016636D01*
X003638Y016795D02*
X002352Y016795D01*
X002352Y016953D02*
X003623Y016953D01*
X003623Y017112D02*
X002352Y017112D01*
X002352Y017270D02*
X003658Y017270D01*
X003545Y017429D02*
X002352Y017429D01*
X002352Y017587D02*
X003386Y017587D01*
X003228Y017746D02*
X002352Y017746D01*
X002352Y017904D02*
X002984Y017904D01*
X002774Y018063D02*
X002352Y018063D01*
X002352Y018221D02*
X002634Y018221D01*
X002542Y018380D02*
X002352Y018380D01*
X002352Y018538D02*
X002486Y018538D01*
X002443Y018697D02*
X002352Y018697D01*
X002352Y018855D02*
X002441Y018855D01*
X002448Y019014D02*
X002352Y019014D01*
X002352Y019172D02*
X002490Y019172D01*
X002552Y019331D02*
X002352Y019331D01*
X002352Y019489D02*
X002644Y019489D01*
X002791Y019648D02*
X002352Y019648D01*
X002352Y019806D02*
X003014Y019806D01*
X002352Y019965D02*
X008149Y019965D01*
X008086Y020123D02*
X002352Y020123D01*
X002352Y020282D02*
X008086Y020282D01*
X008131Y020440D02*
X002352Y020440D01*
X002352Y020599D02*
X008237Y020599D01*
X008343Y020757D02*
X002352Y020757D01*
X002352Y020916D02*
X008171Y020916D01*
X008104Y021074D02*
X005524Y021074D01*
X004688Y021074D02*
X002352Y021074D01*
X002352Y021233D02*
X002757Y021233D01*
X002814Y021176D02*
X003024Y021089D01*
X003252Y021089D01*
X003462Y021176D01*
X003623Y021337D01*
X003710Y021548D01*
X003710Y021775D01*
X003623Y021985D01*
X003462Y022146D01*
X003252Y022234D01*
X003024Y022234D01*
X002814Y022146D01*
X002653Y021985D01*
X002566Y021775D01*
X002566Y021548D01*
X002653Y021337D01*
X002814Y021176D01*
X002630Y021391D02*
X002352Y021391D01*
X002352Y021550D02*
X002566Y021550D01*
X002566Y021708D02*
X002352Y021708D01*
X002352Y021867D02*
X002604Y021867D01*
X002692Y022025D02*
X002352Y022025D01*
X002352Y022184D02*
X002903Y022184D01*
X003372Y022184D02*
X004642Y022184D01*
X004544Y022025D02*
X003583Y022025D01*
X003672Y021867D02*
X004468Y021867D01*
X004423Y021708D02*
X003710Y021708D01*
X003710Y021550D02*
X004423Y021550D01*
X004463Y021391D02*
X003645Y021391D01*
X003518Y021233D02*
X004530Y021233D01*
X004509Y022342D02*
X002352Y022342D01*
X002352Y022501D02*
X004444Y022501D01*
X004423Y022659D02*
X002352Y022659D01*
X002352Y022818D02*
X004423Y022818D01*
X004488Y022976D02*
X003493Y022976D01*
X003557Y023003D02*
X003765Y023211D01*
X003878Y023483D01*
X003878Y023777D01*
X003765Y024049D01*
X003557Y024257D01*
X003285Y024370D01*
X002991Y024370D01*
X002719Y024257D01*
X002510Y024049D01*
X002398Y023777D01*
X002398Y023483D01*
X002510Y023211D01*
X002719Y023003D01*
X002991Y022890D01*
X003285Y022890D01*
X003557Y023003D01*
X003689Y023135D02*
X004590Y023135D01*
X004634Y023293D02*
X003799Y023293D01*
X003865Y023452D02*
X004561Y023452D01*
X004534Y023610D02*
X003878Y023610D01*
X003878Y023769D02*
X004544Y023769D01*
X004610Y023927D02*
X003816Y023927D01*
X003729Y024086D02*
X004630Y024086D01*
X004504Y024244D02*
X003570Y024244D01*
X003252Y025026D02*
X003024Y025026D01*
X002814Y025113D01*
X002653Y025274D01*
X002566Y025485D01*
X002566Y025712D01*
X002653Y025923D01*
X002814Y026083D01*
X003024Y026171D01*
X003252Y026171D01*
X003462Y026083D01*
X003623Y025923D01*
X003710Y025712D01*
X003710Y025485D01*
X003623Y025274D01*
X003462Y025113D01*
X003252Y025026D01*
X003277Y025037D02*
X004602Y025037D01*
X004583Y025195D02*
X003544Y025195D01*
X003656Y025354D02*
X004485Y025354D01*
X004423Y025512D02*
X003710Y025512D01*
X003710Y025671D02*
X004423Y025671D01*
X004446Y025829D02*
X003661Y025829D01*
X003558Y025988D02*
X004512Y025988D01*
X004649Y026146D02*
X003311Y026146D01*
X002965Y026146D02*
X002352Y026146D01*
X002352Y025988D02*
X002718Y025988D01*
X002614Y025829D02*
X002352Y025829D01*
X002352Y025671D02*
X002566Y025671D01*
X002566Y025512D02*
X002352Y025512D01*
X002352Y025354D02*
X002620Y025354D01*
X002732Y025195D02*
X002352Y025195D01*
X002352Y025037D02*
X002999Y025037D01*
X002352Y024878D02*
X004493Y024878D01*
X004427Y024720D02*
X002352Y024720D01*
X002352Y024561D02*
X004423Y024561D01*
X004438Y024403D02*
X002352Y024403D01*
X002352Y024244D02*
X002705Y024244D01*
X002547Y024086D02*
X002352Y024086D01*
X002352Y023927D02*
X002460Y023927D01*
X002398Y023769D02*
X002352Y023769D01*
X002352Y023610D02*
X002398Y023610D01*
X002411Y023452D02*
X002352Y023452D01*
X002352Y023293D02*
X002476Y023293D01*
X002587Y023135D02*
X002352Y023135D01*
X002352Y022976D02*
X002782Y022976D01*
X005579Y023293D02*
X012902Y023293D01*
X012902Y023135D02*
X005622Y023135D01*
X005725Y022976D02*
X012902Y022976D01*
X012902Y022818D02*
X005789Y022818D01*
X005652Y023452D02*
X012902Y023452D01*
X012902Y023610D02*
X005678Y023610D01*
X005668Y023769D02*
X012902Y023769D01*
X012902Y023927D02*
X005602Y023927D01*
X005583Y024086D02*
X012902Y024086D01*
X012902Y024244D02*
X005709Y024244D01*
X005774Y024403D02*
X012902Y024403D01*
X012140Y024561D02*
X005789Y024561D01*
X005785Y024720D02*
X011982Y024720D01*
X011823Y024878D02*
X005720Y024878D01*
X005610Y025037D02*
X011665Y025037D01*
X011506Y025195D02*
X005629Y025195D01*
X005728Y025354D02*
X011237Y025354D01*
X011135Y025512D02*
X005789Y025512D01*
X005789Y025671D02*
X011135Y025671D01*
X011145Y025829D02*
X005766Y025829D01*
X005701Y025988D02*
X011303Y025988D01*
X012796Y026146D02*
X005564Y026146D01*
X004593Y026780D02*
X003446Y026780D01*
X003614Y026939D02*
X004489Y026939D01*
X004423Y027097D02*
X003685Y027097D01*
X003710Y027256D02*
X004423Y027256D01*
X004442Y027414D02*
X003698Y027414D01*
X003632Y027573D02*
X004508Y027573D01*
X004639Y027731D02*
X003487Y027731D01*
X008955Y022659D02*
X012902Y022659D01*
X010675Y020274D02*
X008626Y018224D01*
X009166Y018221D02*
X012902Y018221D01*
X012902Y018063D02*
X009143Y018063D01*
X009069Y017904D02*
X012902Y017904D01*
X012902Y017746D02*
X008881Y017746D01*
X009234Y018380D02*
X012902Y018380D01*
X012902Y018538D02*
X009392Y018538D01*
X009551Y018697D02*
X012902Y018697D01*
X012902Y018855D02*
X009709Y018855D01*
X009868Y019014D02*
X012902Y019014D01*
X012902Y019172D02*
X010026Y019172D01*
X010185Y019331D02*
X012902Y019331D01*
X012902Y019489D02*
X010343Y019489D01*
X010502Y019648D02*
X012902Y019648D01*
X012902Y019806D02*
X010660Y019806D01*
X010675Y020274D02*
X015805Y020274D01*
X015707Y021455D02*
X009856Y021455D01*
X008626Y020224D01*
X008281Y019806D02*
X006412Y019806D01*
X006634Y019648D02*
X008286Y019648D01*
X008151Y019489D02*
X006781Y019489D01*
X006873Y019331D02*
X008086Y019331D01*
X008086Y019172D02*
X006935Y019172D01*
X005376Y019806D02*
X004049Y019806D01*
X004272Y019648D02*
X005153Y019648D01*
X005006Y019489D02*
X004419Y019489D01*
X004511Y019331D02*
X004915Y019331D01*
X004853Y019172D02*
X004573Y019172D01*
X004615Y019014D02*
X004810Y019014D01*
X004804Y018855D02*
X004621Y018855D01*
X004620Y018697D02*
X004805Y018697D01*
X004848Y018538D02*
X004577Y018538D01*
X004521Y018380D02*
X004905Y018380D01*
X004996Y018221D02*
X004429Y018221D01*
X004381Y018063D02*
X004482Y018063D01*
X004944Y018063D02*
X005136Y018063D01*
X005320Y017904D02*
X005346Y017904D01*
X006502Y014734D02*
X018979Y014734D01*
X018979Y014576D02*
X006686Y014576D01*
X006811Y014417D02*
X018979Y014417D01*
X018979Y014259D02*
X006903Y014259D01*
X006949Y014100D02*
X018979Y014100D01*
X018979Y013942D02*
X006984Y013942D01*
X006984Y013783D02*
X018979Y013783D01*
X018979Y013625D02*
X006968Y013625D01*
X006926Y013466D02*
X018830Y013466D01*
X018807Y013876D02*
X018758Y013876D01*
X019299Y013482D02*
X018856Y013039D01*
X014969Y013039D01*
X013992Y012515D02*
X005660Y012515D01*
X003565Y011564D02*
X002352Y011564D01*
X002352Y011406D02*
X003406Y011406D01*
X003248Y011247D02*
X002352Y011247D01*
X002352Y011089D02*
X003090Y011089D01*
X003025Y010930D02*
X002352Y010930D01*
X002352Y010772D02*
X003011Y010772D01*
X003011Y010613D02*
X002352Y010613D01*
X002352Y010455D02*
X003011Y010455D01*
X003011Y010296D02*
X002352Y010296D01*
X002352Y010138D02*
X003011Y010138D01*
X003011Y009979D02*
X002352Y009979D01*
X002352Y009821D02*
X003011Y009821D01*
X002845Y009662D02*
X002352Y009662D01*
X002352Y009504D02*
X002687Y009504D01*
X002584Y009345D02*
X002352Y009345D01*
X002352Y009187D02*
X002505Y009187D01*
X002462Y009028D02*
X002352Y009028D01*
X002352Y008870D02*
X002441Y008870D01*
X002441Y008711D02*
X002352Y008711D01*
X002352Y008553D02*
X002471Y008553D01*
X002514Y008394D02*
X002352Y008394D01*
X002352Y008236D02*
X002603Y008236D01*
X002720Y008077D02*
X002352Y008077D01*
X002352Y007919D02*
X002890Y007919D01*
X003174Y007760D02*
X002352Y007760D01*
X002352Y007602D02*
X003332Y007602D01*
X003491Y007443D02*
X002352Y007443D01*
X002352Y007285D02*
X003649Y007285D01*
X003630Y007126D02*
X002352Y007126D01*
X002352Y006968D02*
X003623Y006968D01*
X003624Y006809D02*
X002352Y006809D01*
X002352Y006651D02*
X003666Y006651D01*
X003722Y006492D02*
X002352Y006492D01*
X002352Y006334D02*
X003814Y006334D01*
X003953Y006175D02*
X002352Y006175D01*
X002352Y006017D02*
X004161Y006017D01*
X005264Y006017D02*
X008866Y006017D01*
X008866Y006175D02*
X005473Y006175D01*
X005611Y006334D02*
X008866Y006334D01*
X008866Y006492D02*
X005703Y006492D01*
X005759Y006651D02*
X008866Y006651D01*
X008866Y006809D02*
X005802Y006809D01*
X005803Y006968D02*
X008866Y006968D01*
X008866Y007126D02*
X005796Y007126D01*
X005753Y007285D02*
X008866Y007285D01*
X008866Y007443D02*
X005690Y007443D01*
X008866Y005858D02*
X002352Y005858D01*
X002352Y005700D02*
X008866Y005700D01*
X008866Y005541D02*
X002352Y005541D01*
X002352Y005383D02*
X008866Y005383D01*
X008866Y005224D02*
X002352Y005224D01*
X002352Y005066D02*
X008866Y005066D01*
X008866Y004907D02*
X002352Y004907D01*
X002352Y004749D02*
X008866Y004749D01*
X008866Y004590D02*
X002352Y004590D01*
X002352Y004432D02*
X008866Y004432D01*
X008866Y004273D02*
X002352Y004273D01*
X002352Y004115D02*
X008866Y004115D01*
X008866Y003956D02*
X003157Y003956D01*
X003488Y003798D02*
X008866Y003798D01*
X008866Y003639D02*
X003647Y003639D01*
X003741Y003481D02*
X008866Y003481D01*
X008866Y003322D02*
X003807Y003322D01*
X003828Y003164D02*
X008866Y003164D01*
X008866Y003005D02*
X003828Y003005D01*
X003795Y002847D02*
X008866Y002847D01*
X008866Y002688D02*
X003730Y002688D01*
X003618Y002530D02*
X008866Y002530D01*
X010815Y005858D02*
X011004Y005858D01*
X011162Y006017D02*
X010657Y006017D01*
X011657Y006017D02*
X012162Y006017D01*
X012004Y005858D02*
X011815Y005858D01*
X012657Y006017D02*
X013162Y006017D01*
X013004Y005858D02*
X012815Y005858D01*
X014033Y009053D02*
X013049Y010037D01*
X012163Y010037D01*
X011725Y009979D02*
X011617Y009979D01*
X011617Y010138D02*
X011725Y010138D01*
X011803Y010296D02*
X011540Y010296D01*
X011557Y010455D02*
X011961Y010455D01*
X011715Y010613D02*
X016174Y010613D01*
X013487Y010455D02*
X012366Y010455D01*
X011761Y009821D02*
X011582Y009821D01*
X011423Y009662D02*
X011919Y009662D01*
X013243Y010296D02*
X013328Y010296D01*
X015199Y015210D02*
X017592Y015210D01*
X018054Y015210D02*
X018891Y015210D01*
X018732Y015368D02*
X018212Y015368D01*
X018261Y015527D02*
X018574Y015527D01*
X018415Y015685D02*
X018261Y015685D01*
X018257Y015844D02*
X018197Y015844D01*
X018266Y016287D02*
X019299Y015254D01*
X019299Y013482D01*
X020838Y011881D02*
X020878Y011881D01*
X020878Y011723D02*
X020838Y011723D01*
X020838Y011406D02*
X020878Y011406D01*
X022124Y011089D02*
X022592Y011089D01*
X022410Y011247D02*
X022306Y011247D01*
X022304Y011881D02*
X022413Y011881D01*
X022598Y012040D02*
X022119Y012040D01*
X023720Y011723D02*
X023752Y011723D01*
X024565Y011881D02*
X024759Y011881D01*
X024686Y011723D02*
X024658Y011723D01*
X025471Y011089D02*
X025939Y011089D01*
X025757Y011247D02*
X025653Y011247D01*
X026205Y011563D02*
X024959Y012809D01*
X024959Y015549D01*
X025352Y015943D01*
X026484Y015943D01*
X025864Y012357D02*
X028676Y012357D01*
X028654Y012198D02*
X026022Y012198D01*
X026465Y012040D02*
X028654Y012040D01*
X028299Y011881D02*
X026650Y011881D01*
X026723Y011723D02*
X028162Y011723D01*
X032081Y016478D02*
X032198Y016478D01*
X032198Y016636D02*
X031794Y016636D01*
X031794Y016795D02*
X032198Y016795D01*
X032198Y016953D02*
X031794Y016953D01*
X031794Y017112D02*
X032198Y017112D01*
X032198Y017270D02*
X031794Y017270D01*
X031708Y017429D02*
X032198Y017429D01*
X032198Y017587D02*
X031549Y017587D01*
X032816Y023915D02*
X032816Y023915D01*
X032750Y025003D02*
X033113Y025003D01*
X033369Y025259D01*
X033369Y025622D01*
X033221Y025771D01*
X033221Y025899D01*
X033369Y026047D01*
X033369Y026410D01*
X033113Y026666D01*
X032750Y026666D01*
X032493Y026410D01*
X032493Y026047D01*
X032641Y025899D01*
X032641Y025771D01*
X032493Y025622D01*
X032493Y025259D01*
X032750Y025003D01*
X032716Y025037D02*
X032286Y025037D01*
X032286Y025195D02*
X032557Y025195D01*
X032493Y025354D02*
X032286Y025354D01*
X032286Y025512D02*
X032493Y025512D01*
X032541Y025671D02*
X032286Y025671D01*
X032286Y025829D02*
X032641Y025829D01*
X032552Y025988D02*
X032286Y025988D01*
X032286Y026146D02*
X032493Y026146D01*
X032493Y026305D02*
X032286Y026305D01*
X032253Y026463D02*
X032546Y026463D01*
X032705Y026622D02*
X032111Y026622D01*
X031938Y026780D02*
X036050Y026780D01*
X036050Y026622D02*
X033157Y026622D01*
X033316Y026463D02*
X036050Y026463D01*
X036050Y026305D02*
X033369Y026305D01*
X033369Y026146D02*
X036050Y026146D01*
X036050Y025988D02*
X033310Y025988D01*
X033221Y025829D02*
X036050Y025829D01*
X036050Y025671D02*
X033321Y025671D01*
X033369Y025512D02*
X036050Y025512D01*
X036050Y025354D02*
X033369Y025354D01*
X033305Y025195D02*
X036050Y025195D01*
X036050Y025037D02*
X033146Y025037D01*
X031061Y028689D02*
X031110Y028738D01*
X031110Y035087D01*
X031750Y035726D01*
X031069Y035498D02*
X030960Y035498D01*
X030910Y035339D02*
X030889Y035339D01*
X030249Y035339D02*
X030052Y035339D01*
X030052Y035181D02*
X030249Y035181D01*
X030249Y035022D02*
X030052Y035022D01*
X030052Y034864D02*
X030249Y034864D01*
X030249Y034705D02*
X030023Y034705D01*
X029914Y034569D02*
X029914Y034569D01*
X029891Y034547D02*
X030249Y034547D01*
X030249Y034388D02*
X029732Y034388D01*
X029574Y034230D02*
X030249Y034230D01*
X030249Y034071D02*
X029415Y034071D01*
X029285Y033913D02*
X030249Y033913D01*
X030249Y033754D02*
X029265Y033754D01*
X029107Y033596D02*
X030249Y033596D01*
X030249Y033437D02*
X027522Y033437D01*
X027522Y033596D02*
X028586Y033596D01*
X028427Y033754D02*
X027641Y033754D01*
X027661Y033913D02*
X028408Y033913D01*
X028408Y034071D02*
X027661Y034071D01*
X028287Y034496D02*
X028878Y035087D01*
X028378Y035291D02*
X028336Y035392D01*
X028184Y035544D01*
X027985Y035627D01*
X027771Y035627D01*
X027572Y035544D01*
X027420Y035392D01*
X027378Y035291D01*
X027336Y035392D01*
X027184Y035544D01*
X026985Y035627D01*
X026771Y035627D01*
X026572Y035544D01*
X026420Y035392D01*
X026378Y035291D01*
X026336Y035392D01*
X026184Y035544D01*
X025985Y035627D01*
X025771Y035627D01*
X025572Y035544D01*
X025420Y035392D01*
X025343Y035207D01*
X025323Y035271D01*
X025288Y035338D01*
X025244Y035399D01*
X025191Y035453D01*
X025130Y035497D01*
X025062Y035531D01*
X024990Y035555D01*
X024916Y035567D01*
X024898Y035567D01*
X024898Y035107D01*
X024858Y035107D01*
X024858Y035567D01*
X024840Y035567D01*
X024766Y035555D01*
X024694Y035531D01*
X024626Y035497D01*
X024565Y035453D01*
X024512Y035399D01*
X024467Y035338D01*
X024433Y035271D01*
X024410Y035199D01*
X024403Y035159D01*
X023835Y035728D01*
X024110Y035728D01*
X024386Y036004D01*
X024662Y035728D01*
X025110Y035728D01*
X025386Y036004D01*
X025662Y035728D01*
X026110Y035728D01*
X026426Y036044D01*
X026426Y036049D01*
X026687Y035788D01*
X026866Y035788D01*
X026866Y036248D01*
X026426Y036248D01*
X026426Y036288D01*
X026866Y036288D01*
X026866Y036248D01*
X026906Y036248D01*
X026906Y035788D01*
X027085Y035788D01*
X027346Y036049D01*
X027346Y036044D01*
X027662Y035728D01*
X028110Y035728D01*
X028386Y036004D01*
X028662Y035728D01*
X029110Y035728D01*
X029412Y036031D01*
X029412Y035208D01*
X029336Y035392D01*
X029184Y035544D01*
X028985Y035627D01*
X028771Y035627D01*
X028572Y035544D01*
X028420Y035392D01*
X028378Y035291D01*
X028358Y035339D02*
X028398Y035339D01*
X028525Y035498D02*
X028231Y035498D01*
X028196Y035815D02*
X028575Y035815D01*
X028417Y035973D02*
X028355Y035973D01*
X028310Y036607D02*
X028462Y036607D01*
X028620Y036766D02*
X028152Y036766D01*
X027620Y036766D02*
X026152Y036766D01*
X026310Y036607D02*
X026546Y036607D01*
X026866Y036607D02*
X026906Y036607D01*
X026906Y036449D02*
X026866Y036449D01*
X026866Y036290D02*
X026906Y036290D01*
X026886Y036268D02*
X026886Y037736D01*
X026878Y037793D01*
X027225Y036607D02*
X027462Y036607D01*
X027417Y035973D02*
X027270Y035973D01*
X027112Y035815D02*
X027575Y035815D01*
X027525Y035498D02*
X027231Y035498D01*
X027358Y035339D02*
X027398Y035339D01*
X026906Y035815D02*
X026866Y035815D01*
X026866Y035973D02*
X026906Y035973D01*
X026906Y036132D02*
X026866Y036132D01*
X026886Y036268D02*
X026681Y036268D01*
X026091Y035677D01*
X025648Y035677D01*
X025057Y035087D01*
X024878Y035087D01*
X024368Y035596D01*
X024368Y035776D01*
X024196Y035815D02*
X024575Y035815D01*
X024417Y035973D02*
X024355Y035973D01*
X024627Y035498D02*
X024065Y035498D01*
X023907Y035656D02*
X029412Y035656D01*
X029412Y035498D02*
X029231Y035498D01*
X029358Y035339D02*
X029412Y035339D01*
X029412Y035815D02*
X029196Y035815D01*
X029355Y035973D02*
X029412Y035973D01*
X029412Y036607D02*
X029310Y036607D01*
X029323Y036766D02*
X029152Y036766D01*
X029165Y036924D02*
X020674Y036924D01*
X020674Y036766D02*
X023620Y036766D01*
X023462Y036607D02*
X020674Y036607D01*
X020674Y036449D02*
X023346Y036449D01*
X023346Y036290D02*
X020674Y036290D01*
X020674Y036132D02*
X023346Y036132D01*
X023433Y035677D02*
X022843Y035677D01*
X022843Y032970D01*
X022646Y032774D01*
X021465Y032774D01*
X021366Y032872D01*
X021268Y032774D01*
X019191Y032774D01*
X019631Y033120D02*
X020928Y033120D01*
X020928Y033279D02*
X019631Y033279D01*
X019621Y033437D02*
X020928Y033437D01*
X021076Y033596D02*
X019542Y033596D01*
X019384Y033754D02*
X022523Y033754D01*
X022523Y033596D02*
X021656Y033596D01*
X021804Y033437D02*
X022523Y033437D01*
X022523Y033279D02*
X021804Y033279D01*
X021804Y033120D02*
X022523Y033120D01*
X022350Y033266D02*
X022350Y034693D01*
X022154Y034890D01*
X022154Y036612D01*
X022400Y036858D01*
X021661Y037596D01*
X021169Y037596D01*
X020674Y037558D02*
X028557Y037558D01*
X028526Y037717D02*
X020674Y037717D01*
X020674Y037875D02*
X028526Y037875D01*
X028526Y038034D02*
X020674Y038034D01*
X020674Y038192D02*
X028526Y038192D01*
X028526Y038351D02*
X020774Y038351D01*
X020322Y039143D02*
X019140Y039143D01*
X019190Y038985D02*
X020164Y038985D01*
X020005Y038826D02*
X019190Y038826D01*
X019131Y038668D02*
X019855Y038668D01*
X019794Y038509D02*
X019007Y038509D01*
X019088Y038065D02*
X019017Y038041D01*
X018949Y038007D01*
X018888Y037963D01*
X018835Y037909D01*
X018790Y037848D01*
X018756Y037781D01*
X018733Y037709D01*
X018721Y037634D01*
X018721Y037616D01*
X019181Y037616D01*
X019181Y037576D01*
X019221Y037576D01*
X019221Y037116D01*
X019239Y037116D01*
X019313Y037128D01*
X019385Y037152D01*
X019452Y037186D01*
X019513Y037230D01*
X019567Y037284D01*
X019611Y037345D01*
X019646Y037412D01*
X019669Y037484D01*
X019681Y037559D01*
X019681Y037576D01*
X019221Y037576D01*
X019221Y037616D01*
X019681Y037616D01*
X019681Y037634D01*
X019669Y037709D01*
X019646Y037781D01*
X019611Y037848D01*
X019567Y037909D01*
X019513Y037963D01*
X019452Y038007D01*
X019385Y038041D01*
X019313Y038065D01*
X019239Y038076D01*
X019221Y038076D01*
X019221Y037616D01*
X019181Y037616D01*
X019181Y038076D01*
X019163Y038076D01*
X019088Y038065D01*
X019002Y038034D02*
X018088Y038034D01*
X018154Y037875D02*
X018810Y037875D01*
X018735Y037717D02*
X018198Y037717D01*
X018198Y037558D02*
X018721Y037558D01*
X018721Y037559D02*
X018733Y037484D01*
X018756Y037412D01*
X018790Y037345D01*
X018835Y037284D01*
X018888Y037230D01*
X018949Y037186D01*
X019017Y037152D01*
X019088Y037128D01*
X019163Y037116D01*
X019181Y037116D01*
X019181Y037576D01*
X018721Y037576D01*
X018721Y037559D01*
X018762Y037400D02*
X018188Y037400D01*
X018122Y037241D02*
X018877Y037241D01*
X019181Y037241D02*
X019221Y037241D01*
X019221Y037400D02*
X019181Y037400D01*
X019181Y037558D02*
X019221Y037558D01*
X019221Y037717D02*
X019181Y037717D01*
X019181Y037875D02*
X019221Y037875D01*
X019221Y038034D02*
X019181Y038034D01*
X019400Y038034D02*
X019794Y038034D01*
X019794Y038192D02*
X017962Y038192D01*
X017777Y038351D02*
X019794Y038351D01*
X019794Y037875D02*
X019592Y037875D01*
X019666Y037717D02*
X019794Y037717D01*
X019794Y037558D02*
X019681Y037558D01*
X019639Y037400D02*
X019794Y037400D01*
X019794Y037241D02*
X019524Y037241D01*
X019794Y037083D02*
X018044Y037083D01*
X017885Y036924D02*
X019794Y036924D01*
X019794Y036766D02*
X018882Y036766D01*
X019084Y036607D02*
X019794Y036607D01*
X019794Y036449D02*
X019163Y036449D01*
X019190Y036290D02*
X019794Y036290D01*
X019794Y036132D02*
X019174Y036132D01*
X019108Y035973D02*
X019794Y035973D01*
X020674Y035973D02*
X022519Y035973D01*
X022404Y035815D02*
X020674Y035815D01*
X020674Y035656D02*
X022404Y035656D01*
X022404Y035498D02*
X020616Y035498D01*
X020469Y035339D02*
X022523Y035339D01*
X022523Y035181D02*
X020311Y035181D01*
X020152Y035022D02*
X022523Y035022D01*
X022523Y034864D02*
X018212Y034864D01*
X018433Y034705D02*
X022523Y034705D01*
X022523Y034547D02*
X018591Y034547D01*
X018750Y034388D02*
X022523Y034388D01*
X022523Y034230D02*
X018908Y034230D01*
X019067Y034071D02*
X022523Y034071D01*
X022523Y033913D02*
X019225Y033913D01*
X018522Y032774D02*
X017390Y033906D01*
X017134Y033906D01*
X016346Y033906D02*
X016346Y032242D01*
X017045Y031543D01*
X017911Y031169D02*
X018492Y031169D01*
X018522Y031199D01*
X018502Y031219D01*
X018502Y031209D01*
X018512Y031199D01*
X018503Y031217D02*
X018503Y031180D01*
X018503Y030968D01*
X018540Y030968D01*
X018540Y031180D01*
X018503Y031180D01*
X018145Y031180D01*
X018145Y031151D01*
X017930Y031151D01*
X017930Y031188D01*
X018367Y031188D01*
X018367Y031217D01*
X018503Y031217D01*
X018503Y031530D01*
X018516Y031530D01*
X018540Y031505D01*
X018540Y031217D01*
X018754Y031217D01*
X018754Y031180D01*
X018540Y031180D01*
X018540Y031217D01*
X018503Y031217D01*
X018503Y031218D02*
X018540Y031218D01*
X018540Y031060D02*
X018503Y031060D01*
X018503Y031377D02*
X018540Y031377D01*
X019102Y031396D02*
X018522Y031976D01*
X018522Y031986D01*
X018502Y031967D01*
X017961Y031967D01*
X017911Y031917D01*
X019191Y031986D02*
X019191Y032094D01*
X019102Y031396D02*
X019102Y031287D01*
X019191Y031199D01*
X021366Y032872D02*
X021366Y033266D01*
X023433Y035677D02*
X024614Y034496D01*
X028287Y034496D01*
X028474Y034230D02*
X028502Y034230D01*
X028632Y034388D02*
X028660Y034388D01*
X028985Y034547D02*
X028986Y034547D01*
X028846Y033955D02*
X029732Y034841D01*
X029732Y036809D01*
X028846Y037695D01*
X028846Y038335D01*
X029093Y038581D01*
X030175Y038581D01*
X030557Y038199D01*
X030557Y038083D01*
X030083Y037875D02*
X030031Y037875D01*
X029922Y037717D02*
X030192Y037717D01*
X029753Y037241D02*
X036050Y037241D01*
X036050Y037083D02*
X029911Y037083D01*
X030031Y036924D02*
X036050Y036924D01*
X036050Y036766D02*
X030052Y036766D01*
X030052Y036607D02*
X036050Y036607D01*
X036050Y036449D02*
X030052Y036449D01*
X030052Y035973D02*
X030196Y035973D01*
X030131Y035815D02*
X030052Y035815D01*
X030052Y035656D02*
X030131Y035656D01*
X030178Y035498D02*
X030052Y035498D01*
X029006Y037083D02*
X020674Y037083D01*
X020674Y037241D02*
X028848Y037241D01*
X028689Y037400D02*
X020674Y037400D01*
X022400Y036858D02*
X024122Y036858D01*
X024368Y036612D01*
X024310Y036607D02*
X024462Y036607D01*
X024620Y036766D02*
X024152Y036766D01*
X024858Y035498D02*
X024898Y035498D01*
X024898Y035339D02*
X024858Y035339D01*
X024858Y035181D02*
X024898Y035181D01*
X024898Y035107D02*
X025338Y035107D01*
X025338Y035067D01*
X024898Y035067D01*
X024898Y035107D01*
X025129Y035498D02*
X025525Y035498D01*
X025398Y035339D02*
X025288Y035339D01*
X025196Y035815D02*
X025575Y035815D01*
X025417Y035973D02*
X025355Y035973D01*
X025310Y036607D02*
X025462Y036607D01*
X025620Y036766D02*
X025152Y036766D01*
X026196Y035815D02*
X026660Y035815D01*
X026502Y035973D02*
X026355Y035973D01*
X026231Y035498D02*
X026525Y035498D01*
X026398Y035339D02*
X026358Y035339D01*
X027534Y033279D02*
X030249Y033279D01*
X030249Y033120D02*
X027661Y033120D01*
X027661Y032962D02*
X030249Y032962D01*
X030249Y032803D02*
X027661Y032803D01*
X029100Y032011D02*
X025397Y032011D01*
X025846Y029950D02*
X013246Y029950D01*
X013246Y029792D02*
X026005Y029792D01*
X026163Y029633D02*
X013246Y029633D01*
X013246Y029475D02*
X026322Y029475D01*
X026480Y029316D02*
X013246Y029316D01*
X013246Y029158D02*
X026639Y029158D01*
X026797Y028999D02*
X013246Y028999D01*
X013246Y028841D02*
X026956Y028841D01*
X027114Y028682D02*
X013246Y028682D01*
X013246Y028524D02*
X027273Y028524D01*
X027375Y028365D02*
X013246Y028365D01*
X013246Y028207D02*
X027375Y028207D01*
X027375Y028048D02*
X013246Y028048D01*
X015707Y021455D02*
X018413Y018748D01*
X017837Y018380D02*
X014412Y018380D01*
X014324Y018538D02*
X017679Y018538D01*
X017520Y018697D02*
X014262Y018697D01*
X014103Y018855D02*
X017362Y018855D01*
X017134Y019043D02*
X013787Y019043D01*
X013669Y018855D02*
X013246Y018855D01*
X013246Y018697D02*
X013510Y018697D01*
X013448Y018538D02*
X013246Y018538D01*
X013246Y018380D02*
X013448Y018380D01*
X013498Y018221D02*
X013246Y018221D01*
X013246Y018063D02*
X013656Y018063D01*
X013982Y017904D02*
X013246Y017904D01*
X013246Y017746D02*
X014140Y017746D01*
X014299Y017587D02*
X013246Y017587D01*
X013246Y017429D02*
X014457Y017429D01*
X014616Y017270D02*
X013246Y017270D01*
X013246Y017112D02*
X014774Y017112D01*
X015184Y016002D02*
X015904Y016002D01*
X016051Y016287D02*
X018266Y016287D01*
X016051Y016287D02*
X013886Y018453D01*
X021465Y021799D02*
X021858Y021406D01*
X030234Y031377D02*
X030249Y031377D01*
X030249Y032328D02*
X029802Y032328D01*
X029643Y032486D02*
X030249Y032486D01*
X030249Y032645D02*
X029485Y032645D01*
X029594Y037400D02*
X036050Y037400D01*
X036050Y037558D02*
X029436Y037558D01*
X030922Y037717D02*
X031192Y037717D01*
X031083Y037875D02*
X031031Y037875D01*
X031594Y038668D02*
X031741Y038668D01*
X031862Y038509D02*
X032252Y038509D01*
X032373Y038668D02*
X032741Y038668D01*
X032862Y038509D02*
X036050Y038509D01*
X036050Y038351D02*
X033006Y038351D01*
X033072Y038192D02*
X036050Y038192D01*
X036050Y038034D02*
X033074Y038034D01*
X033031Y037875D02*
X036050Y037875D01*
X036050Y037717D02*
X032922Y037717D01*
X032192Y037717D02*
X031922Y037717D01*
X032031Y037875D02*
X032083Y037875D01*
X032108Y038351D02*
X032006Y038351D01*
X031604Y038826D02*
X031511Y038826D01*
X031526Y039302D02*
X031588Y039302D01*
X031491Y039460D02*
X031703Y039460D01*
X031428Y039619D02*
X036050Y039619D01*
X036050Y039777D02*
X034809Y039777D01*
X034811Y039778D02*
X035011Y039978D01*
X035120Y040240D01*
X035120Y040524D01*
X035011Y040785D01*
X034811Y040986D01*
X034549Y041094D01*
X034336Y041094D01*
X034464Y041402D01*
X034464Y041763D01*
X034326Y042096D01*
X034071Y042351D01*
X033737Y042489D01*
X033377Y042489D01*
X033043Y042351D01*
X032788Y042096D01*
X032650Y041763D01*
X032650Y041402D01*
X032788Y041069D01*
X033043Y040814D01*
X033377Y040676D01*
X033737Y040676D01*
X033762Y040686D01*
X033695Y040524D01*
X033695Y040240D01*
X033804Y039978D01*
X034004Y039778D01*
X034266Y039669D01*
X034549Y039669D01*
X034811Y039778D01*
X034969Y039936D02*
X036050Y039936D01*
X036050Y040094D02*
X035059Y040094D01*
X035120Y040253D02*
X036050Y040253D01*
X036050Y040411D02*
X035120Y040411D01*
X035101Y040570D02*
X036050Y040570D01*
X036050Y040728D02*
X035035Y040728D01*
X034910Y040887D02*
X036050Y040887D01*
X036050Y041045D02*
X034668Y041045D01*
X034382Y041204D02*
X036050Y041204D01*
X036050Y041362D02*
X034447Y041362D01*
X034464Y041521D02*
X036050Y041521D01*
X036050Y041679D02*
X034464Y041679D01*
X034433Y041838D02*
X036050Y041838D01*
X036050Y041996D02*
X034367Y041996D01*
X034267Y042155D02*
X036050Y042155D01*
X036050Y042313D02*
X034109Y042313D01*
X033780Y042472D02*
X036050Y042472D01*
X036050Y042630D02*
X035943Y042630D01*
X034938Y042630D02*
X033261Y042630D01*
X033327Y042789D02*
X034780Y042789D01*
X033334Y042472D02*
X033115Y042472D01*
X033005Y042313D02*
X029609Y042313D01*
X029767Y042155D02*
X032847Y042155D01*
X032747Y041996D02*
X029867Y041996D01*
X029933Y041838D02*
X032681Y041838D01*
X032650Y041679D02*
X029964Y041679D01*
X029964Y041521D02*
X032650Y041521D01*
X032667Y041362D02*
X029947Y041362D01*
X029882Y041204D02*
X032733Y041204D01*
X032812Y041045D02*
X029802Y041045D01*
X029643Y040887D02*
X032971Y040887D01*
X033251Y040728D02*
X029364Y040728D01*
X028900Y040570D02*
X033714Y040570D01*
X033695Y040411D02*
X028919Y040411D01*
X028919Y040253D02*
X033695Y040253D01*
X033756Y040094D02*
X030957Y040094D01*
X031116Y039936D02*
X033846Y039936D01*
X034006Y039777D02*
X031274Y039777D01*
X032411Y039460D02*
X032703Y039460D01*
X032588Y039302D02*
X032526Y039302D01*
X032511Y038826D02*
X032604Y038826D01*
X033373Y038668D02*
X036050Y038668D01*
X036050Y038826D02*
X033511Y038826D01*
X033574Y038985D02*
X036050Y038985D01*
X036050Y039143D02*
X033574Y039143D01*
X033526Y039302D02*
X036050Y039302D01*
X036050Y039460D02*
X033411Y039460D01*
X032480Y042472D02*
X029280Y042472D01*
X029281Y042630D02*
X032333Y042630D01*
X032268Y042789D02*
X029346Y042789D01*
X028499Y042472D02*
X025672Y042472D01*
X025653Y042518D02*
X025735Y042320D01*
X025735Y042105D01*
X025653Y041907D01*
X025501Y041755D01*
X025302Y041673D01*
X025087Y041673D01*
X024889Y041755D01*
X024737Y041907D01*
X024655Y042105D01*
X024655Y042320D01*
X024737Y042518D01*
X024889Y042670D01*
X025087Y042753D01*
X025302Y042753D01*
X025501Y042670D01*
X025653Y042518D01*
X025541Y042630D02*
X028353Y042630D01*
X028288Y042789D02*
X019350Y042789D01*
X019350Y042630D02*
X022211Y042630D01*
X022080Y042472D02*
X019311Y042472D01*
X019287Y042313D02*
X019245Y042313D01*
X018991Y041996D02*
X018810Y041996D01*
X018941Y041838D02*
X018280Y041838D01*
X018230Y041996D02*
X018411Y041996D01*
X018262Y041521D02*
X018958Y041521D01*
X019029Y041362D02*
X018192Y041362D01*
X018061Y041204D02*
X019159Y041204D01*
X017688Y041204D02*
X017533Y041204D01*
X017533Y041362D02*
X017688Y041362D01*
X017688Y041521D02*
X017533Y041521D01*
X017533Y041679D02*
X013870Y041679D01*
X013712Y041838D02*
X016941Y041838D01*
X016991Y041996D02*
X013553Y041996D01*
X013395Y042155D02*
X017091Y042155D01*
X017287Y042313D02*
X013322Y042313D01*
X014029Y041521D02*
X016958Y041521D01*
X017029Y041362D02*
X014187Y041362D01*
X014346Y041204D02*
X017159Y041204D01*
X016915Y040411D02*
X015138Y040411D01*
X015297Y040253D02*
X016756Y040253D01*
X016598Y040094D02*
X015455Y040094D01*
X015614Y039936D02*
X016439Y039936D01*
X016281Y039777D02*
X015772Y039777D01*
X015931Y039619D02*
X016122Y039619D01*
X016446Y036607D02*
X018216Y036607D01*
X018136Y036449D02*
X016525Y036449D01*
X016552Y036290D02*
X018110Y036290D01*
X018126Y036132D02*
X016536Y036132D01*
X016470Y035973D02*
X018191Y035973D01*
X018417Y036766D02*
X017592Y036766D01*
X019027Y039302D02*
X022086Y039302D01*
X021829Y040094D02*
X022400Y040094D01*
X022714Y040094D02*
X023540Y040094D01*
X023290Y040253D02*
X021987Y040253D01*
X022252Y040411D02*
X023137Y040411D01*
X023071Y040570D02*
X022446Y040570D01*
X022522Y040728D02*
X023009Y040728D01*
X023009Y040887D02*
X022546Y040887D01*
X022528Y041045D02*
X023009Y041045D01*
X023066Y041204D02*
X022460Y041204D01*
X022286Y041362D02*
X023131Y041362D01*
X022946Y041838D02*
X024806Y041838D01*
X024700Y041996D02*
X023052Y041996D01*
X023097Y042155D02*
X024655Y042155D01*
X024655Y042313D02*
X023097Y042313D01*
X023034Y042472D02*
X024718Y042472D01*
X024849Y042630D02*
X022903Y042630D01*
X024246Y041679D02*
X025072Y041679D01*
X025318Y041679D02*
X028150Y041679D01*
X028150Y041521D02*
X024476Y041521D01*
X024621Y041362D02*
X025635Y041362D01*
X025634Y041362D02*
X025562Y041339D01*
X025494Y041304D01*
X025433Y041260D01*
X025380Y041206D01*
X025336Y041145D01*
X025301Y041078D01*
X025278Y041006D01*
X025266Y040931D01*
X025266Y040914D01*
X025726Y040914D01*
X025726Y041374D01*
X025708Y041374D01*
X025634Y041362D01*
X025726Y041362D02*
X025766Y041362D01*
X025766Y041374D02*
X025784Y041374D01*
X025858Y041362D01*
X025930Y041339D01*
X025998Y041304D01*
X026059Y041260D01*
X026112Y041206D01*
X026157Y041145D01*
X026191Y041078D01*
X026214Y041006D01*
X026226Y040931D01*
X026226Y040914D01*
X025766Y040914D01*
X025726Y040914D01*
X025726Y040874D01*
X025266Y040874D01*
X025266Y040856D01*
X025278Y040781D01*
X025301Y040709D01*
X025336Y040642D01*
X025380Y040581D01*
X025433Y040528D01*
X025494Y040483D01*
X025562Y040449D01*
X025634Y040426D01*
X025708Y040414D01*
X025726Y040414D01*
X025726Y040874D01*
X025766Y040874D01*
X025766Y040914D01*
X025766Y041374D01*
X025857Y041362D02*
X028167Y041362D01*
X028233Y041204D02*
X026114Y041204D01*
X026202Y041045D02*
X027946Y041045D01*
X027704Y040887D02*
X025766Y040887D01*
X025766Y040874D02*
X026226Y040874D01*
X026226Y040856D01*
X026214Y040781D01*
X026191Y040709D01*
X026157Y040642D01*
X026112Y040581D01*
X026059Y040528D01*
X025998Y040483D01*
X025930Y040449D01*
X025858Y040426D01*
X025784Y040414D01*
X025766Y040414D01*
X025766Y040874D01*
X025726Y040887D02*
X024743Y040887D01*
X024743Y041045D02*
X025291Y041045D01*
X025378Y041204D02*
X024686Y041204D01*
X024743Y040728D02*
X025295Y040728D01*
X025391Y040570D02*
X024681Y040570D01*
X024615Y040411D02*
X027494Y040411D01*
X027494Y040253D02*
X024462Y040253D01*
X024212Y040094D02*
X025038Y040094D01*
X024792Y039936D02*
X022960Y039936D01*
X023058Y039777D02*
X024694Y039777D01*
X024655Y039619D02*
X023097Y039619D01*
X023094Y039460D02*
X024658Y039460D01*
X024724Y039302D02*
X023028Y039302D01*
X025352Y040094D02*
X027555Y040094D01*
X027645Y039936D02*
X025598Y039936D01*
X025696Y039777D02*
X027805Y039777D01*
X028158Y039302D02*
X025666Y039302D01*
X025732Y039460D02*
X028316Y039460D01*
X028475Y039619D02*
X025735Y039619D01*
X025726Y040570D02*
X025766Y040570D01*
X025766Y040728D02*
X025726Y040728D01*
X025726Y041045D02*
X025766Y041045D01*
X025766Y041204D02*
X025726Y041204D01*
X025584Y041838D02*
X028181Y041838D01*
X028247Y041996D02*
X025690Y041996D01*
X025735Y042155D02*
X028347Y042155D01*
X028505Y042313D02*
X025735Y042313D01*
X026197Y040728D02*
X027579Y040728D01*
X027513Y040570D02*
X026101Y040570D01*
X028608Y039777D02*
X028633Y039777D01*
X028768Y039936D02*
X028792Y039936D01*
X028867Y040011D02*
X028867Y040011D01*
X028859Y040094D02*
X028950Y040094D01*
X030304Y043740D02*
X033311Y043740D01*
X033424Y043898D02*
X030190Y043898D01*
X024468Y035339D02*
X024224Y035339D01*
X024382Y035181D02*
X024407Y035181D01*
X002765Y003956D02*
X002352Y003956D01*
X002352Y003798D02*
X002433Y003798D01*
D34*
X011327Y014516D02*
X018167Y014516D01*
X018807Y013876D01*
X011327Y014516D02*
X007734Y018108D01*
X007734Y018305D01*
X006947Y017518D01*
X007734Y018305D02*
X007734Y023079D01*
X008522Y023866D01*
X008522Y024752D01*
X008522Y028098D01*
X009014Y027606D01*
X011573Y027606D01*
X009407Y030559D02*
X010638Y031789D01*
X010146Y032281D01*
X010146Y036858D01*
X010638Y037350D01*
X013492Y037350D01*
X015461Y035382D01*
X019890Y035382D01*
X020234Y035726D01*
X020234Y038433D01*
X020628Y038827D01*
X028305Y038827D01*
X029240Y039762D01*
X030667Y039762D01*
X031051Y039378D01*
X031051Y039083D01*
X031057Y039083D02*
X031057Y038583D01*
X031557Y038083D01*
X022006Y040894D02*
X021169Y040057D01*
X017183Y040057D01*
X016041Y038915D01*
X016012Y038915D01*
X012882Y042045D01*
X012882Y043531D01*
X011898Y043531D02*
X010520Y043531D01*
X007783Y040795D01*
X005894Y040795D01*
X007685Y038039D02*
X009998Y038039D01*
X007685Y038039D02*
X006750Y037104D01*
X008522Y030559D02*
X009407Y030559D01*
X008522Y030559D02*
X008522Y028098D01*
X014683Y034447D02*
X012882Y036248D01*
X014683Y034447D02*
X018069Y034447D01*
X019191Y033325D01*
X019191Y032774D01*
D35*
X026533Y033020D02*
X026583Y032970D01*
X026533Y033020D02*
X026533Y033955D01*
X027222Y033955D02*
X027222Y032970D01*
D36*
X004713Y016996D02*
X003531Y015815D01*
X003531Y013827D01*
X003531Y013157D01*
X004713Y011976D01*
X003531Y010795D01*
X003531Y008807D01*
X003531Y008138D01*
X004713Y006957D01*
X004713Y016996D02*
X003531Y018177D01*
X003531Y018846D01*
M02*
