G75*
G70*
%OFA0B0*%
%FSLAX24Y24*%
%IPPOS*%
%LPD*%
%AMOC8*
5,1,8,0,0,1.08239X$1,22.5*
%
%ADD10C,0.0220*%
%ADD11C,0.0080*%
%ADD12C,0.0320*%
%ADD13C,0.0060*%
%ADD14C,0.0020*%
%ADD15C,0.0010*%
%ADD16R,0.0075X0.0350*%
%ADD17R,0.0180X0.0300*%
%ADD18R,0.0300X0.0180*%
%ADD19C,0.0030*%
%ADD20C,0.0050*%
%ADD21R,0.0787X0.4252*%
%ADD22C,0.0079*%
%ADD23C,0.0300*%
%ADD24R,0.0300X0.0200*%
%ADD25R,0.0300X0.0400*%
%ADD26R,0.0300X0.0300*%
%ADD27C,0.0039*%
D10*
X006602Y006531D02*
X006602Y006555D01*
X006602Y011551D02*
X006602Y011575D01*
X006602Y016620D02*
X006602Y016644D01*
X008177Y023854D02*
X008177Y023878D01*
X008177Y024740D02*
X008177Y024764D01*
X008177Y027201D02*
X008177Y027225D01*
X008177Y028086D02*
X008177Y028110D01*
X008177Y029760D02*
X008177Y029784D01*
X008177Y030547D02*
X008177Y030571D01*
X018795Y014220D02*
X018819Y014220D01*
D11*
X001681Y010579D02*
X001681Y007035D01*
X003768Y007035D01*
X005618Y007035D02*
X005894Y007035D01*
X005894Y007862D01*
X005894Y009752D02*
X005894Y010579D01*
X001681Y010579D01*
X001681Y012055D02*
X001681Y015598D01*
X005894Y015598D01*
X005894Y014772D01*
X005894Y012882D02*
X005894Y012055D01*
X005618Y012055D01*
X003768Y012055D02*
X001681Y012055D01*
X001681Y017075D02*
X001681Y020618D01*
X005894Y020618D01*
X005894Y019791D01*
X006607Y021251D02*
X004856Y021251D01*
X004006Y021251D02*
X001991Y021251D01*
X001991Y022430D01*
X001991Y024830D01*
X001991Y026009D01*
X005856Y026009D01*
X006606Y026009D02*
X006607Y026009D01*
X006607Y021251D01*
X005894Y017902D02*
X005894Y017075D01*
X005618Y017075D01*
X003768Y017075D02*
X001681Y017075D01*
X001991Y022430D02*
X000909Y022430D01*
X000909Y024830D01*
X000709Y024630D01*
X000709Y022630D01*
X000909Y022430D01*
X000909Y024830D02*
X001991Y024830D01*
X001991Y026861D02*
X004006Y026861D01*
X004856Y026861D02*
X006607Y026861D01*
X006607Y031619D01*
X006606Y031619D01*
X005856Y031619D02*
X001991Y031619D01*
X001991Y030440D01*
X001991Y028040D01*
X000909Y028040D01*
X000909Y030440D01*
X000709Y030240D01*
X000709Y028240D01*
X000909Y028040D01*
X001991Y028040D02*
X001991Y026861D01*
X001991Y030440D02*
X000909Y030440D01*
X001991Y032472D02*
X004006Y032472D01*
X004856Y032472D02*
X006607Y032472D01*
X006607Y037229D01*
X006606Y037229D01*
X005856Y037229D02*
X001991Y037229D01*
X001991Y036050D01*
X001991Y033650D01*
X000909Y033650D01*
X000909Y036050D01*
X000709Y035850D01*
X000709Y033850D01*
X000909Y033650D01*
X001991Y033650D02*
X001991Y032472D01*
X001991Y036050D02*
X000909Y036050D01*
X001681Y039024D02*
X001681Y042567D01*
X005894Y042567D01*
X005894Y041740D01*
X005894Y039850D02*
X005894Y039024D01*
X005618Y039024D01*
X003768Y039024D02*
X001681Y039024D01*
X006878Y034909D02*
X006878Y032665D01*
X007232Y032311D01*
X007744Y032311D01*
X008610Y032311D02*
X009122Y032311D01*
X009476Y032665D01*
X009476Y034909D01*
X008610Y034909D01*
X007744Y034909D02*
X006878Y034909D01*
X008551Y034771D02*
X008616Y034748D01*
X008679Y034722D01*
X008740Y034692D01*
X008800Y034658D01*
X008858Y034622D01*
X008914Y034582D01*
X008967Y034539D01*
X009018Y034493D01*
X009066Y034444D01*
X009111Y034393D01*
X009154Y034339D01*
X009193Y034283D01*
X009229Y034225D01*
X009262Y034164D01*
X009291Y034102D01*
X009317Y034039D01*
X009339Y033974D01*
X009358Y033908D01*
X009372Y033841D01*
X009383Y033774D01*
X009390Y033705D01*
X009394Y033637D01*
X009393Y033568D01*
X009389Y033500D01*
X009380Y033432D01*
X009368Y033365D01*
X009353Y033298D01*
X009333Y033232D01*
X009310Y033168D01*
X009283Y033105D01*
X009252Y033043D01*
X009219Y032984D01*
X009182Y032926D01*
X009141Y032871D01*
X009098Y032818D01*
X009052Y032767D01*
X009003Y032719D01*
X008951Y032674D01*
X008897Y032632D01*
X008841Y032593D01*
X008782Y032557D01*
X008722Y032525D01*
X008660Y032496D01*
X008596Y032470D01*
X008531Y032449D01*
X007803Y032449D02*
X007738Y032472D01*
X007675Y032498D01*
X007614Y032528D01*
X007554Y032562D01*
X007496Y032598D01*
X007440Y032638D01*
X007387Y032681D01*
X007336Y032727D01*
X007288Y032776D01*
X007243Y032827D01*
X007200Y032881D01*
X007161Y032937D01*
X007125Y032995D01*
X007092Y033056D01*
X007063Y033118D01*
X007037Y033181D01*
X007015Y033246D01*
X006996Y033312D01*
X006982Y033379D01*
X006971Y033446D01*
X006964Y033515D01*
X006960Y033583D01*
X006961Y033652D01*
X006965Y033720D01*
X006974Y033788D01*
X006986Y033855D01*
X007001Y033922D01*
X007021Y033988D01*
X007044Y034052D01*
X007071Y034115D01*
X007102Y034177D01*
X007135Y034236D01*
X007172Y034294D01*
X007213Y034349D01*
X007256Y034402D01*
X007302Y034453D01*
X007351Y034501D01*
X007403Y034546D01*
X007457Y034588D01*
X007513Y034627D01*
X007572Y034663D01*
X007632Y034695D01*
X007694Y034724D01*
X007758Y034750D01*
X007823Y034771D01*
X010677Y031071D02*
X010323Y030717D01*
X010323Y030205D01*
X010323Y029339D02*
X010323Y028827D01*
X010677Y028472D01*
X012921Y028472D01*
X012921Y029339D01*
X012921Y030205D02*
X012921Y031071D01*
X010677Y031071D01*
X010461Y030146D02*
X010484Y030211D01*
X010510Y030274D01*
X010540Y030335D01*
X010574Y030395D01*
X010610Y030453D01*
X010650Y030509D01*
X010693Y030562D01*
X010739Y030613D01*
X010788Y030661D01*
X010839Y030706D01*
X010893Y030749D01*
X010949Y030788D01*
X011007Y030824D01*
X011068Y030857D01*
X011130Y030886D01*
X011193Y030912D01*
X011258Y030934D01*
X011324Y030953D01*
X011391Y030967D01*
X011458Y030978D01*
X011527Y030985D01*
X011595Y030989D01*
X011664Y030988D01*
X011732Y030984D01*
X011800Y030975D01*
X011867Y030963D01*
X011934Y030948D01*
X012000Y030928D01*
X012064Y030905D01*
X012127Y030878D01*
X012189Y030847D01*
X012248Y030814D01*
X012306Y030777D01*
X012361Y030736D01*
X012414Y030693D01*
X012465Y030647D01*
X012513Y030598D01*
X012558Y030546D01*
X012600Y030492D01*
X012639Y030436D01*
X012675Y030377D01*
X012707Y030317D01*
X012736Y030255D01*
X012762Y030191D01*
X012783Y030126D01*
X012783Y029398D02*
X012760Y029333D01*
X012734Y029270D01*
X012704Y029209D01*
X012670Y029149D01*
X012634Y029091D01*
X012594Y029035D01*
X012551Y028982D01*
X012505Y028931D01*
X012456Y028883D01*
X012405Y028838D01*
X012351Y028795D01*
X012295Y028756D01*
X012237Y028720D01*
X012176Y028687D01*
X012114Y028658D01*
X012051Y028632D01*
X011986Y028610D01*
X011920Y028591D01*
X011853Y028577D01*
X011786Y028566D01*
X011717Y028559D01*
X011649Y028555D01*
X011580Y028556D01*
X011512Y028560D01*
X011444Y028569D01*
X011377Y028581D01*
X011310Y028596D01*
X011244Y028616D01*
X011180Y028639D01*
X011117Y028666D01*
X011055Y028697D01*
X010996Y028730D01*
X010938Y028767D01*
X010883Y028808D01*
X010830Y028851D01*
X010779Y028897D01*
X010731Y028946D01*
X010686Y028998D01*
X010644Y029052D01*
X010605Y029108D01*
X010569Y029167D01*
X010537Y029227D01*
X010508Y029289D01*
X010482Y029353D01*
X010461Y029418D01*
X015067Y031740D02*
X015067Y032921D01*
X016248Y032921D01*
X023335Y032921D02*
X024516Y032921D01*
X024516Y031740D01*
X028106Y037331D02*
X028106Y039681D01*
X028106Y041331D02*
X028106Y044681D01*
X028106Y045831D01*
X034535Y045831D01*
X034535Y044681D01*
X034535Y041331D01*
X034535Y039681D02*
X034535Y037331D01*
X028106Y037331D01*
X024516Y024654D02*
X024516Y023472D01*
X023335Y023472D01*
X021240Y018369D02*
X018540Y018369D01*
X018481Y018367D01*
X018423Y018361D01*
X018364Y018352D01*
X018307Y018338D01*
X018251Y018321D01*
X018196Y018300D01*
X018142Y018276D01*
X018090Y018248D01*
X018040Y018217D01*
X017992Y018183D01*
X017947Y018146D01*
X017904Y018105D01*
X017863Y018062D01*
X017826Y018017D01*
X017792Y017969D01*
X017761Y017919D01*
X017733Y017867D01*
X017709Y017813D01*
X017688Y017758D01*
X017671Y017702D01*
X017657Y017645D01*
X017648Y017586D01*
X017642Y017528D01*
X017640Y017469D01*
X017642Y017410D01*
X017648Y017352D01*
X017657Y017293D01*
X017671Y017236D01*
X017688Y017180D01*
X017709Y017125D01*
X017733Y017071D01*
X017761Y017019D01*
X017792Y016969D01*
X017826Y016921D01*
X017863Y016876D01*
X017904Y016833D01*
X017947Y016792D01*
X017992Y016755D01*
X018040Y016721D01*
X018090Y016690D01*
X018142Y016662D01*
X018196Y016638D01*
X018251Y016617D01*
X018307Y016600D01*
X018364Y016586D01*
X018423Y016577D01*
X018481Y016571D01*
X018540Y016569D01*
X021240Y016569D01*
X021299Y016571D01*
X021357Y016577D01*
X021416Y016586D01*
X021473Y016600D01*
X021529Y016617D01*
X021584Y016638D01*
X021638Y016662D01*
X021690Y016690D01*
X021740Y016721D01*
X021788Y016755D01*
X021833Y016792D01*
X021876Y016833D01*
X021917Y016876D01*
X021954Y016921D01*
X021988Y016969D01*
X022019Y017019D01*
X022047Y017071D01*
X022071Y017125D01*
X022092Y017180D01*
X022109Y017236D01*
X022123Y017293D01*
X022132Y017352D01*
X022138Y017410D01*
X022140Y017469D01*
X022138Y017528D01*
X022132Y017586D01*
X022123Y017645D01*
X022109Y017702D01*
X022092Y017758D01*
X022071Y017813D01*
X022047Y017867D01*
X022019Y017919D01*
X021988Y017969D01*
X021954Y018017D01*
X021917Y018062D01*
X021876Y018105D01*
X021833Y018146D01*
X021788Y018183D01*
X021740Y018217D01*
X021690Y018248D01*
X021638Y018276D01*
X021584Y018300D01*
X021529Y018321D01*
X021473Y018338D01*
X021416Y018352D01*
X021357Y018361D01*
X021299Y018367D01*
X021240Y018369D01*
X016248Y023472D02*
X015067Y023472D01*
X015067Y024654D01*
X014978Y041120D02*
X014467Y041120D01*
X014112Y041474D01*
X014112Y043719D01*
X014978Y043719D01*
X015844Y043719D02*
X016711Y043719D01*
X016711Y041474D01*
X016356Y041120D01*
X015844Y041120D01*
X015037Y041258D02*
X014972Y041281D01*
X014909Y041307D01*
X014848Y041337D01*
X014788Y041371D01*
X014730Y041407D01*
X014674Y041447D01*
X014621Y041490D01*
X014570Y041536D01*
X014522Y041585D01*
X014477Y041636D01*
X014434Y041690D01*
X014395Y041746D01*
X014359Y041804D01*
X014326Y041865D01*
X014297Y041927D01*
X014271Y041990D01*
X014249Y042055D01*
X014230Y042121D01*
X014216Y042188D01*
X014205Y042255D01*
X014198Y042324D01*
X014194Y042392D01*
X014195Y042461D01*
X014199Y042529D01*
X014208Y042597D01*
X014220Y042664D01*
X014235Y042731D01*
X014255Y042797D01*
X014278Y042861D01*
X014305Y042924D01*
X014336Y042986D01*
X014369Y043045D01*
X014406Y043103D01*
X014447Y043158D01*
X014490Y043211D01*
X014536Y043262D01*
X014585Y043310D01*
X014637Y043355D01*
X014691Y043397D01*
X014747Y043436D01*
X014806Y043472D01*
X014866Y043504D01*
X014928Y043533D01*
X014992Y043559D01*
X015057Y043580D01*
X015785Y043580D02*
X015850Y043557D01*
X015913Y043531D01*
X015974Y043501D01*
X016034Y043467D01*
X016092Y043431D01*
X016148Y043391D01*
X016201Y043348D01*
X016252Y043302D01*
X016300Y043253D01*
X016345Y043202D01*
X016388Y043148D01*
X016427Y043092D01*
X016463Y043034D01*
X016496Y042973D01*
X016525Y042911D01*
X016551Y042848D01*
X016573Y042783D01*
X016592Y042717D01*
X016606Y042650D01*
X016617Y042583D01*
X016624Y042514D01*
X016628Y042446D01*
X016627Y042377D01*
X016623Y042309D01*
X016614Y042241D01*
X016602Y042174D01*
X016587Y042107D01*
X016567Y042041D01*
X016544Y041977D01*
X016517Y041914D01*
X016486Y041852D01*
X016453Y041793D01*
X016416Y041735D01*
X016375Y041680D01*
X016332Y041627D01*
X016286Y041576D01*
X016237Y041528D01*
X016185Y041483D01*
X016131Y041441D01*
X016075Y041402D01*
X016016Y041366D01*
X015956Y041334D01*
X015894Y041305D01*
X015830Y041279D01*
X015765Y041258D01*
X032506Y022007D02*
X032753Y022007D01*
X032876Y021884D01*
X032876Y021513D01*
X033123Y021513D02*
X032383Y021513D01*
X032383Y021884D01*
X032506Y022007D01*
X032383Y021257D02*
X032383Y021010D01*
X032383Y021133D02*
X033123Y021133D01*
X033123Y021010D02*
X033123Y021257D01*
X033123Y020749D02*
X032383Y020749D01*
X032753Y020749D02*
X032753Y020255D01*
X033000Y019994D02*
X033123Y019870D01*
X033123Y019623D01*
X033000Y019500D01*
X032506Y019500D01*
X032383Y019623D01*
X032383Y019870D01*
X032506Y019994D01*
X032383Y020255D02*
X033123Y020255D01*
X033247Y019238D02*
X033247Y018745D01*
X033123Y018483D02*
X032383Y018483D01*
X032630Y018237D01*
X032383Y017990D01*
X033123Y017990D01*
X033123Y017482D02*
X032383Y017482D01*
X032383Y017728D02*
X032383Y017235D01*
X032506Y016973D02*
X032383Y016850D01*
X032383Y016603D01*
X032506Y016480D01*
X032630Y016480D01*
X032753Y016603D01*
X032753Y016850D01*
X032876Y016973D01*
X033000Y016973D01*
X033123Y016850D01*
X033123Y016603D01*
X033000Y016480D01*
D12*
X014280Y032134D02*
X014282Y032159D01*
X014288Y032183D01*
X014297Y032205D01*
X014310Y032226D01*
X014326Y032245D01*
X014345Y032261D01*
X014366Y032274D01*
X014388Y032283D01*
X014412Y032289D01*
X014437Y032291D01*
X014462Y032289D01*
X014486Y032283D01*
X014508Y032274D01*
X014529Y032261D01*
X014548Y032245D01*
X014564Y032226D01*
X014577Y032205D01*
X014586Y032183D01*
X014592Y032159D01*
X014594Y032134D01*
X014592Y032109D01*
X014586Y032085D01*
X014577Y032063D01*
X014564Y032042D01*
X014548Y032023D01*
X014529Y032007D01*
X014508Y031994D01*
X014486Y031985D01*
X014462Y031979D01*
X014437Y031977D01*
X014412Y031979D01*
X014388Y031985D01*
X014366Y031994D01*
X014345Y032007D01*
X014326Y032023D01*
X014310Y032042D01*
X014297Y032063D01*
X014288Y032085D01*
X014282Y032109D01*
X014280Y032134D01*
D13*
X016640Y033906D02*
X016840Y034056D01*
X016840Y033756D01*
X016640Y033906D01*
X016659Y033920D02*
X016840Y033920D01*
X016840Y033978D02*
X016737Y033978D01*
X016815Y034037D02*
X016840Y034037D01*
X016840Y033861D02*
X016699Y033861D01*
X016777Y033803D02*
X016840Y033803D01*
X021119Y035677D02*
X021319Y035827D01*
X021319Y035527D01*
X021119Y035677D01*
X021122Y035675D02*
X021319Y035675D01*
X021319Y035733D02*
X021193Y035733D01*
X021271Y035792D02*
X021319Y035792D01*
X021319Y035616D02*
X021200Y035616D01*
X021278Y035558D02*
X021319Y035558D01*
X023386Y036018D02*
X023386Y036518D01*
X023636Y036768D01*
X024136Y036768D01*
X024386Y036518D01*
X024636Y036768D01*
X025136Y036768D01*
X025386Y036518D01*
X025636Y036768D01*
X026136Y036768D01*
X026386Y036518D01*
X026636Y036768D01*
X027136Y036768D01*
X027386Y036518D01*
X027636Y036768D01*
X028136Y036768D01*
X028386Y036518D01*
X028636Y036768D01*
X029136Y036768D01*
X029386Y036518D01*
X029386Y036018D01*
X029136Y035768D01*
X028636Y035768D01*
X028386Y036018D01*
X028136Y035768D01*
X027636Y035768D01*
X027386Y036018D01*
X027386Y036518D01*
X027386Y036018D02*
X027136Y035768D01*
X026636Y035768D01*
X026386Y036018D01*
X026136Y035768D01*
X025636Y035768D01*
X025386Y036018D01*
X025136Y035768D01*
X024636Y035768D01*
X024386Y036018D01*
X024136Y035768D01*
X023636Y035768D01*
X023386Y036018D01*
X024386Y036018D02*
X024386Y036518D01*
X024628Y035587D02*
X025128Y035587D01*
X025378Y035337D01*
X025378Y034837D01*
X025128Y034587D01*
X024628Y034587D01*
X024378Y034837D01*
X024378Y035337D01*
X024628Y035587D01*
X025378Y035337D02*
X025628Y035587D01*
X026128Y035587D01*
X026378Y035337D01*
X026628Y035587D01*
X027128Y035587D01*
X027378Y035337D01*
X027378Y034837D01*
X027128Y034587D01*
X026628Y034587D01*
X026378Y034837D01*
X026128Y034587D01*
X025628Y034587D01*
X025378Y034837D01*
X026378Y034837D02*
X026378Y035337D01*
X026386Y036018D02*
X026386Y036518D01*
X025386Y036518D02*
X025386Y036018D01*
X027378Y035337D02*
X027628Y035587D01*
X028128Y035587D01*
X028378Y035337D01*
X028628Y035587D01*
X029128Y035587D01*
X029378Y035337D01*
X029378Y034837D01*
X029128Y034587D01*
X028628Y034587D01*
X028378Y034837D01*
X028128Y034587D01*
X027628Y034587D01*
X027378Y034837D01*
X028378Y034837D02*
X028378Y035337D01*
X028386Y036018D02*
X028386Y036518D01*
X027595Y025800D02*
X030295Y025800D01*
X030354Y025798D01*
X030412Y025792D01*
X030471Y025783D01*
X030528Y025769D01*
X030584Y025752D01*
X030639Y025731D01*
X030693Y025707D01*
X030745Y025679D01*
X030795Y025648D01*
X030843Y025614D01*
X030888Y025577D01*
X030931Y025536D01*
X030972Y025493D01*
X031009Y025448D01*
X031043Y025400D01*
X031074Y025350D01*
X031102Y025298D01*
X031126Y025244D01*
X031147Y025189D01*
X031164Y025133D01*
X031178Y025076D01*
X031187Y025017D01*
X031193Y024959D01*
X031195Y024900D01*
X031193Y024841D01*
X031187Y024783D01*
X031178Y024724D01*
X031164Y024667D01*
X031147Y024611D01*
X031126Y024556D01*
X031102Y024502D01*
X031074Y024450D01*
X031043Y024400D01*
X031009Y024352D01*
X030972Y024307D01*
X030931Y024264D01*
X030888Y024223D01*
X030843Y024186D01*
X030795Y024152D01*
X030745Y024121D01*
X030693Y024093D01*
X030639Y024069D01*
X030584Y024048D01*
X030528Y024031D01*
X030471Y024017D01*
X030412Y024008D01*
X030354Y024002D01*
X030295Y024000D01*
X027595Y024000D01*
X027536Y024002D01*
X027478Y024008D01*
X027419Y024017D01*
X027362Y024031D01*
X027306Y024048D01*
X027251Y024069D01*
X027197Y024093D01*
X027145Y024121D01*
X027095Y024152D01*
X027047Y024186D01*
X027002Y024223D01*
X026959Y024264D01*
X026918Y024307D01*
X026881Y024352D01*
X026847Y024400D01*
X026816Y024450D01*
X026788Y024502D01*
X026764Y024556D01*
X026743Y024611D01*
X026726Y024667D01*
X026712Y024724D01*
X026703Y024783D01*
X026697Y024841D01*
X026695Y024900D01*
X026697Y024959D01*
X026703Y025017D01*
X026712Y025076D01*
X026726Y025133D01*
X026743Y025189D01*
X026764Y025244D01*
X026788Y025298D01*
X026816Y025350D01*
X026847Y025400D01*
X026881Y025448D01*
X026918Y025493D01*
X026959Y025536D01*
X027002Y025577D01*
X027047Y025614D01*
X027095Y025648D01*
X027145Y025679D01*
X027197Y025707D01*
X027251Y025731D01*
X027306Y025752D01*
X027362Y025769D01*
X027419Y025783D01*
X027478Y025792D01*
X027536Y025798D01*
X027595Y025800D01*
X029143Y021690D02*
X029143Y021280D01*
X030703Y020620D02*
X031013Y020620D01*
X031013Y020310D01*
X031663Y019750D02*
X032073Y019750D01*
X033110Y019974D02*
X033360Y019724D01*
X033110Y019474D01*
X033110Y018974D01*
X033360Y018724D01*
X033110Y018474D01*
X033110Y017974D01*
X033360Y017724D01*
X033110Y017474D01*
X033110Y016974D01*
X033360Y016724D01*
X033110Y016474D01*
X033110Y015974D01*
X033360Y015724D01*
X033860Y015724D01*
X034110Y015974D01*
X034110Y016474D01*
X033860Y016724D01*
X033360Y016724D01*
X033860Y016724D02*
X034110Y016974D01*
X034110Y017474D01*
X033860Y017724D01*
X033360Y017724D01*
X033860Y017724D02*
X034110Y017974D01*
X034110Y018474D01*
X033860Y018724D01*
X033360Y018724D01*
X033860Y018724D02*
X034110Y018974D01*
X034110Y019474D01*
X033860Y019724D01*
X033360Y019724D01*
X033110Y019974D02*
X033110Y020474D01*
X033360Y020724D01*
X033860Y020724D01*
X034110Y020474D01*
X034110Y019974D01*
X033860Y019724D01*
X033860Y020724D02*
X034110Y020974D01*
X034110Y021474D01*
X033860Y021724D01*
X033360Y021724D01*
X033110Y021474D01*
X033110Y020974D01*
X033360Y020724D01*
X033360Y021724D02*
X033110Y021974D01*
X033110Y022474D01*
X033360Y022724D01*
X033860Y022724D01*
X034110Y022474D01*
X034110Y021974D01*
X033860Y021724D01*
X033860Y022724D02*
X034110Y022974D01*
X034110Y023474D01*
X033860Y023724D01*
X033360Y023724D01*
X033110Y023474D01*
X033110Y022974D01*
X033360Y022724D01*
X033360Y023724D02*
X033110Y023974D01*
X033110Y024474D01*
X033360Y024724D01*
X033860Y024724D01*
X034110Y024474D01*
X034110Y023974D01*
X033860Y023724D01*
X032043Y017780D02*
X031633Y017780D01*
X031013Y016990D02*
X031013Y016680D01*
X030703Y016680D01*
X029353Y016040D02*
X029343Y015640D01*
X027433Y016820D02*
X027213Y017040D01*
X027073Y016990D02*
X027073Y016680D01*
X027383Y016680D01*
X026403Y017970D02*
X026003Y017970D01*
X025983Y019930D02*
X026383Y019930D01*
X027073Y020310D02*
X027073Y020620D01*
X027383Y020620D01*
X026455Y012063D02*
X025955Y012063D01*
X025705Y011813D01*
X025455Y012063D01*
X024955Y012063D01*
X024705Y011813D01*
X024455Y012063D01*
X023955Y012063D01*
X023705Y011813D01*
X023705Y011313D01*
X023955Y011063D01*
X024455Y011063D01*
X024705Y011313D01*
X024705Y011813D01*
X024705Y011313D02*
X024955Y011063D01*
X025455Y011063D01*
X025705Y011313D01*
X025705Y011813D01*
X025705Y011313D02*
X025955Y011063D01*
X026455Y011063D01*
X026705Y011313D01*
X026705Y011813D01*
X026455Y012063D01*
X020217Y009378D02*
X020217Y008138D01*
X020215Y008115D01*
X020210Y008092D01*
X020201Y008070D01*
X020188Y008050D01*
X020173Y008032D01*
X020155Y008017D01*
X020135Y008004D01*
X020113Y007995D01*
X020090Y007990D01*
X020067Y007988D01*
X020217Y009378D02*
X020215Y009401D01*
X020210Y009424D01*
X020201Y009446D01*
X020188Y009466D01*
X020173Y009484D01*
X020155Y009499D01*
X020135Y009512D01*
X020113Y009521D01*
X020090Y009526D01*
X020067Y009528D01*
X016367Y009528D02*
X016344Y009526D01*
X016321Y009521D01*
X016299Y009512D01*
X016279Y009499D01*
X016261Y009484D01*
X016246Y009466D01*
X016233Y009446D01*
X016224Y009424D01*
X016219Y009401D01*
X016217Y009378D01*
X016217Y008958D01*
X016217Y008558D01*
X016217Y008138D01*
X016219Y008115D01*
X016224Y008092D01*
X016233Y008070D01*
X016246Y008050D01*
X016261Y008032D01*
X016279Y008017D01*
X016299Y008004D01*
X016321Y007995D01*
X016344Y007990D01*
X016367Y007988D01*
X016217Y008558D02*
X016244Y008560D01*
X016271Y008565D01*
X016297Y008575D01*
X016321Y008587D01*
X016343Y008603D01*
X016363Y008621D01*
X016380Y008643D01*
X016395Y008666D01*
X016405Y008691D01*
X016413Y008717D01*
X016417Y008744D01*
X016417Y008772D01*
X016413Y008799D01*
X016405Y008825D01*
X016395Y008850D01*
X016380Y008873D01*
X016363Y008895D01*
X016343Y008913D01*
X016321Y008929D01*
X016297Y008941D01*
X016271Y008951D01*
X016244Y008956D01*
X016217Y008958D01*
X013917Y009378D02*
X013917Y008138D01*
X013915Y008115D01*
X013910Y008092D01*
X013901Y008070D01*
X013888Y008050D01*
X013873Y008032D01*
X013855Y008017D01*
X013835Y008004D01*
X013813Y007995D01*
X013790Y007990D01*
X013767Y007988D01*
X013917Y009378D02*
X013915Y009401D01*
X013910Y009424D01*
X013901Y009446D01*
X013888Y009466D01*
X013873Y009484D01*
X013855Y009499D01*
X013835Y009512D01*
X013813Y009521D01*
X013790Y009526D01*
X013767Y009528D01*
X013649Y013730D02*
X016289Y013730D01*
X016289Y019830D02*
X013649Y019830D01*
X014469Y019830D02*
X014471Y019786D01*
X014477Y019743D01*
X014486Y019701D01*
X014499Y019659D01*
X014516Y019619D01*
X014536Y019580D01*
X014559Y019543D01*
X014586Y019509D01*
X014615Y019476D01*
X014648Y019447D01*
X014682Y019420D01*
X014719Y019397D01*
X014758Y019377D01*
X014798Y019360D01*
X014840Y019347D01*
X014882Y019338D01*
X014925Y019332D01*
X014969Y019330D01*
X015013Y019332D01*
X015056Y019338D01*
X015098Y019347D01*
X015140Y019360D01*
X015180Y019377D01*
X015219Y019397D01*
X015256Y019420D01*
X015290Y019447D01*
X015323Y019476D01*
X015352Y019509D01*
X015379Y019543D01*
X015402Y019580D01*
X015422Y019619D01*
X015439Y019659D01*
X015452Y019701D01*
X015461Y019743D01*
X015467Y019786D01*
X015469Y019830D01*
X009126Y019974D02*
X008876Y019724D01*
X008376Y019724D01*
X008126Y019974D01*
X008126Y020474D01*
X008376Y020724D01*
X008126Y020974D01*
X008126Y021474D01*
X008376Y021724D01*
X008126Y021974D01*
X008126Y022474D01*
X008376Y022724D01*
X008876Y022724D01*
X009126Y022474D01*
X009126Y021974D01*
X008876Y021724D01*
X008376Y021724D01*
X008876Y021724D02*
X009126Y021474D01*
X009126Y020974D01*
X008876Y020724D01*
X009126Y020474D01*
X009126Y019974D01*
X008876Y019724D02*
X009126Y019474D01*
X009126Y018974D01*
X008876Y018724D01*
X009126Y018474D01*
X009126Y017974D01*
X008876Y017724D01*
X008376Y017724D01*
X008126Y017974D01*
X008126Y018474D01*
X008376Y018724D01*
X008126Y018974D01*
X008126Y019474D01*
X008376Y019724D01*
X008376Y018724D02*
X008876Y018724D01*
X008876Y020724D02*
X008376Y020724D01*
X009917Y009378D02*
X009917Y008958D01*
X009917Y008558D01*
X009917Y008138D01*
X009919Y008115D01*
X009924Y008092D01*
X009933Y008070D01*
X009946Y008050D01*
X009961Y008032D01*
X009979Y008017D01*
X009999Y008004D01*
X010021Y007995D01*
X010044Y007990D01*
X010067Y007988D01*
X009917Y008558D02*
X009944Y008560D01*
X009971Y008565D01*
X009997Y008575D01*
X010021Y008587D01*
X010043Y008603D01*
X010063Y008621D01*
X010080Y008643D01*
X010095Y008666D01*
X010105Y008691D01*
X010113Y008717D01*
X010117Y008744D01*
X010117Y008772D01*
X010113Y008799D01*
X010105Y008825D01*
X010095Y008850D01*
X010080Y008873D01*
X010063Y008895D01*
X010043Y008913D01*
X010021Y008929D01*
X009997Y008941D01*
X009971Y008951D01*
X009944Y008956D01*
X009917Y008958D01*
X009917Y009378D02*
X009919Y009401D01*
X009924Y009424D01*
X009933Y009446D01*
X009946Y009466D01*
X009961Y009484D01*
X009979Y009499D01*
X009999Y009512D01*
X010021Y009521D01*
X010044Y009526D01*
X010067Y009528D01*
X009909Y003750D02*
X009909Y002750D01*
X010909Y002750D01*
X011909Y002750D01*
X012909Y002750D01*
X013909Y002750D01*
X014909Y002750D01*
X014909Y003750D01*
X013909Y003750D01*
X012909Y003750D01*
X011909Y003750D01*
X010909Y003750D01*
X009909Y003750D01*
X010909Y003750D02*
X010909Y002750D01*
X011909Y002750D02*
X011909Y003750D01*
X012909Y003750D02*
X012909Y002750D01*
X013909Y002750D02*
X013909Y003750D01*
X018128Y003750D02*
X018128Y002750D01*
X019128Y002750D01*
X020128Y002750D01*
X021128Y002750D01*
X022128Y002750D01*
X023128Y002750D01*
X023128Y003750D01*
X022128Y003750D01*
X021128Y003750D01*
X020128Y003750D01*
X019128Y003750D01*
X018128Y003750D01*
X019128Y003750D02*
X019128Y002750D01*
X020128Y002750D02*
X020128Y003750D01*
X021128Y003750D02*
X021128Y002750D01*
X022128Y002750D02*
X022128Y003750D01*
X024000Y003447D02*
X024000Y002947D01*
X024250Y002697D01*
X024750Y002697D01*
X025000Y002947D01*
X025250Y002697D01*
X025750Y002697D01*
X026000Y002947D01*
X026250Y002697D01*
X026750Y002697D01*
X027000Y002947D01*
X027000Y003447D01*
X026750Y003697D01*
X026250Y003697D01*
X026000Y003447D01*
X026000Y002947D01*
X026000Y003447D02*
X025750Y003697D01*
X025250Y003697D01*
X025000Y003447D01*
X025000Y002947D01*
X025000Y003447D02*
X024750Y003697D01*
X024250Y003697D01*
X024000Y003447D01*
X027543Y003447D02*
X027543Y002947D01*
X027793Y002697D01*
X028293Y002697D01*
X028543Y002947D01*
X028793Y002697D01*
X029293Y002697D01*
X029543Y002947D01*
X029793Y002697D01*
X030293Y002697D01*
X030543Y002947D01*
X030543Y003447D01*
X030293Y003697D01*
X029793Y003697D01*
X029543Y003447D01*
X029543Y002947D01*
X029543Y003447D02*
X029293Y003697D01*
X028793Y003697D01*
X028543Y003447D01*
X028543Y002947D01*
X028543Y003447D02*
X028293Y003697D01*
X027793Y003697D01*
X027543Y003447D01*
X031087Y003447D02*
X031087Y002947D01*
X031337Y002697D01*
X031837Y002697D01*
X032087Y002947D01*
X032337Y002697D01*
X032837Y002697D01*
X033087Y002947D01*
X033337Y002697D01*
X033837Y002697D01*
X034087Y002947D01*
X034087Y003447D01*
X033837Y003697D01*
X033337Y003697D01*
X033087Y003447D01*
X033087Y002947D01*
X033087Y003447D02*
X032837Y003697D01*
X032337Y003697D01*
X032087Y003447D01*
X032087Y002947D01*
X032087Y003447D02*
X031837Y003697D01*
X031337Y003697D01*
X031087Y003447D01*
X033661Y004203D02*
X033911Y003953D01*
X034411Y003953D01*
X034661Y004203D01*
X034661Y004703D01*
X034411Y004953D01*
X034661Y005203D01*
X034661Y005703D01*
X034411Y005953D01*
X033911Y005953D01*
X033661Y005703D01*
X033661Y005203D01*
X033911Y004953D01*
X034411Y004953D01*
X033911Y004953D02*
X033661Y004703D01*
X033661Y004203D01*
X033911Y005953D02*
X033661Y006203D01*
X033661Y006703D01*
X033911Y006953D01*
X033661Y007203D01*
X033661Y007703D01*
X033911Y007953D01*
X034411Y007953D01*
X034661Y007703D01*
X034661Y007203D01*
X034411Y006953D01*
X034661Y006703D01*
X034661Y006203D01*
X034411Y005953D01*
X034411Y006953D02*
X033911Y006953D01*
X035191Y008480D02*
X034941Y008730D01*
X034941Y009230D01*
X035191Y009480D01*
X034941Y009730D01*
X034941Y010230D01*
X035191Y010480D01*
X035691Y010480D01*
X035941Y010230D01*
X035941Y009730D01*
X035691Y009480D01*
X035941Y009230D01*
X035941Y008730D01*
X035691Y008480D01*
X035191Y008480D01*
X035191Y009480D02*
X035691Y009480D01*
X035691Y010480D02*
X035941Y010730D01*
X035941Y011230D01*
X035691Y011480D01*
X035941Y011730D01*
X035941Y012230D01*
X035691Y012480D01*
X035191Y012480D01*
X034941Y012230D01*
X034941Y011730D01*
X035191Y011480D01*
X035691Y011480D01*
X035191Y011480D02*
X034941Y011230D01*
X034941Y010730D01*
X035191Y010480D01*
D14*
X030295Y024200D02*
X027595Y024200D01*
X027544Y024202D01*
X027493Y024207D01*
X027443Y024217D01*
X027393Y024230D01*
X027345Y024246D01*
X027298Y024266D01*
X027252Y024290D01*
X027209Y024316D01*
X027167Y024346D01*
X027128Y024379D01*
X027091Y024414D01*
X027057Y024452D01*
X027026Y024493D01*
X026997Y024535D01*
X026972Y024580D01*
X026951Y024626D01*
X026932Y024674D01*
X026918Y024723D01*
X026907Y024773D01*
X026899Y024823D01*
X026895Y024874D01*
X026895Y024926D01*
X026899Y024977D01*
X026907Y025027D01*
X026918Y025077D01*
X026932Y025126D01*
X026951Y025174D01*
X026972Y025220D01*
X026997Y025265D01*
X027026Y025307D01*
X027057Y025348D01*
X027091Y025386D01*
X027128Y025421D01*
X027167Y025454D01*
X027209Y025484D01*
X027252Y025510D01*
X027298Y025534D01*
X027345Y025554D01*
X027393Y025570D01*
X027443Y025583D01*
X027493Y025593D01*
X027544Y025598D01*
X027595Y025600D01*
X030295Y025600D01*
X030346Y025598D01*
X030397Y025593D01*
X030447Y025583D01*
X030497Y025570D01*
X030545Y025554D01*
X030592Y025534D01*
X030638Y025510D01*
X030681Y025484D01*
X030723Y025454D01*
X030762Y025421D01*
X030799Y025386D01*
X030833Y025348D01*
X030864Y025307D01*
X030893Y025265D01*
X030918Y025220D01*
X030939Y025174D01*
X030958Y025126D01*
X030972Y025077D01*
X030983Y025027D01*
X030991Y024977D01*
X030995Y024926D01*
X030995Y024874D01*
X030991Y024823D01*
X030983Y024773D01*
X030972Y024723D01*
X030958Y024674D01*
X030939Y024626D01*
X030918Y024580D01*
X030893Y024535D01*
X030864Y024493D01*
X030833Y024452D01*
X030799Y024414D01*
X030762Y024379D01*
X030723Y024346D01*
X030681Y024316D01*
X030638Y024290D01*
X030592Y024266D01*
X030545Y024246D01*
X030497Y024230D01*
X030447Y024217D01*
X030397Y024207D01*
X030346Y024202D01*
X030295Y024200D01*
X020217Y008128D02*
X016217Y008128D01*
X013917Y008128D02*
X009917Y008128D01*
D15*
X013475Y013876D02*
X013525Y013876D01*
X013524Y013875D02*
X013527Y013854D01*
X013533Y013835D01*
X013542Y013816D01*
X013554Y013799D01*
X013568Y013785D01*
X013585Y013773D01*
X013604Y013764D01*
X013623Y013758D01*
X013644Y013755D01*
X013645Y013706D01*
X013644Y013705D01*
X013620Y013707D01*
X013597Y013713D01*
X013574Y013722D01*
X013553Y013734D01*
X013534Y013748D01*
X013517Y013765D01*
X013503Y013784D01*
X013491Y013805D01*
X013482Y013828D01*
X013476Y013851D01*
X013474Y013875D01*
X013483Y013875D01*
X013486Y013850D01*
X013492Y013826D01*
X013502Y013803D01*
X013515Y013782D01*
X013532Y013763D01*
X013551Y013746D01*
X013572Y013733D01*
X013595Y013723D01*
X013619Y013717D01*
X013644Y013714D01*
X013644Y013723D01*
X013620Y013726D01*
X013598Y013732D01*
X013576Y013741D01*
X013556Y013754D01*
X013538Y013769D01*
X013523Y013787D01*
X013510Y013807D01*
X013501Y013829D01*
X013495Y013851D01*
X013492Y013875D01*
X013501Y013875D01*
X013504Y013853D01*
X013509Y013831D01*
X013518Y013811D01*
X013530Y013792D01*
X013544Y013775D01*
X013561Y013761D01*
X013580Y013749D01*
X013600Y013740D01*
X013622Y013735D01*
X013644Y013732D01*
X013644Y013741D01*
X013623Y013743D01*
X013603Y013749D01*
X013584Y013757D01*
X013566Y013768D01*
X013551Y013782D01*
X013537Y013797D01*
X013526Y013815D01*
X013518Y013834D01*
X013512Y013854D01*
X013510Y013875D01*
X013519Y013875D01*
X013522Y013854D01*
X013528Y013833D01*
X013537Y013814D01*
X013550Y013796D01*
X013565Y013781D01*
X013583Y013768D01*
X013602Y013759D01*
X013623Y013753D01*
X013644Y013750D01*
X016293Y013706D02*
X016293Y013756D01*
X016294Y013755D02*
X016315Y013758D01*
X016334Y013764D01*
X016353Y013773D01*
X016370Y013785D01*
X016384Y013799D01*
X016396Y013816D01*
X016405Y013835D01*
X016411Y013854D01*
X016414Y013875D01*
X016463Y013876D01*
X016464Y013875D01*
X016462Y013851D01*
X016456Y013828D01*
X016447Y013805D01*
X016435Y013784D01*
X016421Y013765D01*
X016404Y013748D01*
X016385Y013734D01*
X016364Y013722D01*
X016341Y013713D01*
X016318Y013707D01*
X016294Y013705D01*
X016294Y013714D01*
X016319Y013717D01*
X016343Y013723D01*
X016366Y013733D01*
X016387Y013746D01*
X016406Y013763D01*
X016423Y013782D01*
X016436Y013803D01*
X016446Y013826D01*
X016452Y013850D01*
X016455Y013875D01*
X016446Y013875D01*
X016443Y013851D01*
X016437Y013829D01*
X016428Y013807D01*
X016415Y013787D01*
X016400Y013769D01*
X016382Y013754D01*
X016362Y013741D01*
X016340Y013732D01*
X016318Y013726D01*
X016294Y013723D01*
X016294Y013732D01*
X016316Y013735D01*
X016338Y013740D01*
X016358Y013749D01*
X016377Y013761D01*
X016394Y013775D01*
X016408Y013792D01*
X016420Y013811D01*
X016429Y013831D01*
X016434Y013853D01*
X016437Y013875D01*
X016428Y013875D01*
X016426Y013854D01*
X016420Y013834D01*
X016412Y013815D01*
X016401Y013797D01*
X016387Y013782D01*
X016372Y013768D01*
X016354Y013757D01*
X016335Y013749D01*
X016315Y013743D01*
X016294Y013741D01*
X016294Y013750D01*
X016315Y013753D01*
X016336Y013759D01*
X016355Y013768D01*
X016373Y013781D01*
X016388Y013796D01*
X016401Y013814D01*
X016410Y013833D01*
X016416Y013854D01*
X016419Y013875D01*
X016463Y019684D02*
X016413Y019684D01*
X016414Y019685D02*
X016411Y019706D01*
X016405Y019725D01*
X016396Y019744D01*
X016384Y019761D01*
X016370Y019775D01*
X016353Y019787D01*
X016334Y019796D01*
X016315Y019802D01*
X016294Y019805D01*
X016293Y019854D01*
X016294Y019855D01*
X016318Y019853D01*
X016341Y019847D01*
X016364Y019838D01*
X016385Y019826D01*
X016404Y019812D01*
X016421Y019795D01*
X016435Y019776D01*
X016447Y019755D01*
X016456Y019732D01*
X016462Y019709D01*
X016464Y019685D01*
X016455Y019685D01*
X016452Y019710D01*
X016446Y019734D01*
X016436Y019757D01*
X016423Y019778D01*
X016406Y019797D01*
X016387Y019814D01*
X016366Y019827D01*
X016343Y019837D01*
X016319Y019843D01*
X016294Y019846D01*
X016294Y019837D01*
X016318Y019834D01*
X016340Y019828D01*
X016362Y019819D01*
X016382Y019806D01*
X016400Y019791D01*
X016415Y019773D01*
X016428Y019753D01*
X016437Y019731D01*
X016443Y019709D01*
X016446Y019685D01*
X016437Y019685D01*
X016434Y019707D01*
X016429Y019729D01*
X016420Y019749D01*
X016408Y019768D01*
X016394Y019785D01*
X016377Y019799D01*
X016358Y019811D01*
X016338Y019820D01*
X016316Y019825D01*
X016294Y019828D01*
X016294Y019819D01*
X016315Y019817D01*
X016335Y019811D01*
X016354Y019803D01*
X016372Y019792D01*
X016387Y019778D01*
X016401Y019763D01*
X016412Y019745D01*
X016420Y019726D01*
X016426Y019706D01*
X016428Y019685D01*
X016419Y019685D01*
X016416Y019706D01*
X016410Y019727D01*
X016401Y019746D01*
X016388Y019764D01*
X016373Y019779D01*
X016355Y019792D01*
X016336Y019801D01*
X016315Y019807D01*
X016294Y019810D01*
X013645Y019854D02*
X013645Y019804D01*
X013644Y019805D02*
X013623Y019802D01*
X013604Y019796D01*
X013585Y019787D01*
X013568Y019775D01*
X013554Y019761D01*
X013542Y019744D01*
X013533Y019725D01*
X013527Y019706D01*
X013524Y019685D01*
X013475Y019684D01*
X013474Y019685D01*
X013476Y019709D01*
X013482Y019732D01*
X013491Y019755D01*
X013503Y019776D01*
X013517Y019795D01*
X013534Y019812D01*
X013553Y019826D01*
X013574Y019838D01*
X013597Y019847D01*
X013620Y019853D01*
X013644Y019855D01*
X013644Y019846D01*
X013619Y019843D01*
X013595Y019837D01*
X013572Y019827D01*
X013551Y019814D01*
X013532Y019797D01*
X013515Y019778D01*
X013502Y019757D01*
X013492Y019734D01*
X013486Y019710D01*
X013483Y019685D01*
X013492Y019685D01*
X013495Y019709D01*
X013501Y019731D01*
X013510Y019753D01*
X013523Y019773D01*
X013538Y019791D01*
X013556Y019806D01*
X013576Y019819D01*
X013598Y019828D01*
X013620Y019834D01*
X013644Y019837D01*
X013644Y019828D01*
X013622Y019825D01*
X013600Y019820D01*
X013580Y019811D01*
X013561Y019799D01*
X013544Y019785D01*
X013530Y019768D01*
X013518Y019749D01*
X013509Y019729D01*
X013504Y019707D01*
X013501Y019685D01*
X013510Y019685D01*
X013512Y019706D01*
X013518Y019726D01*
X013526Y019745D01*
X013537Y019763D01*
X013551Y019778D01*
X013566Y019792D01*
X013584Y019803D01*
X013603Y019811D01*
X013623Y019817D01*
X013644Y019819D01*
X013644Y019810D01*
X013623Y019807D01*
X013602Y019801D01*
X013583Y019792D01*
X013565Y019779D01*
X013550Y019764D01*
X013537Y019746D01*
X013528Y019727D01*
X013522Y019706D01*
X013519Y019685D01*
D16*
X016628Y033906D03*
X021106Y035677D03*
D17*
X011671Y034939D03*
X008177Y031346D03*
X008177Y028984D03*
X008177Y025638D03*
X006602Y020224D03*
X006602Y017518D03*
X006602Y015205D03*
X006602Y012449D03*
X006602Y010185D03*
X006602Y007429D03*
D18*
X017921Y014220D03*
X011031Y026622D03*
X007094Y027409D03*
X007094Y028787D03*
X007094Y029969D03*
X007094Y031150D03*
X007094Y025441D03*
X007094Y024063D03*
X032587Y022882D03*
D19*
X027480Y015998D02*
X027166Y015685D01*
X027480Y015998D01*
X027480Y015841D02*
X027166Y015841D01*
X027480Y015841D01*
X027480Y015685D02*
X027166Y015998D01*
X027480Y015685D01*
X027323Y015685D02*
X027323Y015998D01*
X027323Y015685D01*
D20*
X024972Y010685D02*
X032846Y010685D01*
X032846Y004386D01*
X024972Y004386D01*
X024972Y010685D01*
X025402Y010185D02*
X026189Y010185D01*
X026189Y009398D01*
X025402Y009398D01*
X025402Y010185D01*
X027453Y008087D02*
X029421Y008087D01*
X029421Y006197D01*
X027453Y006197D01*
X027453Y008087D01*
X029500Y008480D02*
X030524Y008480D01*
X030524Y009425D01*
X029500Y009425D01*
X029500Y008480D01*
X029972Y008087D02*
X031941Y008087D01*
X031941Y006197D01*
X029972Y006197D01*
X029972Y008087D01*
X034398Y012331D02*
X007839Y012331D01*
X007839Y028118D01*
X034398Y028118D01*
X034398Y012331D01*
X032783Y027705D02*
X030028Y027705D01*
X030028Y030461D01*
X032783Y030461D01*
X032783Y027705D01*
X032288Y030083D02*
X032290Y030104D01*
X032296Y030124D01*
X032305Y030144D01*
X032317Y030161D01*
X032332Y030175D01*
X032350Y030187D01*
X032370Y030195D01*
X032390Y030200D01*
X032411Y030201D01*
X032432Y030198D01*
X032452Y030192D01*
X032471Y030181D01*
X032488Y030168D01*
X032501Y030152D01*
X032512Y030134D01*
X032520Y030114D01*
X032524Y030094D01*
X032524Y030072D01*
X032520Y030052D01*
X032512Y030032D01*
X032501Y030014D01*
X032488Y029998D01*
X032471Y029985D01*
X032452Y029974D01*
X032432Y029968D01*
X032411Y029965D01*
X032390Y029966D01*
X032370Y029971D01*
X032350Y029979D01*
X032332Y029991D01*
X032317Y030005D01*
X032305Y030022D01*
X032296Y030042D01*
X032290Y030062D01*
X032288Y030083D01*
X006448Y028650D02*
X006298Y028800D01*
X006298Y028725D01*
X006223Y028725D01*
X006223Y028800D01*
X006298Y028800D01*
X006223Y028957D02*
X006298Y029032D01*
X006298Y029182D01*
X006223Y029258D01*
X006073Y029258D01*
X005998Y029182D01*
X005998Y029107D01*
X006073Y028957D01*
X005847Y028957D01*
X005847Y029258D01*
X005998Y029418D02*
X005998Y029493D01*
X006073Y029568D01*
X005998Y029643D01*
X006073Y029718D01*
X006298Y029718D01*
X006298Y029568D02*
X006073Y029568D01*
X005998Y029418D02*
X006298Y029418D01*
X006298Y029878D02*
X005998Y029878D01*
X005998Y029953D01*
X006073Y030028D01*
X005998Y030103D01*
X006073Y030178D01*
X006298Y030178D01*
X006298Y030028D02*
X006073Y030028D01*
X006148Y028490D02*
X006223Y028490D01*
X006298Y028415D01*
X006298Y028265D01*
X006223Y028190D01*
X006073Y028340D02*
X006073Y028415D01*
X006148Y028490D01*
X006073Y028415D02*
X005998Y028490D01*
X005923Y028490D01*
X005847Y028415D01*
X005847Y028265D01*
X005923Y028190D01*
X006073Y024568D02*
X006298Y024568D01*
X006298Y024418D02*
X006073Y024418D01*
X005998Y024493D01*
X006073Y024568D01*
X006073Y024418D02*
X005998Y024343D01*
X005998Y024268D01*
X006298Y024268D01*
X006298Y024108D02*
X006073Y024108D01*
X005998Y024033D01*
X006073Y023958D01*
X006298Y023958D01*
X006298Y023807D02*
X005998Y023807D01*
X005998Y023883D01*
X006073Y023958D01*
X006073Y023647D02*
X006223Y023647D01*
X006298Y023572D01*
X006298Y023422D01*
X006223Y023347D01*
X006073Y023347D02*
X005998Y023497D01*
X005998Y023572D01*
X006073Y023647D01*
X005847Y023647D02*
X005847Y023347D01*
X006073Y023347D01*
X006223Y023190D02*
X006223Y023115D01*
X006298Y023115D01*
X006298Y023190D01*
X006223Y023190D01*
X006298Y023190D02*
X006448Y023040D01*
X006223Y022880D02*
X006298Y022805D01*
X006298Y022655D01*
X006223Y022580D01*
X006073Y022730D02*
X006073Y022805D01*
X006148Y022880D01*
X006223Y022880D01*
X006073Y022805D02*
X005998Y022880D01*
X005923Y022880D01*
X005847Y022805D01*
X005847Y022655D01*
X005923Y022580D01*
X005923Y033800D02*
X005847Y033875D01*
X005847Y034025D01*
X005923Y034100D01*
X005998Y034100D01*
X006073Y034025D01*
X006148Y034100D01*
X006223Y034100D01*
X006298Y034025D01*
X006298Y033875D01*
X006223Y033800D01*
X006073Y033950D02*
X006073Y034025D01*
X006223Y034336D02*
X006298Y034336D01*
X006298Y034411D01*
X006223Y034411D01*
X006223Y034336D01*
X006298Y034411D02*
X006448Y034261D01*
X006223Y034568D02*
X006298Y034643D01*
X006298Y034793D01*
X006223Y034868D01*
X006073Y034868D01*
X005998Y034793D01*
X005998Y034718D01*
X006073Y034568D01*
X005847Y034568D01*
X005847Y034868D01*
X005998Y035028D02*
X005998Y035103D01*
X006073Y035178D01*
X005998Y035253D01*
X006073Y035328D01*
X006298Y035328D01*
X006298Y035178D02*
X006073Y035178D01*
X005998Y035028D02*
X006298Y035028D01*
X006298Y035488D02*
X005998Y035488D01*
X005998Y035563D01*
X006073Y035638D01*
X005998Y035713D01*
X006073Y035789D01*
X006298Y035789D01*
X006298Y035638D02*
X006073Y035638D01*
D21*
X025799Y006748D03*
D22*
X012774Y032321D02*
X012774Y032833D01*
X010884Y032833D02*
X010869Y032783D01*
X010858Y032732D01*
X010850Y032681D01*
X010845Y032629D01*
X010843Y032577D01*
X010845Y032525D01*
X010850Y032473D01*
X010858Y032422D01*
X010869Y032371D01*
X010884Y032321D01*
X010569Y032321D02*
X010569Y032833D01*
X012458Y032833D02*
X012473Y032783D01*
X012484Y032732D01*
X012492Y032681D01*
X012497Y032629D01*
X012499Y032577D01*
X012497Y032525D01*
X012492Y032473D01*
X012484Y032422D01*
X012473Y032371D01*
X012458Y032321D01*
D23*
X012409Y002500D02*
X012409Y000250D01*
X011409Y000250D02*
X011409Y002500D01*
X010409Y002500D02*
X010409Y000250D01*
X013409Y000250D02*
X013409Y002500D01*
X014409Y002500D02*
X014409Y000250D01*
X018628Y000250D02*
X018628Y002500D01*
X019628Y002500D02*
X019628Y000250D01*
X020628Y000250D02*
X020628Y002500D01*
X021628Y002500D02*
X021628Y000250D01*
X022628Y000250D02*
X022628Y002500D01*
D24*
X022628Y002650D03*
X021628Y002650D03*
X020628Y002650D03*
X019628Y002650D03*
X018628Y002650D03*
X014409Y002650D03*
X013409Y002650D03*
X012409Y002650D03*
X011409Y002650D03*
X010409Y002650D03*
D25*
X010409Y003950D03*
X011409Y003950D03*
X012409Y003950D03*
X013409Y003950D03*
X014409Y003950D03*
X018628Y003950D03*
X019628Y003950D03*
X020628Y003950D03*
X021628Y003950D03*
X022628Y003950D03*
D26*
X022628Y005000D03*
X021628Y005000D03*
X020628Y005000D03*
X019628Y005000D03*
X018628Y005000D03*
X014409Y005000D03*
X013409Y005000D03*
X012409Y005000D03*
X011409Y005000D03*
X010409Y005000D03*
D27*
X014024Y037596D02*
X014028Y037758D01*
X014040Y037920D01*
X014060Y038081D01*
X014088Y038241D01*
X014123Y038400D01*
X014166Y038556D01*
X014217Y038710D01*
X014276Y038862D01*
X014342Y039010D01*
X014414Y039155D01*
X014494Y039296D01*
X014581Y039433D01*
X014675Y039566D01*
X014775Y039694D01*
X014881Y039817D01*
X014993Y039934D01*
X015110Y040046D01*
X015233Y040152D01*
X015361Y040252D01*
X015494Y040346D01*
X015631Y040433D01*
X015772Y040513D01*
X015917Y040585D01*
X016065Y040651D01*
X016217Y040710D01*
X016371Y040761D01*
X016527Y040804D01*
X016686Y040839D01*
X016846Y040867D01*
X017007Y040887D01*
X017169Y040899D01*
X017331Y040903D01*
X017493Y040899D01*
X017655Y040887D01*
X017816Y040867D01*
X017976Y040839D01*
X018135Y040804D01*
X018291Y040761D01*
X018445Y040710D01*
X018597Y040651D01*
X018745Y040585D01*
X018890Y040513D01*
X019031Y040433D01*
X019168Y040346D01*
X019301Y040252D01*
X019429Y040152D01*
X019552Y040046D01*
X019669Y039934D01*
X019781Y039817D01*
X019887Y039694D01*
X019987Y039566D01*
X020081Y039433D01*
X020168Y039296D01*
X020248Y039155D01*
X020320Y039010D01*
X020386Y038862D01*
X020445Y038710D01*
X020496Y038556D01*
X020539Y038400D01*
X020574Y038241D01*
X020602Y038081D01*
X020622Y037920D01*
X020634Y037758D01*
X020638Y037596D01*
X020634Y037434D01*
X020622Y037272D01*
X020602Y037111D01*
X020574Y036951D01*
X020539Y036792D01*
X020496Y036636D01*
X020445Y036482D01*
X020386Y036330D01*
X020320Y036182D01*
X020248Y036037D01*
X020168Y035896D01*
X020081Y035759D01*
X019987Y035626D01*
X019887Y035498D01*
X019781Y035375D01*
X019669Y035258D01*
X019552Y035146D01*
X019429Y035040D01*
X019301Y034940D01*
X019168Y034846D01*
X019031Y034759D01*
X018890Y034679D01*
X018745Y034607D01*
X018597Y034541D01*
X018445Y034482D01*
X018291Y034431D01*
X018135Y034388D01*
X017976Y034353D01*
X017816Y034325D01*
X017655Y034305D01*
X017493Y034293D01*
X017331Y034289D01*
X017169Y034293D01*
X017007Y034305D01*
X016846Y034325D01*
X016686Y034353D01*
X016527Y034388D01*
X016371Y034431D01*
X016217Y034482D01*
X016065Y034541D01*
X015917Y034607D01*
X015772Y034679D01*
X015631Y034759D01*
X015494Y034846D01*
X015361Y034940D01*
X015233Y035040D01*
X015110Y035146D01*
X014993Y035258D01*
X014881Y035375D01*
X014775Y035498D01*
X014675Y035626D01*
X014581Y035759D01*
X014494Y035896D01*
X014414Y036037D01*
X014342Y036182D01*
X014276Y036330D01*
X014217Y036482D01*
X014166Y036636D01*
X014123Y036792D01*
X014088Y036951D01*
X014060Y037111D01*
X014040Y037272D01*
X014028Y037434D01*
X014024Y037596D01*
X020569Y040894D02*
X020573Y041056D01*
X020585Y041218D01*
X020605Y041379D01*
X020633Y041539D01*
X020668Y041698D01*
X020711Y041854D01*
X020762Y042008D01*
X020821Y042160D01*
X020887Y042308D01*
X020959Y042453D01*
X021039Y042594D01*
X021126Y042731D01*
X021220Y042864D01*
X021320Y042992D01*
X021426Y043115D01*
X021538Y043232D01*
X021655Y043344D01*
X021778Y043450D01*
X021906Y043550D01*
X022039Y043644D01*
X022176Y043731D01*
X022317Y043811D01*
X022462Y043883D01*
X022610Y043949D01*
X022762Y044008D01*
X022916Y044059D01*
X023072Y044102D01*
X023231Y044137D01*
X023391Y044165D01*
X023552Y044185D01*
X023714Y044197D01*
X023876Y044201D01*
X024038Y044197D01*
X024200Y044185D01*
X024361Y044165D01*
X024521Y044137D01*
X024680Y044102D01*
X024836Y044059D01*
X024990Y044008D01*
X025142Y043949D01*
X025290Y043883D01*
X025435Y043811D01*
X025576Y043731D01*
X025713Y043644D01*
X025846Y043550D01*
X025974Y043450D01*
X026097Y043344D01*
X026214Y043232D01*
X026326Y043115D01*
X026432Y042992D01*
X026532Y042864D01*
X026626Y042731D01*
X026713Y042594D01*
X026793Y042453D01*
X026865Y042308D01*
X026931Y042160D01*
X026990Y042008D01*
X027041Y041854D01*
X027084Y041698D01*
X027119Y041539D01*
X027147Y041379D01*
X027167Y041218D01*
X027179Y041056D01*
X027183Y040894D01*
X027179Y040732D01*
X027167Y040570D01*
X027147Y040409D01*
X027119Y040249D01*
X027084Y040090D01*
X027041Y039934D01*
X026990Y039780D01*
X026931Y039628D01*
X026865Y039480D01*
X026793Y039335D01*
X026713Y039194D01*
X026626Y039057D01*
X026532Y038924D01*
X026432Y038796D01*
X026326Y038673D01*
X026214Y038556D01*
X026097Y038444D01*
X025974Y038338D01*
X025846Y038238D01*
X025713Y038144D01*
X025576Y038057D01*
X025435Y037977D01*
X025290Y037905D01*
X025142Y037839D01*
X024990Y037780D01*
X024836Y037729D01*
X024680Y037686D01*
X024521Y037651D01*
X024361Y037623D01*
X024200Y037603D01*
X024038Y037591D01*
X023876Y037587D01*
X023714Y037591D01*
X023552Y037603D01*
X023391Y037623D01*
X023231Y037651D01*
X023072Y037686D01*
X022916Y037729D01*
X022762Y037780D01*
X022610Y037839D01*
X022462Y037905D01*
X022317Y037977D01*
X022176Y038057D01*
X022039Y038144D01*
X021906Y038238D01*
X021778Y038338D01*
X021655Y038444D01*
X021538Y038556D01*
X021426Y038673D01*
X021320Y038796D01*
X021220Y038924D01*
X021126Y039057D01*
X021039Y039194D01*
X020959Y039335D01*
X020887Y039480D01*
X020821Y039628D01*
X020762Y039780D01*
X020711Y039934D01*
X020668Y040090D01*
X020633Y040249D01*
X020605Y040409D01*
X020585Y040570D01*
X020573Y040732D01*
X020569Y040894D01*
M02*
