%
M48
M72
T01C0.0236
T02C0.0240
T03C0.0276
T04C0.0320
T05C0.0354
T06C0.0394
T07C0.0400
T08C0.0472
T09C0.0591
T10C0.0630
T11C0.1180
T12C0.1181
T13C0.1260
%
T01
X11179Y10037
X11720Y11071
X12163Y10037
X12705Y9102
X13197Y8561
X13689Y7724
X13689Y10037
X15904Y7724
X16445Y10037
X17478Y10037
X18463Y10037
X18955Y10037
X19447Y10037
X19988Y10726
X18807Y13876
X17823Y15598
X14969Y15598
X13886Y18453
X13787Y19043
X15805Y20274
X15559Y25047
X11573Y25638
X11573Y27606
X8522Y28098
X8522Y30559
X10638Y31789
X11327Y34939
X9998Y38039
X6750Y37104
X16346Y33906
X17134Y33906
X17429Y32478
X18512Y31199
X21366Y33266
X22350Y33266
X22154Y34890
X22843Y35677
X21169Y37596
X24368Y31839
X24959Y31839
X26583Y32970
X27222Y32970
X27222Y33955
X26533Y33955
X28846Y33955
X30028Y31789
X31799Y31789
X32783Y33266
X33571Y33955
X34358Y33955
X34358Y32724
X33571Y32380
X32537Y30165
X31061Y28689
X30520Y28689
X29978Y26524
X27272Y27065
X28994Y23522
X27911Y22341
X27911Y21652
X26632Y21848
X26632Y21307
X26189Y20421
X26189Y19929
X25402Y20421
X24909Y19535
X24909Y17813
X24122Y17026
X23433Y16484
X24270Y14319
X23827Y13531
X23531Y12154
X26484Y15943
X28699Y17124
X29585Y17813
X30077Y17813
X30569Y17813
X30323Y17026
X30618Y18748
X30618Y19339
X30274Y19831
X29289Y19831
X28207Y19240
X27567Y19240
X29585Y21455
X29781Y21947
X29978Y22439
X30175Y22931
X30963Y22931
X31159Y22439
X30963Y21947
X31159Y21455
X31996Y20766
X31996Y20077
X31898Y19535
X32488Y18846
X32488Y18354
X32980Y19240
X32094Y16632
X31898Y16041
X31996Y15500
X32734Y14467
X30815Y14959
X30126Y15549
X30667Y12990
X30667Y12154
X31848Y10825
X29093Y12154
X28600Y11563
X23039Y21799
X22252Y21799
X21465Y21799
X21366Y24014
X23581Y27409
X26632Y22390
X32931Y25441
X32931Y26228
X35146Y29575
X31750Y35726
X30569Y35726
X26878Y37793
X8522Y24752
X6947Y17518
X11327Y14516
T02
X27945Y24900
X29945Y24900
T03
X20890Y17469
X18890Y17469
T04
X25697Y15213
X25697Y14213
X28059Y14622
X28059Y13622
T05
X29557Y38083
X30557Y38083
X30057Y39083
X31057Y39083
X32057Y39083
X33057Y39083
X32557Y38083
X31557Y38083
T06
X32797Y42913
X33797Y43512
X29817Y43512
X28817Y42913
T07
X25746Y40894
X25195Y42213
X25195Y39575
X22557Y39575
X22006Y40894
X22557Y42213
X18650Y38915
X19201Y37596
X18650Y36278
X16012Y36278
X15461Y37596
X16012Y38915
X23886Y36268
X24886Y36268
X24878Y35087
X25878Y35087
X26878Y35087
X26886Y36268
X25886Y36268
X27886Y36268
X28886Y36268
X28878Y35087
X27878Y35087
X33610Y24224
X33610Y23224
X33610Y22224
X33610Y21224
X33610Y20224
X33610Y19224
X33610Y18224
X33610Y17224
X33610Y16224
X35539Y15795
X35539Y13827
X35441Y11980
X35441Y10980
X35441Y9980
X35441Y8980
X34161Y7453
X34161Y6453
X34161Y5453
X34161Y4453
X33587Y3197
X32587Y3197
X31587Y3197
X30043Y3197
X29043Y3197
X28043Y3197
X26500Y3197
X25500Y3197
X24500Y3197
X22628Y4500
X22628Y5500
X21628Y5500
X21628Y4500
X20628Y4500
X20628Y5500
X19628Y5500
X19628Y4500
X18628Y4500
X18628Y5500
X14409Y5500
X13409Y5500
X13409Y4500
X14409Y4500
X12409Y4500
X11409Y4500
X11409Y5500
X12409Y5500
X10409Y5500
X10409Y4500
X20858Y11563
X21858Y11563
X22858Y11563
X24205Y11563
X25205Y11563
X26205Y11563
X8626Y18224
X8626Y19224
X8626Y20224
X8626Y21224
X8626Y22224
T08
X8669Y36248
X7685Y36248
X11898Y36248
X12882Y36248
X12882Y43531
X11898Y43531
X8669Y43531
X7685Y43531
T09
X5106Y36858
X5106Y35795
X5106Y34850
X5106Y33906
X5106Y32843
X5106Y31248
X5106Y30185
X5106Y29240
X5106Y28295
X5106Y27232
X5106Y25638
X5106Y24575
X5106Y23630
X5106Y22685
X5106Y21622
X3138Y21661
X3138Y23630
X3138Y25598
X3138Y27272
X3138Y29240
X3138Y31209
X3138Y32882
X3138Y34850
X3138Y36819
X18610Y42715
T10
X19610Y43715
X19610Y41715
X17610Y41715
X17610Y43715
X28207Y40382
X34407Y40382
T11
X5894Y40795
X4713Y38945
X3531Y40795
X3531Y18846
X4713Y16996
X5894Y18846
X5894Y13827
X4713Y11976
X3531Y13827
X3531Y8807
X4713Y6957
X5894Y8807
T12
X2961Y3098
X17331Y37596
X23876Y40894
X35441Y43354
X2961Y43354
X35441Y3098
T13
X33557Y41583
X29057Y41583
M30
