G75*
G70*
%OFA0B0*%
%FSLAX24Y24*%
%IPPOS*%
%LPD*%
%AMOC8*
5,1,8,0,0,1.08239X$1,22.5*
%
%ADD10R,0.0394X0.0433*%
%ADD11R,0.0433X0.0394*%
%ADD12R,0.0630X0.0512*%
%ADD13R,0.0630X0.1378*%
%ADD14R,0.0425X0.0413*%
%ADD15C,0.0236*%
%ADD16R,0.0260X0.0800*%
%ADD17R,0.0800X0.0260*%
%ADD18R,0.0354X0.0276*%
%ADD19R,0.0472X0.0472*%
%ADD20R,0.0551X0.0394*%
%ADD21R,0.0110X0.0580*%
%ADD22R,0.0580X0.0110*%
%ADD23R,0.0118X0.0591*%
%ADD24R,0.0591X0.0118*%
%ADD25R,0.0394X0.0591*%
%ADD26R,0.1378X0.0630*%
%ADD27C,0.0217*%
%ADD28R,0.0394X0.0551*%
D10*
X012114Y013787D03*
X012114Y014457D03*
X012114Y018512D03*
X012114Y019181D03*
X013896Y022833D03*
X014565Y022833D03*
X011031Y026287D03*
X011031Y026957D03*
X007094Y027075D03*
X007094Y027744D03*
X007094Y028453D03*
X007094Y029122D03*
X007094Y029634D03*
X007094Y030303D03*
X007094Y030815D03*
X007094Y031484D03*
X010638Y034407D03*
X010638Y035077D03*
X012705Y035077D03*
X012705Y034407D03*
X013896Y033512D03*
X014565Y033512D03*
X022163Y034102D03*
X022163Y034890D03*
X022833Y034890D03*
X022833Y034102D03*
X022833Y035677D03*
X022163Y035677D03*
X026199Y037793D03*
X026868Y037793D03*
X028059Y033945D03*
X028059Y033276D03*
X029634Y033276D03*
X029634Y033945D03*
X030421Y033945D03*
X030421Y033276D03*
X030028Y032469D03*
X030028Y031799D03*
X030815Y031799D03*
X030815Y032469D03*
X031799Y032469D03*
X031799Y031799D03*
X031996Y033276D03*
X031996Y033945D03*
X034467Y031937D03*
X035136Y031937D03*
X035136Y031150D03*
X035136Y030362D03*
X034467Y030362D03*
X034467Y031150D03*
X034467Y029575D03*
X035136Y029575D03*
X035136Y028787D03*
X035136Y028000D03*
X034467Y028000D03*
X034467Y028787D03*
X034467Y027213D03*
X035136Y027213D03*
X035136Y026425D03*
X035136Y025638D03*
X034467Y025638D03*
X034467Y026425D03*
X032587Y023217D03*
X032587Y022547D03*
X031996Y020756D03*
X031996Y020087D03*
X032094Y017311D03*
X032094Y016642D03*
X030126Y015539D03*
X030126Y014870D03*
X026484Y015953D03*
X026484Y016622D03*
X025697Y016622D03*
X025697Y015953D03*
X023138Y020579D03*
X023138Y021248D03*
X022350Y021248D03*
X022350Y020579D03*
X019791Y021809D03*
X019791Y022478D03*
X018807Y014555D03*
X018807Y013886D03*
X017921Y013886D03*
X017921Y014555D03*
X027911Y021661D03*
X027911Y022331D03*
X027272Y026386D03*
X027272Y027055D03*
X028020Y026917D03*
X028689Y026917D03*
X007094Y025776D03*
X007094Y025106D03*
X007094Y024398D03*
X007094Y023728D03*
D11*
X006268Y006543D03*
X006937Y006543D03*
X006937Y007429D03*
X006268Y007429D03*
X006268Y010185D03*
X006937Y010185D03*
X006937Y011563D03*
X006268Y011563D03*
X006268Y012449D03*
X006937Y012449D03*
X006937Y015205D03*
X006268Y015205D03*
X006268Y016632D03*
X006937Y016632D03*
X006937Y017518D03*
X006268Y017518D03*
X006268Y020224D03*
X006937Y020224D03*
X007843Y023866D03*
X008512Y023866D03*
X008512Y024752D03*
X007843Y024752D03*
X007843Y025638D03*
X008512Y025638D03*
X008512Y027213D03*
X007843Y027213D03*
X007843Y028098D03*
X008512Y028098D03*
X008512Y028984D03*
X007843Y028984D03*
X007843Y029772D03*
X007843Y030559D03*
X008512Y030559D03*
X008512Y029772D03*
X008512Y031346D03*
X007843Y031346D03*
X010894Y027606D03*
X011563Y027606D03*
X011563Y025638D03*
X010894Y025638D03*
X011337Y034939D03*
X012006Y034939D03*
X021169Y036917D03*
X021169Y037587D03*
X027675Y030067D03*
X027528Y029280D03*
X028197Y029280D03*
X028344Y030067D03*
X028020Y030854D03*
X028689Y030854D03*
X028344Y028492D03*
X027675Y028492D03*
X028020Y027705D03*
X028689Y027705D03*
X029988Y026524D03*
X030657Y026524D03*
X029673Y023522D03*
X029004Y023522D03*
X023039Y022478D03*
X023039Y021809D03*
X022252Y021809D03*
X022252Y022478D03*
X021465Y022478D03*
X021465Y021809D03*
X024280Y015106D03*
X024949Y015106D03*
X024949Y014319D03*
X024280Y014319D03*
X026642Y014516D03*
X027311Y014516D03*
X027311Y013728D03*
X026642Y013728D03*
X027173Y012094D03*
X027173Y011425D03*
X027921Y011563D03*
X028591Y011563D03*
X033335Y014959D03*
X034004Y014959D03*
X034358Y009634D03*
X034358Y008965D03*
X019890Y011425D03*
X019890Y012094D03*
X028846Y033276D03*
X028846Y033945D03*
X030569Y035736D03*
X030569Y036406D03*
X031750Y036406D03*
X031750Y035736D03*
X031209Y033945D03*
X031209Y033276D03*
X032783Y033276D03*
X032783Y033945D03*
X033571Y033945D03*
X033571Y033276D03*
X034358Y033276D03*
X034358Y033945D03*
D12*
X011327Y014516D03*
X011327Y013728D03*
D13*
X008177Y032547D03*
X008177Y034673D03*
X015411Y041356D03*
X015411Y043482D03*
D14*
X021071Y021258D03*
X021661Y021258D03*
X021661Y020569D03*
X021071Y020569D03*
D15*
X020972Y023040D02*
X020972Y023590D01*
X020579Y023590D02*
X020579Y023040D01*
X020185Y023040D02*
X020185Y023590D01*
X019791Y023590D02*
X019791Y023040D01*
X019398Y023040D02*
X019398Y023590D01*
X019004Y023590D02*
X019004Y023040D01*
X018610Y023040D02*
X018610Y023590D01*
X018217Y023590D02*
X018217Y023040D01*
X017823Y023040D02*
X017823Y023590D01*
X017429Y023590D02*
X017429Y023040D01*
X017035Y023040D02*
X017035Y023590D01*
X016642Y023590D02*
X016642Y023040D01*
X015184Y025047D02*
X014634Y025047D01*
X014634Y025441D02*
X015184Y025441D01*
X015184Y025835D02*
X014634Y025835D01*
X014634Y026228D02*
X015184Y026228D01*
X015184Y026622D02*
X014634Y026622D01*
X014634Y027016D02*
X015184Y027016D01*
X015184Y027409D02*
X014634Y027409D01*
X014634Y027803D02*
X015184Y027803D01*
X015184Y028197D02*
X014634Y028197D01*
X014634Y028591D02*
X015184Y028591D01*
X015184Y028984D02*
X014634Y028984D01*
X014634Y029378D02*
X015184Y029378D01*
X015184Y029772D02*
X014634Y029772D01*
X014634Y030165D02*
X015184Y030165D01*
X015184Y030559D02*
X014634Y030559D01*
X014634Y030953D02*
X015184Y030953D01*
X015184Y031346D02*
X014634Y031346D01*
X016642Y032804D02*
X016642Y033354D01*
X017035Y033354D02*
X017035Y032804D01*
X017429Y032804D02*
X017429Y033354D01*
X017823Y033354D02*
X017823Y032804D01*
X018217Y032804D02*
X018217Y033354D01*
X018610Y033354D02*
X018610Y032804D01*
X019004Y032804D02*
X019004Y033354D01*
X019398Y033354D02*
X019398Y032804D01*
X019791Y032804D02*
X019791Y033354D01*
X020185Y033354D02*
X020185Y032804D01*
X020579Y032804D02*
X020579Y033354D01*
X020972Y033354D02*
X020972Y032804D01*
X021366Y032804D02*
X021366Y033354D01*
X021760Y033354D02*
X021760Y032804D01*
X022154Y032804D02*
X022154Y033354D01*
X022547Y033354D02*
X022547Y032804D01*
X022941Y032804D02*
X022941Y033354D01*
X024398Y031346D02*
X024948Y031346D01*
X024948Y030953D02*
X024398Y030953D01*
X024398Y030559D02*
X024948Y030559D01*
X024948Y030165D02*
X024398Y030165D01*
X024398Y029772D02*
X024948Y029772D01*
X024948Y029378D02*
X024398Y029378D01*
X024398Y028984D02*
X024948Y028984D01*
X024948Y028591D02*
X024398Y028591D01*
X024398Y028197D02*
X024948Y028197D01*
X024948Y027803D02*
X024398Y027803D01*
X024398Y027409D02*
X024948Y027409D01*
X024948Y027016D02*
X024398Y027016D01*
X024398Y026622D02*
X024948Y026622D01*
X024948Y026228D02*
X024398Y026228D01*
X024398Y025835D02*
X024948Y025835D01*
X024948Y025441D02*
X024398Y025441D01*
X024398Y025047D02*
X024948Y025047D01*
X022941Y023590D02*
X022941Y023040D01*
X022547Y023040D02*
X022547Y023590D01*
X022154Y023590D02*
X022154Y023040D01*
X021760Y023040D02*
X021760Y023590D01*
X021366Y023590D02*
X021366Y023040D01*
D16*
X019967Y009968D03*
X019467Y009968D03*
X018967Y009968D03*
X018467Y009968D03*
X017967Y009968D03*
X017467Y009968D03*
X016967Y009968D03*
X016467Y009968D03*
X016467Y007548D03*
X016967Y007548D03*
X017467Y007548D03*
X017967Y007548D03*
X018467Y007548D03*
X018967Y007548D03*
X019467Y007548D03*
X019967Y007548D03*
X013667Y007548D03*
X013167Y007548D03*
X012667Y007548D03*
X012167Y007548D03*
X011667Y007548D03*
X011167Y007548D03*
X010667Y007548D03*
X010167Y007548D03*
X010167Y009968D03*
X010667Y009968D03*
X011167Y009968D03*
X011667Y009968D03*
X012167Y009968D03*
X012667Y009968D03*
X013167Y009968D03*
X013667Y009968D03*
D17*
X012989Y014030D03*
X012989Y014530D03*
X012989Y015030D03*
X012989Y015530D03*
X012989Y016030D03*
X012989Y016530D03*
X012989Y017030D03*
X012989Y017530D03*
X012989Y018030D03*
X012989Y018530D03*
X012989Y019030D03*
X012989Y019530D03*
X016949Y019530D03*
X016949Y019030D03*
X016949Y018530D03*
X016949Y018030D03*
X016949Y017530D03*
X016949Y017030D03*
X016949Y016530D03*
X016949Y016030D03*
X016949Y015530D03*
X016949Y015030D03*
X016949Y014530D03*
X016949Y014030D03*
D18*
X030815Y014949D03*
X030815Y015461D03*
D19*
X017154Y033906D03*
X016327Y033906D03*
X020805Y035677D03*
X021632Y035677D03*
D20*
X021553Y034870D03*
X021553Y034122D03*
X020687Y034496D03*
D21*
X027563Y020860D03*
X027763Y020860D03*
X027963Y020860D03*
X028153Y020860D03*
X028353Y020860D03*
X028553Y020860D03*
X028743Y020860D03*
X028943Y020860D03*
X029143Y020860D03*
X029343Y020860D03*
X029533Y020860D03*
X029733Y020860D03*
X029933Y020860D03*
X030123Y020860D03*
X030323Y020860D03*
X030523Y020860D03*
X030523Y016440D03*
X030323Y016440D03*
X030123Y016440D03*
X029933Y016440D03*
X029733Y016440D03*
X029533Y016440D03*
X029343Y016440D03*
X029143Y016440D03*
X028943Y016440D03*
X028743Y016440D03*
X028553Y016440D03*
X028353Y016440D03*
X028153Y016440D03*
X027963Y016440D03*
X027763Y016440D03*
X027563Y016440D03*
D22*
X026833Y017170D03*
X026833Y017370D03*
X026833Y017570D03*
X026833Y017760D03*
X026833Y017960D03*
X026833Y018160D03*
X026833Y018350D03*
X026833Y018550D03*
X026833Y018750D03*
X026833Y018950D03*
X026833Y019140D03*
X026833Y019340D03*
X026833Y019540D03*
X026833Y019730D03*
X026833Y019930D03*
X026833Y020130D03*
X031253Y020130D03*
X031253Y019930D03*
X031253Y019730D03*
X031253Y019540D03*
X031253Y019340D03*
X031253Y019140D03*
X031253Y018950D03*
X031253Y018750D03*
X031253Y018550D03*
X031253Y018350D03*
X031253Y018160D03*
X031253Y017960D03*
X031253Y017760D03*
X031253Y017570D03*
X031253Y017370D03*
X031253Y017170D03*
D23*
X031307Y027331D03*
X031110Y027331D03*
X030913Y027331D03*
X030717Y027331D03*
X030520Y027331D03*
X030323Y027331D03*
X031504Y027331D03*
X031701Y027331D03*
X031898Y027331D03*
X032094Y027331D03*
X032291Y027331D03*
X032488Y027331D03*
X032488Y030835D03*
X032291Y030835D03*
X032094Y030835D03*
X031898Y030835D03*
X031701Y030835D03*
X031504Y030835D03*
X031307Y030835D03*
X031110Y030835D03*
X030913Y030835D03*
X030717Y030835D03*
X030520Y030835D03*
X030323Y030835D03*
D24*
X029654Y030165D03*
X029654Y029969D03*
X029654Y029772D03*
X029654Y029575D03*
X029654Y029378D03*
X029654Y029181D03*
X029654Y028984D03*
X029654Y028787D03*
X029654Y028591D03*
X029654Y028394D03*
X029654Y028197D03*
X029654Y028000D03*
X033157Y028000D03*
X033157Y028197D03*
X033157Y028394D03*
X033157Y028591D03*
X033157Y028787D03*
X033157Y028984D03*
X033157Y029181D03*
X033157Y029378D03*
X033157Y029575D03*
X033157Y029772D03*
X033157Y029969D03*
X033157Y030165D03*
D25*
X031862Y010764D03*
X031075Y010764D03*
X030287Y010764D03*
X029500Y010764D03*
X028713Y010764D03*
X027925Y010764D03*
X027138Y010764D03*
X027138Y004307D03*
X027925Y004307D03*
X028713Y004307D03*
X029500Y004307D03*
X030287Y004307D03*
X031075Y004307D03*
X031862Y004307D03*
D26*
X012685Y029772D03*
X010559Y029772D03*
D27*
X010539Y032095D02*
X012803Y032095D01*
X012803Y031445D01*
X010539Y031445D01*
X010539Y032095D01*
X010539Y031661D02*
X012803Y031661D01*
X012803Y031877D02*
X010539Y031877D01*
X010539Y032093D02*
X012803Y032093D01*
X012803Y033059D02*
X010539Y033059D01*
X010539Y033709D01*
X012803Y033709D01*
X012803Y033059D01*
X012803Y033275D02*
X010539Y033275D01*
X010539Y033491D02*
X012803Y033491D01*
X012803Y033707D02*
X010539Y033707D01*
D28*
X013856Y032813D03*
X014604Y032813D03*
X014230Y031947D03*
X014230Y024398D03*
X013856Y023531D03*
X014604Y023531D03*
M02*
